
<svg width="1280" height="960" viewBox="0 0 1280 960" xmlns="http://www.w3.org/2000/svg" style="background:#090d16; font-family: ui-sans-serif, system-ui, -apple-system, BlinkMacSystemFont, 'Segoe UI', Roboto, sans-serif;">
  <!-- Header Bar -->
  <rect x="0" y="0" width="1280" height="60" fill="#0f172a" border="none"/>
  <text x="40" y="38" font-size="20" font-weight="bold" fill="#38bdf8">
    THE INTERMEDIATOR | Emergency Collapse Hemodynamic Monitor
  </text>
  <text x="1240" y="38" font-size="13" font-weight="semibold" text-anchor="end" fill="#94a3b8">
    Patient ID: <tspan fill="#f8fafc">PT-REAL-VIDEO-120FPS</tspan> • Mode: Sternal/Arm 120+ FPS Contact sPPG
  </text>

  <!-- ================= PANEL 1: Sternal sPPG Pulse Wave (IT Feet + Peaks) ================= -->
  <rect x="40" y="70" width="580" height="180" fill="#131d31" stroke="#1e293b" rx="10"/>
  <text x="60" y="94" font-size="12" font-weight="bold" fill="#38bdf8">
    1. Sternal Contact sPPG (GRD Motion Cancelled) • Intersecting Tangents
  </text>
  <line x1="60" y1="150" x2="580" y2="150" stroke="#1e293b" stroke-dasharray="3"/>
  <polyline fill="none" stroke="#10b981" stroke-width="2.5" points="60.0,202.2 65.7,202.3 71.4,202.4 77.1,202.4 82.9,202.2 88.6,202.0 94.3,201.8 100.0,201.7 105.7,201.7 111.4,201.9 117.1,202.2 122.9,202.6 128.6,202.9 134.3,202.9 140.0,202.8 145.7,202.6 151.4,202.3 157.1,202.0 162.9,201.6 168.6,201.3 174.3,201.1 180.0,201.2 185.7,201.6 191.4,202.2 197.1,203.0 202.9,203.6 208.6,203.9 214.3,203.8 220.0,203.6 225.7,203.2 231.4,202.6 237.1,201.8 242.9,200.8 248.6,200.0 254.3,199.2 260.0,198.9 265.7,199.3 271.4,200.5 277.1,202.3 282.9,204.2 288.6,206.0 294.3,207.2 300.0,207.4 305.7,206.7 311.4,204.9 317.1,202.4 322.9,199.6 328.6,197.3 334.3,195.8 340.0,195.7 345.7,196.8 351.4,198.9 357.1,201.7 362.9,204.8 368.6,207.6 374.3,209.5 380.0,209.9 385.7,208.7 391.4,206.2 397.1,202.7 402.9,199.0 408.6,196.0 414.3,194.3 420.0,194.2 425.7,195.7 431.4,198.5 437.1,201.9 442.9,205.5 448.6,208.4 454.3,210.0 460.0,210.0 465.7,208.4 471.4,205.6 477.1,202.3 482.9,199.2 488.6,196.7 494.3,195.4 500.0,195.3 505.7,196.5 511.4,198.7 517.1,201.5 522.9,204.4 528.6,206.9 534.3,208.6 540.0,209.0 545.7,208.1 551.4,206.0 557.1,203.2 562.9,200.3 568.6,198.0 574.3,196.6 580.0,196.3 " />
  <polygon points="225.7,206.2 221.7,213.2 229.7,213.2" fill="#3b82f6" /><polygon points="305.7,209.7 301.7,216.7 309.7,216.7" fill="#3b82f6" /><polygon points="385.7,211.7 381.7,218.7 389.7,218.7" fill="#3b82f6" /><polygon points="465.7,211.4 461.7,218.4 469.7,218.4" fill="#3b82f6" />
  <circle cx="260.0" cy="198.9" r="4" fill="#ef4444" stroke="#ffffff" stroke-width="1.5"/><circle cx="340.0" cy="195.7" r="4" fill="#ef4444" stroke="#ffffff" stroke-width="1.5"/><circle cx="420.0" cy="194.2" r="4" fill="#ef4444" stroke="#ffffff" stroke-width="1.5"/><circle cx="500.0" cy="195.3" r="4" fill="#ef4444" stroke="#ffffff" stroke-width="1.5"/>
  <rect x="440" y="80" width="160" height="22" fill="#0f172a" stroke="#334155" rx="5"/>
  <text x="520" y="95" font-size="10" font-weight="bold" text-anchor="middle" fill="#34d399">
    HR: 126.6 BPM | CT: 200ms
  </text>

  <!-- ================= PANEL 2: SDPPG Acceleration Wave (Vascular Aging AGI) ================= -->
  <rect x="660" y="70" width="580" height="180" fill="#131d31" stroke="#1e293b" rx="10"/>
  <text x="680" y="94" font-size="12" font-weight="bold" fill="#f59e0b">
    2. Second Derivative Photoplethysmogram (SDPPG / APG) • Vascular Aging
  </text>
  <line x1="680" y1="150" x2="1200" y2="150" stroke="#1e293b" stroke-dasharray="3"/>
  <polyline fill="none" stroke="#f59e0b" stroke-width="2" points="680.0,149.7 685.7,149.2 691.4,145.3 697.1,145.3 702.9,147.6 708.6,150.2 714.3,152.5 720.0,153.8 725.7,156.3 731.4,157.0 737.1,150.7 742.9,144.2 748.6,142.9 754.3,143.8 760.0,145.6 765.7,147.6 771.4,147.5 777.1,147.7 782.9,151.0 788.6,156.0 794.3,159.5 800.0,161.3 805.7,159.8 811.4,152.1 817.1,143.6 822.9,139.3 828.6,138.8 834.3,141.1 840.0,143.5 845.7,142.3 851.4,142.5 857.1,146.5 862.9,150.3 868.6,155.5 874.3,165.0 880.0,176.4 885.7,178.6 891.4,168.5 897.1,156.7 902.9,144.0 908.6,128.9 914.3,116.7 920.0,110.7 925.7,113.0 931.4,123.9 937.1,140.4 942.9,162.5 948.6,185.1 954.3,196.6 960.0,195.8 965.7,186.3 971.4,173.7 977.1,160.5 982.9,141.0 988.6,115.3 994.3,95.3 1000.0,91.6 1005.7,99.2 1011.4,116.2 1017.1,143.4 1022.9,172.9 1028.6,197.5 1034.3,210.0 1040.0,207.0 1045.7,194.2 1051.4,176.7 1057.1,153.2 1062.9,125.8 1068.6,102.7 1074.3,90.0 1080.0,91.3 1085.7,107.2 1091.4,131.1 1097.1,155.6 1102.9,175.5 1108.6,188.1 1114.3,196.0 1120.0,197.4 1125.7,187.5 1131.4,170.5 1137.1,153.5 1142.9,135.9 1148.6,117.5 1154.3,104.3 1160.0,101.2 1165.7,107.1 1171.4,123.3 1177.1,148.1 1182.9,169.9 1188.6,183.8 1194.3,189.7 1200.0,149.7 " />
  <rect x="1030" y="80" width="190" height="22" fill="#0f172a" stroke="#334155" rx="5"/>
  <text x="1125" y="95" font-size="10" font-weight="bold" text-anchor="middle" fill="#fbbf24">
    AGI: 1.4 | b/a: 0.37
  </text>

  <!-- ================= PANEL 3: Welch PSD Autonomic Spectrum (LF/HF) ================= -->
  <rect x="40" y="270" width="580" height="180" fill="#131d31" stroke="#1e293b" rx="10"/>
  <text x="60" y="294" font-size="12" font-weight="bold" fill="#a855f7">
    3. Welch PSD Autonomic Spectrum (Cardiac Peak: 2.11 Hz)
  </text>
  <line x1="60" y1="350" x2="580" y2="350" stroke="#1e293b" stroke-dasharray="3"/>
  <polyline fill="none" stroke="#c084fc" stroke-width="2" points="60.0,410.0 68.7,410.0 77.4,410.0 86.1,410.0 94.8,410.0 103.5,410.0 112.2,410.0 120.9,410.0 129.6,410.0 138.3,410.0 147.1,410.0 155.8,410.0 164.5,410.0 173.2,410.0 181.9,410.0 190.6,410.0 199.3,410.0 208.0,410.0 216.7,410.0 225.4,409.9 234.1,409.9 242.8,410.0 251.5,409.9 260.2,409.7 268.9,409.1 277.6,407.6 286.3,404.8 295.0,400.0 303.8,392.7 312.5,382.3 321.2,368.9 329.9,353.0 338.6,335.7 347.3,318.9 356.0,304.5 364.7,294.3 373.4,290.0 382.1,292.0 390.8,300.0 399.5,312.7 408.2,328.4 416.9,344.9 425.6,360.7 434.3,374.5 443.0,385.7 451.7,394.1 460.4,400.1 469.2,404.1 477.9,406.7 486.6,408.3 495.3,409.2 504.0,409.7 512.7,409.9 521.4,410.0 530.1,410.0 538.8,410.0 547.5,409.9 556.2,409.9 564.9,409.9 573.6,409.9 " />
  <rect x="440" y="280" width="160" height="22" fill="#0f172a" stroke="#334155" rx="5"/>
  <text x="520" y="295" font-size="10" font-weight="bold" text-anchor="middle" fill="#d8b4fe">
    LF/HF Ratio: 1.5 (Balanced)
  </text>

  <!-- ================= PANEL 4: Poincaré Non-Linear Dynamics ================= -->
  <rect x="660" y="270" width="580" height="180" fill="#131d31" stroke="#1e293b" rx="10"/>
  <text x="680" y="294" font-size="12" font-weight="bold" fill="#38bdf8">
    4. Poincaré Non-Linear Dynamics (NN[k] vs NN[k+1])
  </text>
  <rect x="710" y="275" width="160" height="160" fill="#0b1120" stroke="#1e293b" rx="6"/>
  <line x1="710" y1="435" x2="870" y2="275" stroke="#334155" stroke-dasharray="2"/>
  <circle cx="790.0" cy="350.0" r="4" fill="#10b981" stroke="#064e3b" stroke-width="1" opacity="0.8"/><circle cx="790.0" cy="350.0" r="4" fill="#10b981" stroke="#064e3b" stroke-width="1" opacity="0.8"/>
  <rect x="910" y="320" width="310" height="90" fill="#0f172a" stroke="#334155" rx="6"/>
  <text x="925" y="345" font-size="11" fill="#94a3b8">• SD1 (Short-Term / Parasymp): <tspan font-weight="bold" fill="#38bdf8">0 ms</tspan></text>
  <text x="925" y="370" font-size="11" fill="#94a3b8">• SD2 (Long-Term Autonomic): <tspan font-weight="bold" fill="#38bdf8">0 ms</tspan></text>
  <text x="925" y="395" font-size="11" fill="#94a3b8">• HRV RMSSD: <tspan font-weight="bold" fill="#ef4444">0 ms</tspan></text>

  <!-- ================= PANEL 5: Tri-Modal Smart Respiratory Fusion ================= -->
  <rect x="40" y="470" width="580" height="230" fill="#131d31" stroke="#1e293b" rx="10"/>
  <text x="60" y="494" font-size="12" font-weight="bold" fill="#06b6d4">
    5. Tri-Modal Smart Respiration Fusion (Sternal Rib Excursion vs RSA)
  </text>

  <!-- Bar 1: BW Sternal Rib Cage -->
  <text x="60" y="530" font-size="11" fill="#94a3b8">Baseline Wander (BW - Ribs):</text>
  <rect x="250" y="518" width="168.8" height="16" fill="#06b6d4" rx="3"/>
  <text x="428.8" y="531" font-size="11" font-weight="bold" fill="#22d3ee">21.1 BrPM</text>

  <!-- Bar 2: AM Stroke Volume -->
  <text x="60" y="565" font-size="11" fill="#94a3b8">Amplitude Mod (AM - Stroke):</text>
  <rect x="250" y="553" width="168.8" height="16" fill="#3b82f6" rx="3"/>
  <text x="428.8" y="566" font-size="11" font-weight="bold" fill="#60a5fa">21.1 BrPM</text>

  <!-- Bar 3: FM Respiratory Sinus Arrhythmia -->
  <text x="60" y="600" font-size="11" fill="#94a3b8">Freq Mod (FM - Vagal RSA):</text>
  <rect x="250" y="588" width="168.8" height="16" fill="#8b5cf6" rx="3"/>
  <text x="428.8" y="601" font-size="11" font-weight="bold" fill="#a78bfa">21.1 BrPM</text>

  <!-- Consensus Badge -->
  <rect x="60" y="630" width="540" height="50" fill="#0f172a" stroke="#334155" rx="6"/>
  <text x="75" y="660" font-size="12" font-weight="bold" fill="#f8fafc">
    CONSENSUS RESPIRATION: <tspan fill="#38bdf8" font-size="15">21.1 BrPM</tspan>
  </text>
  <text x="440" y="660" font-size="11" fill="#f59e0b">
    ⚠ Frequency Variance
  </text>

  <!-- ================= PANEL 6: Clinical Vitals Matrix & Multi-Tier SQI ================= -->
  <rect x="660" y="470" width="580" height="230" fill="#131d31" stroke="#1e293b" rx="10"/>
  <text x="680" y="494" font-size="12" font-weight="bold" fill="#f43f5e">
    6. Clinical Hemodynamic Matrix & 4-Gate SQI Protocol
  </text>

  <g transform="translate(680, 515)">
    <!-- Column 1 -->
    <rect x="0" y="0" width="165" height="75" fill="#0f172a" stroke="#1e293b" rx="6"/>
    <text x="15" y="24" font-size="10" fill="#94a3b8">HEART RATE</text>
    <text x="15" y="55" font-size="22" font-weight="bold" fill="#ef4444">126.6 <tspan font-size="11" font-weight="normal" fill="#64748b">BPM</tspan></text>

    <!-- Column 2 -->
    <rect x="180" y="0" width="165" height="75" fill="#0f172a" stroke="#1e293b" rx="6"/>
    <text x="195" y="24" font-size="10" fill="#94a3b8">SpO2 PROXY (Reflectance)</text>
    <text x="195" y="55" font-size="22" font-weight="bold" fill="#38bdf8">100 <tspan font-size="11" font-weight="normal" fill="#64748b">%</tspan></text>

    <!-- Column 3 -->
    <rect x="360" y="0" width="180" height="75" fill="#0f172a" stroke="#1e293b" rx="6"/>
    <text x="375" y="24" font-size="10" fill="#94a3b8">PERFUSION INDEX (PI)</text>
    <text x="375" y="55" font-size="22" font-weight="bold" fill="#10b981">3.21 <tspan font-size="11" font-weight="normal" fill="#64748b">%</tspan></text>

    <!-- Row 2: SQI Diagnostics -->
    <rect x="0" y="90" width="540" height="85" fill="#0f172a" stroke="#334155" rx="6"/>
    <text x="15" y="112" font-size="11" font-weight="bold" fill="#f8fafc">4-GATE SIGNAL QUALITY INDEX (SQI): <tspan fill="#34d399">55.00000000000001%</tspan></text>
    <text x="15" y="132" font-size="10" fill="#94a3b8">• PI Gate (>=0.15%): <tspan fill="#34d399">PASSED</tspan></text>
    <text x="210" y="132" font-size="10" fill="#94a3b8">• Template Corr (r): <tspan fill="#38bdf8">0.67</tspan></text>
    <text x="390" y="132" font-size="10" fill="#94a3b8">• Skewness (S>0): <tspan fill="#38bdf8">-0.04</tspan></text>
    <text x="15" y="156" font-size="10" fill="#94a3b8">• Sternal Contact Force: <tspan font-weight="bold" fill="#34d399">OPTIMAL</tspan></text>
    <text x="320" y="156" font-size="10" fill="#94a3b8">• Asystole State: <tspan font-weight="bold" fill="#34d399">PULSATILE RHYTHM</tspan></text>
  </g>

  <!-- Footer Info -->
  <text x="640" y="730" font-size="11" text-anchor="middle" fill="#64748b">
    Generated automatically by PulseGuard / The Intermediator On-Device DSP Engine • Direct Paramedic Telemetry Relay
  </text>
</svg>
