
<svg width="1280" height="960" viewBox="0 0 1280 960" xmlns="http://www.w3.org/2000/svg" style="background:#090d16; font-family: ui-sans-serif, system-ui, -apple-system, BlinkMacSystemFont, 'Segoe UI', Roboto, sans-serif;">
  <!-- Header Bar -->
  <rect x="0" y="0" width="1280" height="60" fill="#0f172a" border="none"/>
  <text x="40" y="38" font-size="20" font-weight="bold" fill="#38bdf8">
    THE INTERMEDIATOR | Emergency Collapse Hemodynamic Monitor
  </text>
  <text x="1240" y="38" font-size="13" font-weight="semibold" text-anchor="end" fill="#94a3b8">
    Patient ID: <tspan fill="#f8fafc">PT-REAL-VIDEO-120FPS</tspan> • Mode: Sternal/Arm 120+ FPS Contact sPPG
  </text>

  <!-- ================= PANEL 1: Sternal sPPG Pulse Wave (IT Feet + Peaks) ================= -->
  <rect x="40" y="70" width="580" height="180" fill="#131d31" stroke="#1e293b" rx="10"/>
  <text x="60" y="94" font-size="12" font-weight="bold" fill="#38bdf8">
    1. Sternal Contact sPPG (GRD Motion Cancelled) • Intersecting Tangents
  </text>
  <line x1="60" y1="150" x2="580" y2="150" stroke="#1e293b" stroke-dasharray="3"/>
  <polyline fill="none" stroke="#10b981" stroke-width="2.5" points="60.0,206.1 65.8,206.1 71.6,206.0 77.3,205.9 83.1,205.8 88.9,205.9 94.7,206.1 100.4,206.3 106.2,206.7 112.0,206.9 117.8,207.1 123.6,207.0 129.3,206.7 135.1,206.1 140.9,205.4 146.7,204.8 152.4,204.4 158.2,204.4 164.0,204.7 169.8,205.3 175.6,206.1 181.3,207.1 187.1,207.9 192.9,208.3 198.7,208.3 204.4,207.9 210.2,207.1 216.0,206.0 221.8,205.0 227.6,204.1 233.3,203.6 239.1,203.6 244.9,204.3 250.7,205.4 256.4,206.9 262.2,208.2 268.0,209.0 273.8,209.1 279.6,208.5 285.3,207.3 291.1,205.7 296.9,204.2 302.7,203.2 308.4,202.8 314.2,203.3 320.0,204.3 325.8,205.8 331.6,207.2 337.3,208.4 343.1,209.2 348.9,209.4 354.7,208.9 360.4,207.8 366.2,206.2 372.0,204.7 377.8,203.4 383.6,202.8 389.3,202.8 395.1,203.6 400.9,205.0 406.7,206.6 412.4,208.0 418.2,209.1 424.0,209.4 429.8,209.1 435.6,208.0 441.3,206.5 447.1,204.8 452.9,203.5 458.7,202.8 464.4,202.9 470.2,203.8 476.0,205.3 481.8,207.0 487.6,208.5 493.3,209.4 499.1,209.6 504.9,208.9 510.7,207.6 516.4,206.0 522.2,204.4 528.0,203.1 533.8,202.4 539.6,202.6 545.3,203.5 551.1,205.2 556.9,207.1 562.7,208.7 568.4,209.8 574.2,210.0 580.0,209.3 " />
  <polygon points="123.6,210.0 119.6,217.0 127.6,217.0" fill="#3b82f6" /><polygon points="204.4,210.9 200.4,217.9 208.4,217.9" fill="#3b82f6" /><polygon points="279.6,211.5 275.6,218.5 283.6,218.5" fill="#3b82f6" /><polygon points="354.7,211.9 350.7,218.9 358.7,218.9" fill="#3b82f6" /><polygon points="429.8,212.1 425.8,219.1 433.8,219.1" fill="#3b82f6" /><polygon points="504.9,211.9 500.9,218.9 508.9,218.9" fill="#3b82f6" />
  <circle cx="158.2" cy="204.4" r="4" fill="#ef4444" stroke="#ffffff" stroke-width="1.5"/><circle cx="233.3" cy="203.6" r="4" fill="#ef4444" stroke="#ffffff" stroke-width="1.5"/><circle cx="308.4" cy="202.8" r="4" fill="#ef4444" stroke="#ffffff" stroke-width="1.5"/><circle cx="383.6" cy="202.8" r="4" fill="#ef4444" stroke="#ffffff" stroke-width="1.5"/><circle cx="458.7" cy="202.8" r="4" fill="#ef4444" stroke="#ffffff" stroke-width="1.5"/><circle cx="533.8" cy="202.4" r="4" fill="#ef4444" stroke="#ffffff" stroke-width="1.5"/>
  <rect x="440" y="80" width="160" height="22" fill="#0f172a" stroke="#334155" rx="5"/>
  <text x="520" y="95" font-size="10" font-weight="bold" text-anchor="middle" fill="#34d399">
    HR: 137.1 BPM | CT: 172.2ms
  </text>

  <!-- ================= PANEL 2: SDPPG Acceleration Wave (Vascular Aging AGI) ================= -->
  <rect x="660" y="70" width="580" height="180" fill="#131d31" stroke="#1e293b" rx="10"/>
  <text x="680" y="94" font-size="12" font-weight="bold" fill="#f59e0b">
    2. Second Derivative Photoplethysmogram (SDPPG / APG) • Vascular Aging
  </text>
  <line x1="680" y1="150" x2="1200" y2="150" stroke="#1e293b" stroke-dasharray="3"/>
  <polyline fill="none" stroke="#f59e0b" stroke-width="2" points="680.0,152.2 685.8,145.8 691.6,148.3 697.3,157.6 703.1,162.3 708.9,161.2 714.7,157.9 720.4,153.5 726.2,149.8 732.0,145.0 737.8,136.8 743.6,132.8 749.3,135.6 755.1,144.9 760.9,158.5 766.7,167.7 772.4,173.3 778.2,177.4 784.0,172.9 789.8,166.0 795.6,161.1 801.3,143.6 807.1,125.7 812.9,122.5 818.7,123.6 824.4,125.8 830.2,135.6 836.0,151.5 841.8,164.1 847.6,177.6 853.3,191.2 859.1,192.9 864.9,186.3 870.7,171.0 876.4,143.6 882.2,118.0 888.0,104.2 893.8,103.8 899.6,111.7 905.3,128.0 911.1,156.3 916.9,183.3 922.7,199.5 928.4,204.6 934.2,197.1 940.0,176.7 945.8,152.3 951.6,134.5 957.3,124.6 963.1,114.4 968.9,104.5 974.7,107.5 980.4,123.6 986.2,149.4 992.0,176.0 997.8,192.8 1003.6,201.6 1009.3,201.1 1015.1,189.2 1020.9,168.6 1026.7,144.7 1032.4,122.2 1038.2,106.9 1044.0,102.5 1049.8,106.2 1055.6,117.9 1061.3,144.2 1067.1,174.3 1072.9,195.1 1078.7,207.7 1084.4,206.1 1090.2,190.4 1096.0,167.3 1101.8,139.5 1107.6,113.8 1113.3,99.0 1119.1,97.4 1124.9,107.5 1130.7,128.1 1136.4,153.6 1142.2,176.3 1148.0,194.1 1153.8,206.8 1159.6,210.0 1165.3,197.4 1171.1,168.1 1176.9,135.8 1182.7,111.3 1188.4,96.5 1194.2,90.0 1200.0,152.2 " />
  <rect x="1030" y="80" width="190" height="22" fill="#0f172a" stroke="#334155" rx="5"/>
  <text x="1125" y="95" font-size="10" font-weight="bold" text-anchor="middle" fill="#fbbf24">
    AGI: 0.96 | b/a: 0.52
  </text>

  <!-- ================= PANEL 3: Welch PSD Autonomic Spectrum (LF/HF) ================= -->
  <rect x="40" y="270" width="580" height="180" fill="#131d31" stroke="#1e293b" rx="10"/>
  <text x="60" y="294" font-size="12" font-weight="bold" fill="#a855f7">
    3. Welch PSD Autonomic Spectrum (Cardiac Peak: 2.28 Hz)
  </text>
  <line x1="60" y1="350" x2="580" y2="350" stroke="#1e293b" stroke-dasharray="3"/>
  <polyline fill="none" stroke="#c084fc" stroke-width="2" points="60.0,410.0 68.7,410.0 77.4,410.0 86.1,410.0 94.8,410.0 103.5,410.0 112.2,410.0 120.9,410.0 129.6,410.0 138.3,410.0 147.1,410.0 155.8,410.0 164.5,410.0 173.2,410.0 181.9,410.0 190.6,410.0 199.3,410.0 208.0,409.9 216.7,409.8 225.4,409.8 234.1,409.7 242.8,409.7 251.5,409.7 260.2,409.8 268.9,409.8 277.6,409.9 286.3,409.9 295.0,409.8 303.8,409.3 312.5,408.0 321.2,405.1 329.9,399.7 338.6,390.7 347.3,377.7 356.0,360.9 364.7,341.7 373.4,322.2 382.1,305.4 390.8,293.9 399.5,290.0 408.2,294.3 416.9,306.0 425.6,323.0 434.3,342.6 443.0,361.9 451.7,378.7 460.4,391.6 469.2,400.6 477.9,405.9 486.6,408.6 495.3,409.7 504.0,409.9 512.7,409.8 521.4,409.6 530.1,409.5 538.8,409.5 547.5,409.6 556.2,409.6 564.9,409.7 573.6,409.8 " />
  <rect x="440" y="280" width="160" height="22" fill="#0f172a" stroke="#334155" rx="5"/>
  <text x="520" y="295" font-size="10" font-weight="bold" text-anchor="middle" fill="#d8b4fe">
    LF/HF Ratio: 1.5 (Balanced)
  </text>

  <!-- ================= PANEL 4: Poincaré Non-Linear Dynamics ================= -->
  <rect x="660" y="270" width="580" height="180" fill="#131d31" stroke="#1e293b" rx="10"/>
  <text x="680" y="294" font-size="12" font-weight="bold" fill="#38bdf8">
    4. Poincaré Non-Linear Dynamics (NN[k] vs NN[k+1])
  </text>
  <rect x="710" y="275" width="160" height="160" fill="#0b1120" stroke="#1e293b" rx="6"/>
  <line x1="710" y1="435" x2="870" y2="275" stroke="#334155" stroke-dasharray="2"/>
  <circle cx="810.6" cy="370.6" r="4" fill="#10b981" stroke="#064e3b" stroke-width="1" opacity="0.8"/><circle cx="769.4" cy="370.6" r="4" fill="#10b981" stroke="#064e3b" stroke-width="1" opacity="0.8"/><circle cx="769.4" cy="370.6" r="4" fill="#10b981" stroke="#064e3b" stroke-width="1" opacity="0.8"/><circle cx="769.4" cy="370.6" r="4" fill="#10b981" stroke="#064e3b" stroke-width="1" opacity="0.8"/>
  <rect x="910" y="320" width="310" height="90" fill="#0f172a" stroke="#334155" rx="6"/>
  <text x="925" y="345" font-size="11" fill="#94a3b8">• SD1 (Short-Term / Parasymp): <tspan font-weight="bold" fill="#38bdf8">11.8 ms</tspan></text>
  <text x="925" y="370" font-size="11" fill="#94a3b8">• SD2 (Long-Term Autonomic): <tspan font-weight="bold" fill="#38bdf8">14.7 ms</tspan></text>
  <text x="925" y="395" font-size="11" fill="#94a3b8">• HRV RMSSD: <tspan font-weight="bold" fill="#34d399">16.7 ms</tspan></text>

  <!-- ================= PANEL 5: Tri-Modal Smart Respiratory Fusion ================= -->
  <rect x="40" y="470" width="580" height="230" fill="#131d31" stroke="#1e293b" rx="10"/>
  <text x="60" y="494" font-size="12" font-weight="bold" fill="#06b6d4">
    5. Tri-Modal Smart Respiration Fusion (Sternal Rib Excursion vs RSA)
  </text>

  <!-- Bar 1: BW Sternal Rib Cage -->
  <text x="60" y="530" font-size="11" fill="#94a3b8">Baseline Wander (BW - Ribs):</text>
  <rect x="250" y="518" width="140.8" height="16" fill="#06b6d4" rx="3"/>
  <text x="400.8" y="531" font-size="11" font-weight="bold" fill="#22d3ee">17.6 BrPM</text>

  <!-- Bar 2: AM Stroke Volume -->
  <text x="60" y="565" font-size="11" fill="#94a3b8">Amplitude Mod (AM - Stroke):</text>
  <rect x="250" y="553" width="140.8" height="16" fill="#3b82f6" rx="3"/>
  <text x="400.8" y="566" font-size="11" font-weight="bold" fill="#60a5fa">17.6 BrPM</text>

  <!-- Bar 3: FM Respiratory Sinus Arrhythmia -->
  <text x="60" y="600" font-size="11" fill="#94a3b8">Freq Mod (FM - Vagal RSA):</text>
  <rect x="250" y="588" width="140.8" height="16" fill="#8b5cf6" rx="3"/>
  <text x="400.8" y="601" font-size="11" font-weight="bold" fill="#a78bfa">17.6 BrPM</text>

  <!-- Consensus Badge -->
  <rect x="60" y="630" width="540" height="50" fill="#0f172a" stroke="#334155" rx="6"/>
  <text x="75" y="660" font-size="12" font-weight="bold" fill="#f8fafc">
    CONSENSUS RESPIRATION: <tspan fill="#38bdf8" font-size="15">17.6 BrPM</tspan>
  </text>
  <text x="440" y="660" font-size="11" fill="#f59e0b">
    ⚠ Frequency Variance
  </text>

  <!-- ================= PANEL 6: Clinical Vitals Matrix & Multi-Tier SQI ================= -->
  <rect x="660" y="470" width="580" height="230" fill="#131d31" stroke="#1e293b" rx="10"/>
  <text x="680" y="494" font-size="12" font-weight="bold" fill="#f43f5e">
    6. Clinical Hemodynamic Matrix & 4-Gate SQI Protocol
  </text>

  <g transform="translate(680, 515)">
    <!-- Column 1 -->
    <rect x="0" y="0" width="165" height="75" fill="#0f172a" stroke="#1e293b" rx="6"/>
    <text x="15" y="24" font-size="10" fill="#94a3b8">HEART RATE</text>
    <text x="15" y="55" font-size="22" font-weight="bold" fill="#ef4444">137.1 <tspan font-size="11" font-weight="normal" fill="#64748b">BPM</tspan></text>

    <!-- Column 2 -->
    <rect x="180" y="0" width="165" height="75" fill="#0f172a" stroke="#1e293b" rx="6"/>
    <text x="195" y="24" font-size="10" fill="#94a3b8">SpO2 PROXY (Reflectance)</text>
    <text x="195" y="55" font-size="22" font-weight="bold" fill="#38bdf8">100 <tspan font-size="11" font-weight="normal" fill="#64748b">%</tspan></text>

    <!-- Column 3 -->
    <rect x="360" y="0" width="180" height="75" fill="#0f172a" stroke="#1e293b" rx="6"/>
    <text x="375" y="24" font-size="10" fill="#94a3b8">PERFUSION INDEX (PI)</text>
    <text x="375" y="55" font-size="22" font-weight="bold" fill="#10b981">2.6 <tspan font-size="11" font-weight="normal" fill="#64748b">%</tspan></text>

    <!-- Row 2: SQI Diagnostics -->
    <rect x="0" y="90" width="540" height="85" fill="#0f172a" stroke="#334155" rx="6"/>
    <text x="15" y="112" font-size="11" font-weight="bold" fill="#f8fafc">4-GATE SIGNAL QUALITY INDEX (SQI): <tspan fill="#34d399">100%</tspan></text>
    <text x="15" y="132" font-size="10" fill="#94a3b8">• PI Gate (>=0.15%): <tspan fill="#34d399">PASSED</tspan></text>
    <text x="210" y="132" font-size="10" fill="#94a3b8">• Template Corr (r): <tspan fill="#38bdf8">0.92</tspan></text>
    <text x="390" y="132" font-size="10" fill="#94a3b8">• Skewness (S>0): <tspan fill="#38bdf8">0.02</tspan></text>
    <text x="15" y="156" font-size="10" fill="#94a3b8">• Sternal Contact Force: <tspan font-weight="bold" fill="#34d399">OPTIMAL</tspan></text>
    <text x="320" y="156" font-size="10" fill="#94a3b8">• Asystole State: <tspan font-weight="bold" fill="#34d399">PULSATILE RHYTHM</tspan></text>
  </g>

  <!-- Footer Info -->
  <text x="640" y="730" font-size="11" text-anchor="middle" fill="#64748b">
    Generated automatically by PulseGuard / The Intermediator On-Device DSP Engine • Direct Paramedic Telemetry Relay
  </text>
</svg>
