
<svg width="1280" height="960" viewBox="0 0 1280 960" xmlns="http://www.w3.org/2000/svg" style="background:#090d16; font-family: ui-sans-serif, system-ui, -apple-system, BlinkMacSystemFont, 'Segoe UI', Roboto, sans-serif;">
  <!-- Header Bar -->
  <rect x="0" y="0" width="1280" height="60" fill="#0f172a" border="none"/>
  <text x="40" y="38" font-size="20" font-weight="bold" fill="#38bdf8">
    THE INTERMEDIATOR | Emergency Collapse Hemodynamic Monitor
  </text>
  <text x="1240" y="38" font-size="13" font-weight="semibold" text-anchor="end" fill="#94a3b8">
    Patient ID: <tspan fill="#f8fafc">PT-REAL-VIDEO-120FPS</tspan> • Mode: Sternal/Arm 120+ FPS Contact sPPG
  </text>

  <!-- ================= PANEL 1: Sternal sPPG Pulse Wave (IT Feet + Peaks) ================= -->
  <rect x="40" y="70" width="580" height="180" fill="#131d31" stroke="#1e293b" rx="10"/>
  <text x="60" y="94" font-size="12" font-weight="bold" fill="#38bdf8">
    1. Sternal Contact sPPG (GRD Motion Cancelled) • Intersecting Tangents
  </text>
  <line x1="60" y1="150" x2="580" y2="150" stroke="#1e293b" stroke-dasharray="3"/>
  <polyline fill="none" stroke="#10b981" stroke-width="2.5" points="60.0,206.0 65.7,206.1 71.3,206.3 77.0,206.4 82.6,206.3 88.3,206.0 93.9,205.7 99.6,205.4 105.2,205.2 110.9,205.0 116.5,205.0 122.2,205.2 127.8,205.7 133.5,206.2 139.1,206.8 144.8,207.4 150.4,207.8 156.1,207.9 161.7,207.5 167.4,206.7 173.0,205.8 178.7,204.8 184.3,204.0 190.0,203.5 195.7,203.5 201.3,204.0 207.0,204.9 212.6,206.1 218.3,207.3 223.9,208.4 229.6,209.1 235.2,209.1 240.9,208.5 246.5,207.3 252.2,205.8 257.8,204.3 263.5,203.1 269.1,202.5 274.8,202.5 280.4,203.3 286.1,204.6 291.7,206.2 297.4,207.8 303.0,209.0 308.7,209.8 314.3,209.9 320.0,209.2 325.7,207.8 331.3,206.0 337.0,204.1 342.6,202.6 348.3,201.7 353.9,201.7 359.6,202.6 365.2,204.2 370.9,206.0 376.5,207.7 382.2,209.1 387.8,209.9 393.5,210.0 399.1,209.3 404.8,208.0 410.4,206.3 416.1,204.6 421.7,203.2 427.4,202.4 433.0,202.2 438.7,202.9 444.3,204.1 450.0,205.6 455.7,207.2 461.3,208.7 467.0,209.5 472.6,209.6 478.3,209.0 483.9,207.7 489.6,206.1 495.2,204.5 500.9,203.2 506.5,202.5 512.2,202.6 517.8,203.4 523.5,204.7 529.1,206.2 534.8,207.7 540.4,208.9 546.1,209.5 551.7,209.3 557.4,208.3 563.0,206.9 568.7,205.3 574.3,203.9 580.0,202.9 " />
  <polygon points="82.6,209.3 78.6,216.3 86.6,216.3" fill="#3b82f6" /><polygon points="161.7,210.5 157.7,217.5 165.7,217.5" fill="#3b82f6" /><polygon points="240.9,211.5 236.9,218.5 244.9,218.5" fill="#3b82f6" /><polygon points="320.0,212.2 316.0,219.2 324.0,219.2" fill="#3b82f6" /><polygon points="399.1,212.3 395.1,219.3 403.1,219.3" fill="#3b82f6" /><polygon points="478.3,212.0 474.3,219.0 482.3,219.0" fill="#3b82f6" />
  <circle cx="110.9" cy="205.0" r="4" fill="#ef4444" stroke="#ffffff" stroke-width="1.5"/><circle cx="195.7" cy="203.5" r="4" fill="#ef4444" stroke="#ffffff" stroke-width="1.5"/><circle cx="269.1" cy="202.5" r="4" fill="#ef4444" stroke="#ffffff" stroke-width="1.5"/><circle cx="348.3" cy="201.7" r="4" fill="#ef4444" stroke="#ffffff" stroke-width="1.5"/><circle cx="433.0" cy="202.2" r="4" fill="#ef4444" stroke="#ffffff" stroke-width="1.5"/><circle cx="506.5" cy="202.5" r="4" fill="#ef4444" stroke="#ffffff" stroke-width="1.5"/>
  <rect x="440" y="80" width="160" height="22" fill="#0f172a" stroke="#334155" rx="5"/>
  <text x="520" y="95" font-size="10" font-weight="bold" text-anchor="middle" fill="#34d399">
    HR: 126.6 BPM | CT: 177.8ms
  </text>

  <!-- ================= PANEL 2: SDPPG Acceleration Wave (Vascular Aging AGI) ================= -->
  <rect x="660" y="70" width="580" height="180" fill="#131d31" stroke="#1e293b" rx="10"/>
  <text x="680" y="94" font-size="12" font-weight="bold" fill="#f59e0b">
    2. Second Derivative Photoplethysmogram (SDPPG / APG) • Vascular Aging
  </text>
  <line x1="680" y1="150" x2="1200" y2="150" stroke="#1e293b" stroke-dasharray="3"/>
  <polyline fill="none" stroke="#f59e0b" stroke-width="2" points="680.0,145.5 685.7,150.3 691.3,140.7 697.0,130.0 702.6,131.5 708.3,143.5 713.9,149.3 719.6,148.2 725.2,151.3 730.9,157.2 736.5,160.4 742.2,160.3 747.8,156.2 753.5,148.4 759.1,141.9 764.8,134.5 770.4,122.0 776.1,114.5 781.7,117.6 787.4,129.6 793.0,145.7 798.7,158.2 804.3,169.0 810.0,177.9 815.7,180.8 821.3,176.1 827.0,164.9 832.6,151.1 838.3,134.5 843.9,114.9 849.6,101.2 855.2,98.5 860.9,105.6 866.5,122.3 872.2,144.8 877.8,167.3 883.5,185.0 889.1,195.2 894.8,195.3 900.4,185.2 906.1,167.0 911.7,144.2 917.4,123.5 923.0,109.1 928.7,96.6 934.3,90.8 940.0,98.7 945.7,113.9 951.3,139.2 957.0,169.4 962.6,193.0 968.3,210.0 973.9,209.3 979.6,189.4 985.2,164.6 990.9,140.4 996.5,120.8 1002.2,105.8 1007.8,92.7 1013.5,90.0 1019.1,101.0 1024.8,120.2 1030.4,143.7 1036.1,167.4 1041.7,186.4 1047.4,196.6 1053.0,196.9 1058.7,187.5 1064.3,170.2 1070.0,151.1 1075.7,130.3 1081.3,106.4 1087.0,91.1 1092.6,90.7 1098.3,102.1 1103.9,122.0 1109.6,146.4 1115.2,170.2 1120.9,188.3 1126.5,197.1 1132.2,195.3 1137.8,183.2 1143.5,163.6 1149.1,142.4 1154.8,121.7 1160.4,101.6 1166.1,91.5 1171.7,95.4 1177.4,109.7 1183.0,131.6 1188.7,156.5 1194.3,178.4 1200.0,145.5 " />
  <rect x="1030" y="80" width="190" height="22" fill="#0f172a" stroke="#334155" rx="5"/>
  <text x="1125" y="95" font-size="10" font-weight="bold" text-anchor="middle" fill="#fbbf24">
    AGI: 1.08 | b/a: 0.47
  </text>

  <!-- ================= PANEL 3: Welch PSD Autonomic Spectrum (LF/HF) ================= -->
  <rect x="40" y="270" width="580" height="180" fill="#131d31" stroke="#1e293b" rx="10"/>
  <text x="60" y="294" font-size="12" font-weight="bold" fill="#a855f7">
    3. Welch PSD Autonomic Spectrum (Cardiac Peak: 2.11 Hz)
  </text>
  <line x1="60" y1="350" x2="580" y2="350" stroke="#1e293b" stroke-dasharray="3"/>
  <polyline fill="none" stroke="#c084fc" stroke-width="2" points="60.0,410.0 68.7,410.0 77.4,410.0 86.1,410.0 94.8,410.0 103.5,410.0 112.2,410.0 120.9,410.0 129.6,410.0 138.3,410.0 147.1,410.0 155.8,410.0 164.5,410.0 173.2,410.0 181.9,410.0 190.6,410.0 199.3,410.0 208.0,410.0 216.7,409.9 225.4,409.9 234.1,409.9 242.8,409.9 251.5,409.9 260.2,409.9 268.9,409.8 277.6,409.4 286.3,408.2 295.0,405.8 303.8,401.1 312.5,393.2 321.2,381.6 329.9,366.1 338.6,347.8 347.3,328.3 356.0,310.4 364.7,296.8 373.4,290.0 382.1,291.2 390.8,300.3 399.5,315.6 408.2,334.5 416.9,354.1 425.6,372.0 434.3,386.5 443.0,396.9 451.7,403.6 460.4,407.4 469.2,409.1 477.9,409.8 486.6,410.0 495.3,410.0 504.0,410.0 512.7,410.0 521.4,410.0 530.1,410.0 538.8,410.0 547.5,410.0 556.2,409.9 564.9,409.9 573.6,409.9 " />
  <rect x="440" y="280" width="160" height="22" fill="#0f172a" stroke="#334155" rx="5"/>
  <text x="520" y="295" font-size="10" font-weight="bold" text-anchor="middle" fill="#d8b4fe">
    LF/HF Ratio: 1.5 (Balanced)
  </text>

  <!-- ================= PANEL 4: Poincaré Non-Linear Dynamics ================= -->
  <rect x="660" y="270" width="580" height="180" fill="#131d31" stroke="#1e293b" rx="10"/>
  <text x="680" y="294" font-size="12" font-weight="bold" fill="#38bdf8">
    4. Poincaré Non-Linear Dynamics (NN[k] vs NN[k+1])
  </text>
  <rect x="710" y="275" width="160" height="160" fill="#0b1120" stroke="#1e293b" rx="6"/>
  <line x1="710" y1="435" x2="870" y2="275" stroke="#334155" stroke-dasharray="2"/>
  <circle cx="790.0" cy="350.0" r="4" fill="#10b981" stroke="#064e3b" stroke-width="1" opacity="0.8"/><circle cx="790.0" cy="350.0" r="4" fill="#10b981" stroke="#064e3b" stroke-width="1" opacity="0.8"/><circle cx="790.0" cy="350.0" r="4" fill="#10b981" stroke="#064e3b" stroke-width="1" opacity="0.8"/><circle cx="790.0" cy="350.0" r="4" fill="#10b981" stroke="#064e3b" stroke-width="1" opacity="0.8"/>
  <rect x="910" y="320" width="310" height="90" fill="#0f172a" stroke="#334155" rx="6"/>
  <text x="925" y="345" font-size="11" fill="#94a3b8">• SD1 (Short-Term / Parasymp): <tspan font-weight="bold" fill="#38bdf8">0 ms</tspan></text>
  <text x="925" y="370" font-size="11" fill="#94a3b8">• SD2 (Long-Term Autonomic): <tspan font-weight="bold" fill="#38bdf8">0 ms</tspan></text>
  <text x="925" y="395" font-size="11" fill="#94a3b8">• HRV RMSSD: <tspan font-weight="bold" fill="#ef4444">0 ms</tspan></text>

  <!-- ================= PANEL 5: Tri-Modal Smart Respiratory Fusion ================= -->
  <rect x="40" y="470" width="580" height="230" fill="#131d31" stroke="#1e293b" rx="10"/>
  <text x="60" y="494" font-size="12" font-weight="bold" fill="#06b6d4">
    5. Tri-Modal Smart Respiration Fusion (Sternal Rib Excursion vs RSA)
  </text>

  <!-- Bar 1: BW Sternal Rib Cage -->
  <text x="60" y="530" font-size="11" fill="#94a3b8">Baseline Wander (BW - Ribs):</text>
  <rect x="250" y="518" width="168.8" height="16" fill="#06b6d4" rx="3"/>
  <text x="428.8" y="531" font-size="11" font-weight="bold" fill="#22d3ee">21.1 BrPM</text>

  <!-- Bar 2: AM Stroke Volume -->
  <text x="60" y="565" font-size="11" fill="#94a3b8">Amplitude Mod (AM - Stroke):</text>
  <rect x="250" y="553" width="168.8" height="16" fill="#3b82f6" rx="3"/>
  <text x="428.8" y="566" font-size="11" font-weight="bold" fill="#60a5fa">21.1 BrPM</text>

  <!-- Bar 3: FM Respiratory Sinus Arrhythmia -->
  <text x="60" y="600" font-size="11" fill="#94a3b8">Freq Mod (FM - Vagal RSA):</text>
  <rect x="250" y="588" width="168.8" height="16" fill="#8b5cf6" rx="3"/>
  <text x="428.8" y="601" font-size="11" font-weight="bold" fill="#a78bfa">21.1 BrPM</text>

  <!-- Consensus Badge -->
  <rect x="60" y="630" width="540" height="50" fill="#0f172a" stroke="#334155" rx="6"/>
  <text x="75" y="660" font-size="12" font-weight="bold" fill="#f8fafc">
    CONSENSUS RESPIRATION: <tspan fill="#38bdf8" font-size="15">21.1 BrPM</tspan>
  </text>
  <text x="440" y="660" font-size="11" fill="#f59e0b">
    ⚠ Frequency Variance
  </text>

  <!-- ================= PANEL 6: Clinical Vitals Matrix & Multi-Tier SQI ================= -->
  <rect x="660" y="470" width="580" height="230" fill="#131d31" stroke="#1e293b" rx="10"/>
  <text x="680" y="494" font-size="12" font-weight="bold" fill="#f43f5e">
    6. Clinical Hemodynamic Matrix & 4-Gate SQI Protocol
  </text>

  <g transform="translate(680, 515)">
    <!-- Column 1 -->
    <rect x="0" y="0" width="165" height="75" fill="#0f172a" stroke="#1e293b" rx="6"/>
    <text x="15" y="24" font-size="10" fill="#94a3b8">HEART RATE</text>
    <text x="15" y="55" font-size="22" font-weight="bold" fill="#ef4444">126.6 <tspan font-size="11" font-weight="normal" fill="#64748b">BPM</tspan></text>

    <!-- Column 2 -->
    <rect x="180" y="0" width="165" height="75" fill="#0f172a" stroke="#1e293b" rx="6"/>
    <text x="195" y="24" font-size="10" fill="#94a3b8">SpO2 PROXY (Reflectance)</text>
    <text x="195" y="55" font-size="22" font-weight="bold" fill="#38bdf8">100 <tspan font-size="11" font-weight="normal" fill="#64748b">%</tspan></text>

    <!-- Column 3 -->
    <rect x="360" y="0" width="180" height="75" fill="#0f172a" stroke="#1e293b" rx="6"/>
    <text x="375" y="24" font-size="10" fill="#94a3b8">PERFUSION INDEX (PI)</text>
    <text x="375" y="55" font-size="22" font-weight="bold" fill="#10b981">1.85 <tspan font-size="11" font-weight="normal" fill="#64748b">%</tspan></text>

    <!-- Row 2: SQI Diagnostics -->
    <rect x="0" y="90" width="540" height="85" fill="#0f172a" stroke="#334155" rx="6"/>
    <text x="15" y="112" font-size="11" font-weight="bold" fill="#f8fafc">4-GATE SIGNAL QUALITY INDEX (SQI): <tspan fill="#34d399">100%</tspan></text>
    <text x="15" y="132" font-size="10" fill="#94a3b8">• PI Gate (>=0.15%): <tspan fill="#34d399">PASSED</tspan></text>
    <text x="210" y="132" font-size="10" fill="#94a3b8">• Template Corr (r): <tspan fill="#38bdf8">0.92</tspan></text>
    <text x="390" y="132" font-size="10" fill="#94a3b8">• Skewness (S>0): <tspan fill="#38bdf8">0.02</tspan></text>
    <text x="15" y="156" font-size="10" fill="#94a3b8">• Sternal Contact Force: <tspan font-weight="bold" fill="#34d399">OPTIMAL</tspan></text>
    <text x="320" y="156" font-size="10" fill="#94a3b8">• Asystole State: <tspan font-weight="bold" fill="#34d399">PULSATILE RHYTHM</tspan></text>
  </g>

  <!-- Footer Info -->
  <text x="640" y="730" font-size="11" text-anchor="middle" fill="#64748b">
    Generated automatically by PulseGuard / The Intermediator On-Device DSP Engine • Direct Paramedic Telemetry Relay
  </text>
</svg>
