<svg width="1200" height="960" viewBox="0 0 1200 960" xmlns="http://www.w3.org/2000/svg" style="background:#ffffff; font-family: -apple-system, BlinkMacSystemFont, 'Segoe UI', Roboto, Helvetica, Arial, sans-serif;">

  <!-- ========================================================================= -->
  <!-- SUBPLOT 1: Raw Color Intensity over Time (Skin ROI)                       -->
  <!-- ========================================================================= -->
  <!-- Title -->
  <text x="610" y="42" font-size="14" font-weight="bold" text-anchor="middle" fill="#000000">
    1. Raw Color Intensity over Time (Skin ROI)
  </text>
  <!-- Box -->
  <rect x="120" y="55" width="980" height="140" fill="#ffffff" stroke="#000000" stroke-width="1.2"/>
  <!-- Grid Lines -->
  <line x1="120" y1="164.56521739130434" x2="1100" y2="164.56521739130434" stroke="#f1f5f9" stroke-width="1"/>
  <line x1="120" y1="134.1304347826087" x2="1100" y2="134.1304347826087" stroke="#f1f5f9" stroke-width="1"/>
  <line x1="120" y1="103.69565217391305" x2="1100" y2="103.69565217391305" stroke="#f1f5f9" stroke-width="1"/>
  <line x1="120" y1="73.26086956521739" x2="1100" y2="73.26086956521739" stroke="#f1f5f9" stroke-width="1"/>
  <!-- Y Ticks -->
  <line x1="114" y1="164.56521739130434" x2="120" y2="164.56521739130434" stroke="#000000" stroke-width="1.2"/>
  <text x="110" y="168.56521739130434" font-size="11" text-anchor="end" fill="#000000">50</text>
  <line x1="114" y1="134.1304347826087" x2="120" y2="134.1304347826087" stroke="#000000" stroke-width="1.2"/>
  <text x="110" y="138.1304347826087" font-size="11" text-anchor="end" fill="#000000">100</text>
  <line x1="114" y1="103.69565217391305" x2="120" y2="103.69565217391305" stroke="#000000" stroke-width="1.2"/>
  <text x="110" y="107.69565217391305" font-size="11" text-anchor="end" fill="#000000">150</text>
  <line x1="114" y1="73.26086956521739" x2="120" y2="73.26086956521739" stroke="#000000" stroke-width="1.2"/>
  <text x="110" y="77.26086956521739" font-size="11" text-anchor="end" fill="#000000">200</text>
  <!-- Y Label -->
  <text x="65" y="125" font-size="12" text-anchor="middle" fill="#000000" transform="rotate(-90 65 125)">
    Mean Intensity
  </text>
  <!-- X Ticks -->
  
      <line x1="120" y1="55" x2="120" y2="195" stroke="#f1f5f9" stroke-width="1"/>
      <line x1="120" y1="195" x2="120" y2="201" stroke="#000000" stroke-width="1.2"/>
      <text x="120" y="213" font-size="11" text-anchor="middle" fill="#000000">0</text>
    
      <line x1="283.3333333333333" y1="55" x2="283.3333333333333" y2="195" stroke="#f1f5f9" stroke-width="1"/>
      <line x1="283.3333333333333" y1="195" x2="283.3333333333333" y2="201" stroke="#000000" stroke-width="1.2"/>
      <text x="283.3333333333333" y="213" font-size="11" text-anchor="middle" fill="#000000">5</text>
    
      <line x1="446.66666666666663" y1="55" x2="446.66666666666663" y2="195" stroke="#f1f5f9" stroke-width="1"/>
      <line x1="446.66666666666663" y1="195" x2="446.66666666666663" y2="201" stroke="#000000" stroke-width="1.2"/>
      <text x="446.66666666666663" y="213" font-size="11" text-anchor="middle" fill="#000000">10</text>
    
      <line x1="610" y1="55" x2="610" y2="195" stroke="#f1f5f9" stroke-width="1"/>
      <line x1="610" y1="195" x2="610" y2="201" stroke="#000000" stroke-width="1.2"/>
      <text x="610" y="213" font-size="11" text-anchor="middle" fill="#000000">15</text>
    
      <line x1="773.3333333333333" y1="55" x2="773.3333333333333" y2="195" stroke="#f1f5f9" stroke-width="1"/>
      <line x1="773.3333333333333" y1="195" x2="773.3333333333333" y2="201" stroke="#000000" stroke-width="1.2"/>
      <text x="773.3333333333333" y="213" font-size="11" text-anchor="middle" fill="#000000">20</text>
    
      <line x1="936.6666666666667" y1="55" x2="936.6666666666667" y2="195" stroke="#f1f5f9" stroke-width="1"/>
      <line x1="936.6666666666667" y1="195" x2="936.6666666666667" y2="201" stroke="#000000" stroke-width="1.2"/>
      <text x="936.6666666666667" y="213" font-size="11" text-anchor="middle" fill="#000000">25</text>
    
      <line x1="1100" y1="55" x2="1100" y2="195" stroke="#f1f5f9" stroke-width="1"/>
      <line x1="1100" y1="195" x2="1100" y2="201" stroke="#000000" stroke-width="1.2"/>
      <text x="1100" y="213" font-size="11" text-anchor="middle" fill="#000000">30</text>
    
  <!-- X Label -->
  <text x="610" y="229" font-size="12" text-anchor="middle" fill="#000000">
    Time (seconds)
  </text>
  <!-- Traces -->
  <polyline fill="none" stroke="#e11d48" stroke-width="1.6" points="120.0,57.7 130.1,55.6 140.2,55.6 150.3,55.6 160.4,55.5 170.5,55.5 180.6,55.4 190.7,58.5 200.8,58.9 210.9,57.7 221.0,55.4 231.1,58.9 241.2,55.5 251.3,55.6 261.4,57.7 271.5,55.5 281.6,59.0 291.8,55.5 301.9,58.8 312.0,58.4 322.1,55.4 332.2,57.2 342.3,55.5 352.4,55.4 362.5,55.4 372.6,55.4 382.7,55.5 392.8,55.5 402.9,58.9 413.0,55.6 423.1,55.6 433.2,58.6 443.3,59.0 453.4,57.8 463.5,55.6 473.6,55.6 483.7,59.0 493.8,59.0 503.9,58.3 514.0,56.5 524.1,55.6 534.2,57.7 544.3,55.6 554.4,55.4 564.5,57.7 574.6,56.5 584.7,59.0 594.8,55.6 604.9,55.6 615.1,55.6 625.2,55.4 635.3,55.5 645.4,55.5 655.5,57.7 665.6,58.2 675.7,55.5 685.8,55.6 695.9,57.7 706.0,55.5 716.1,56.3 726.2,56.3 736.3,58.7 746.4,55.7 756.5,55.8 766.6,55.8 776.7,55.8 786.8,57.6 796.9,55.8 807.0,55.8 817.1,59.3 827.2,55.8 837.3,55.9 847.4,55.8 857.5,55.8 867.6,59.5 877.7,55.8 887.8,55.8 897.9,55.7 908.0,55.7 918.1,57.2 928.2,55.7 938.4,55.7 948.5,57.8 958.6,55.8 968.7,56.7 978.8,56.7 988.9,55.7 999.0,58.5 1009.1,55.7 1019.2,55.7 1029.3,55.6 1039.4,55.6 1049.5,55.7 1059.6,55.7 1069.7,55.7 1079.8,55.7 1089.9,57.8 1100.0,57.8 " />
  <polyline fill="none" stroke="#16a34a" stroke-width="1.6" points="120.0,171.2 130.1,170.0 140.2,170.0 150.3,170.0 160.4,170.0 170.5,170.0 180.6,170.0 190.7,171.2 200.8,171.4 210.9,171.1 221.0,170.0 231.1,171.5 241.2,170.1 251.3,170.0 261.4,171.1 271.5,170.0 281.6,171.4 291.8,170.0 301.9,171.4 312.0,171.2 322.1,170.0 332.2,170.9 342.3,170.0 352.4,170.0 362.5,169.9 372.6,170.0 382.7,170.0 392.8,170.0 402.9,171.5 413.0,170.1 423.1,170.1 433.2,171.3 443.3,171.5 453.4,171.2 463.5,170.1 473.6,170.1 483.7,171.5 493.8,171.5 503.9,171.3 514.0,170.5 524.1,170.0 534.2,171.2 544.3,170.1 554.4,170.1 564.5,171.2 574.6,170.5 584.7,171.5 594.8,170.0 604.9,170.1 615.1,170.0 625.2,170.0 635.3,170.0 645.4,170.0 655.5,171.1 665.6,171.1 675.7,170.1 685.8,170.0 695.9,171.1 706.0,170.0 716.1,170.3 726.2,170.3 736.3,171.3 746.4,170.1 756.5,170.1 766.6,170.1 776.7,170.1 786.8,171.0 796.9,170.2 807.0,170.1 817.1,171.6 827.2,170.1 837.3,170.2 847.4,170.1 857.5,170.1 867.6,171.4 877.7,170.1 887.8,170.1 897.9,170.1 908.0,170.1 918.1,170.8 928.2,170.1 938.4,170.1 948.5,170.9 958.6,170.1 968.7,170.6 978.8,170.6 988.9,170.1 999.0,171.2 1009.1,170.1 1019.2,170.1 1029.3,170.1 1039.4,170.1 1049.5,170.1 1059.6,170.1 1069.7,170.1 1079.8,170.1 1089.9,170.9 1100.0,170.9 " />
  <polyline fill="none" stroke="#2563eb" stroke-width="1.6" points="120.0,172.4 130.1,171.2 140.2,170.9 150.3,171.2 160.4,171.3 170.5,171.1 180.6,171.3 190.7,172.2 200.8,172.2 210.9,172.2 221.0,171.1 231.1,172.3 241.2,171.4 251.3,171.2 261.4,172.3 271.5,171.1 281.6,172.2 291.8,171.1 301.9,172.4 312.0,172.4 322.1,171.0 332.2,172.3 342.3,171.0 352.4,171.2 362.5,171.1 372.6,171.1 382.7,171.2 392.8,171.0 402.9,172.4 413.0,171.1 423.1,171.1 433.2,172.5 443.3,172.4 453.4,172.3 463.5,171.2 473.6,171.0 483.7,172.4 493.8,172.2 503.9,172.8 514.0,171.9 524.1,171.1 534.2,172.3 544.3,171.4 554.4,171.4 564.5,172.4 574.6,171.9 584.7,172.1 594.8,171.0 604.9,171.0 615.1,171.2 625.2,171.1 635.3,171.2 645.4,171.1 655.5,172.3 665.6,171.7 675.7,171.1 685.8,171.0 695.9,172.3 706.0,171.0 716.1,171.6 726.2,171.2 736.3,172.5 746.4,171.1 756.5,171.1 766.6,171.1 776.7,171.2 786.8,172.4 796.9,171.2 807.0,171.2 817.1,172.3 827.2,171.2 837.3,171.1 847.4,171.2 857.5,171.3 867.6,172.3 877.7,170.9 887.8,171.1 897.9,171.3 908.0,171.0 918.1,171.7 928.2,171.0 938.4,171.0 948.5,172.2 958.6,171.3 968.7,172.0 978.8,171.7 988.9,171.3 999.0,171.9 1009.1,171.0 1019.2,171.1 1029.3,171.0 1039.4,171.3 1049.5,171.1 1059.6,171.2 1069.7,171.1 1079.8,171.2 1089.9,172.2 1100.0,172.2 " />
  <!-- Legend -->
  <g transform="translate(880, 67)">
    <line x1="0" y1="6" x2="25" y2="6" stroke="#e11d48" stroke-width="2"/>
    <text x="32" y="10" font-size="11" fill="#000000">Red Channel</text>
    <line x1="0" y1="24" x2="25" y2="24" stroke="#16a34a" stroke-width="2"/>
    <text x="32" y="28" font-size="11" fill="#000000">Green Channel (PPG primary)</text>
    <line x1="0" y1="42" x2="25" y2="42" stroke="#2563eb" stroke-width="2"/>
    <text x="32" y="46" font-size="11" fill="#000000">Blue Channel</text>
  </g>

  <!-- ========================================================================= -->
  <!-- SUBPLOT 2: Photoplethysmography (PPG) Pulse Waveform                      -->
  <!-- ========================================================================= -->
  <!-- Title -->
  <text x="610" y="266" font-size="14" font-weight="bold" text-anchor="middle" fill="#000000">
    2. Photoplethysmography (PPG) Pulse Waveform | Est. Heart Rate: 140.6 BPM
  </text>
  <!-- Box -->
  <rect x="120" y="280" width="980" height="140" fill="#ffffff" stroke="#000000" stroke-width="1.2"/>
  <!-- Y Ticks -->
  
      <line x1="120" y1="350.0606822363957" x2="1100" y2="350.0606822363957" stroke="#f1f5f9" stroke-width="1"/>
      <line x1="114" y1="350.0606822363957" x2="120" y2="350.0606822363957" stroke="#000000" stroke-width="1.2"/>
      <text x="110" y="354.0606822363957" font-size="11" text-anchor="end" fill="#000000">0</text>
    
  <!-- Y Label -->
  <text x="65" y="350" font-size="12" text-anchor="middle" fill="#000000" transform="rotate(-90 65 350)">
    Normalized Amplitude
  </text>
  <!-- X Ticks -->
  
      <line x1="120" y1="280" x2="120" y2="420" stroke="#f1f5f9" stroke-width="1"/>
      <line x1="120" y1="420" x2="120" y2="426" stroke="#000000" stroke-width="1.2"/>
      <text x="120" y="438" font-size="11" text-anchor="middle" fill="#000000">0</text>
    
      <line x1="283.3333333333333" y1="280" x2="283.3333333333333" y2="420" stroke="#f1f5f9" stroke-width="1"/>
      <line x1="283.3333333333333" y1="420" x2="283.3333333333333" y2="426" stroke="#000000" stroke-width="1.2"/>
      <text x="283.3333333333333" y="438" font-size="11" text-anchor="middle" fill="#000000">10</text>
    
      <line x1="446.66666666666663" y1="280" x2="446.66666666666663" y2="420" stroke="#f1f5f9" stroke-width="1"/>
      <line x1="446.66666666666663" y1="420" x2="446.66666666666663" y2="426" stroke="#000000" stroke-width="1.2"/>
      <text x="446.66666666666663" y="438" font-size="11" text-anchor="middle" fill="#000000">20</text>
    
      <line x1="610" y1="280" x2="610" y2="420" stroke="#f1f5f9" stroke-width="1"/>
      <line x1="610" y1="420" x2="610" y2="426" stroke="#000000" stroke-width="1.2"/>
      <text x="610" y="438" font-size="11" text-anchor="middle" fill="#000000">30</text>
    
      <line x1="773.3333333333333" y1="280" x2="773.3333333333333" y2="420" stroke="#f1f5f9" stroke-width="1"/>
      <line x1="773.3333333333333" y1="420" x2="773.3333333333333" y2="426" stroke="#000000" stroke-width="1.2"/>
      <text x="773.3333333333333" y="438" font-size="11" text-anchor="middle" fill="#000000">40</text>
    
      <line x1="936.6666666666667" y1="280" x2="936.6666666666667" y2="420" stroke="#f1f5f9" stroke-width="1"/>
      <line x1="936.6666666666667" y1="420" x2="936.6666666666667" y2="426" stroke="#000000" stroke-width="1.2"/>
      <text x="936.6666666666667" y="438" font-size="11" text-anchor="middle" fill="#000000">50</text>
    
      <line x1="1100" y1="280" x2="1100" y2="420" stroke="#f1f5f9" stroke-width="1"/>
      <line x1="1100" y1="420" x2="1100" y2="426" stroke="#000000" stroke-width="1.2"/>
      <text x="1100" y="438" font-size="11" text-anchor="middle" fill="#000000">60</text>
    
  <!-- X Label -->
  <text x="610" y="454" font-size="12" text-anchor="middle" fill="#000000">
    Time (seconds)
  </text>
  <!-- Traces -->
  <polyline fill="none" stroke="#0284c7" stroke-width="1.8" points="120.0,350.1 130.1,350.2 140.2,350.2 150.3,350.0 160.4,349.6 170.5,349.3 180.6,349.1 190.7,349.3 200.8,350.0 210.9,351.2 221.0,352.3 231.1,352.9 241.2,352.7 251.3,351.7 261.4,349.9 271.5,348.0 281.6,346.4 291.8,345.6 301.9,345.8 312.0,347.2 322.1,349.3 332.2,351.6 342.3,353.6 352.4,354.7 362.5,354.7 372.6,353.5 382.7,351.7 392.8,349.5 402.9,347.7 413.0,346.8 423.1,346.7 433.2,347.3 443.3,348.7 453.4,350.5 463.5,352.1 473.6,352.8 483.7,352.6 493.8,351.7 503.9,350.6 514.0,349.3 524.1,348.1 534.2,347.2 544.3,346.9 554.4,347.2 564.5,348.3 574.6,350.0 584.7,352.0 594.8,353.8 604.9,354.8 615.1,354.5 625.2,353.2 635.3,351.0 645.4,348.4 655.5,346.3 665.6,345.2 675.7,345.4 685.8,346.6 695.9,348.5 706.0,350.7 716.1,352.7 726.2,354.0 736.3,354.5 746.4,354.1 756.5,352.8 766.6,350.8 776.7,348.6 786.8,346.7 796.9,345.7 807.0,345.7 817.1,346.7 827.2,348.5 837.3,350.7 847.4,352.5 857.5,353.7 867.6,354.0 877.7,353.6 887.8,352.4 897.9,350.7 908.0,348.8 918.1,347.2 928.2,346.3 938.4,346.3 948.5,347.2 958.6,348.7 968.7,350.6 978.8,352.3 988.9,353.5 999.0,353.9 1009.1,353.5 1019.2,352.3 1029.3,350.4 1039.4,348.4 1049.5,346.6 1059.6,345.6 1069.7,345.6 1079.8,346.7 1089.9,348.6 1100.0,351.0 " />
  <circle cx="180.6" cy="349.1" r="4" fill="#e11d48" stroke="#ffffff" stroke-width="1.2"/><circle cx="291.8" cy="345.6" r="4" fill="#e11d48" stroke="#ffffff" stroke-width="1.2"/><circle cx="423.1" cy="346.7" r="4" fill="#e11d48" stroke="#ffffff" stroke-width="1.2"/><circle cx="544.3" cy="346.9" r="4" fill="#e11d48" stroke="#ffffff" stroke-width="1.2"/><circle cx="665.6" cy="345.2" r="4" fill="#e11d48" stroke="#ffffff" stroke-width="1.2"/><circle cx="807.0" cy="345.7" r="4" fill="#e11d48" stroke="#ffffff" stroke-width="1.2"/><circle cx="928.2" cy="346.3" r="4" fill="#e11d48" stroke="#ffffff" stroke-width="1.2"/><circle cx="1069.7" cy="345.6" r="4" fill="#e11d48" stroke="#ffffff" stroke-width="1.2"/>
  <!-- Legend -->
  <g transform="translate(825, 292)">
    <line x1="0" y1="6" x2="25" y2="6" stroke="#0284c7" stroke-width="2"/>
    <text x="32" y="10" font-size="11" fill="#000000">Filtered rPPG Waveform (0.75 - 3.5 Hz)</text>
    <circle cx="12" cy="24" r="4" fill="#e11d48"/>
    <text x="32" y="28" font-size="11" fill="#000000">Detected Systolic Peaks (N=8)</text>
  </g>

  <!-- ========================================================================= -->
  <!-- SUBPLOT 3: Frequency Spectrum & Heart Rate Peak                           -->
  <!-- ========================================================================= -->
  <!-- Title -->
  <text x="610" y="491" font-size="14" font-weight="bold" text-anchor="middle" fill="#000000">
    3. Frequency Spectrum &amp; Heart Rate Peak
  </text>
  <!-- Box -->
  <rect x="120" y="505" width="980" height="140" fill="#ffffff" stroke="#000000" stroke-width="1.2"/>
  <!-- Y Ticks -->
  
      <line x1="120" y1="645" x2="1100" y2="645" stroke="#f1f5f9" stroke-width="1"/>
      <line x1="114" y1="645" x2="120" y2="645" stroke="#000000" stroke-width="1.2"/>
      <text x="110" y="649" font-size="11" text-anchor="end" fill="#000000">0.0</text>
    
      <line x1="120" y1="-2696121.303631327" x2="1100" y2="-2696121.303631327" stroke="#f1f5f9" stroke-width="1"/>
      <line x1="114" y1="-2696121.303631327" x2="120" y2="-2696121.303631327" stroke="#000000" stroke-width="1.2"/>
      <text x="110" y="-2696117.303631327" font-size="11" text-anchor="end" fill="#000000">0.2</text>
    
      <line x1="120" y1="-5392887.607262654" x2="1100" y2="-5392887.607262654" stroke="#f1f5f9" stroke-width="1"/>
      <line x1="114" y1="-5392887.607262654" x2="120" y2="-5392887.607262654" stroke="#000000" stroke-width="1.2"/>
      <text x="110" y="-5392883.607262654" font-size="11" text-anchor="end" fill="#000000">0.4</text>
    
      <line x1="120" y1="-8089653.910893981" x2="1100" y2="-8089653.910893981" stroke="#f1f5f9" stroke-width="1"/>
      <line x1="114" y1="-8089653.910893981" x2="120" y2="-8089653.910893981" stroke="#000000" stroke-width="1.2"/>
      <text x="110" y="-8089649.910893981" font-size="11" text-anchor="end" fill="#000000">0.6</text>
    
  <!-- Y Label -->
  <text x="65" y="575" font-size="12" text-anchor="middle" fill="#000000" transform="rotate(-90 65 575)">
    Power Spectral Density
  </text>
  <!-- X Ticks (BPM) -->
  
      <line x1="172.97297297297297" y1="505" x2="172.97297297297297" y2="645" stroke="#f1f5f9" stroke-width="1"/>
      <line x1="172.97297297297297" y1="645" x2="172.97297297297297" y2="651" stroke="#000000" stroke-width="1.2"/>
      <text x="172.97297297297297" y="663" font-size="11" text-anchor="middle" fill="#000000">50</text>
    
      <line x1="305.4054054054054" y1="505" x2="305.4054054054054" y2="645" stroke="#f1f5f9" stroke-width="1"/>
      <line x1="305.4054054054054" y1="645" x2="305.4054054054054" y2="651" stroke="#000000" stroke-width="1.2"/>
      <text x="305.4054054054054" y="663" font-size="11" text-anchor="middle" fill="#000000">75</text>
    
      <line x1="437.83783783783787" y1="505" x2="437.83783783783787" y2="645" stroke="#f1f5f9" stroke-width="1"/>
      <line x1="437.83783783783787" y1="645" x2="437.83783783783787" y2="651" stroke="#000000" stroke-width="1.2"/>
      <text x="437.83783783783787" y="663" font-size="11" text-anchor="middle" fill="#000000">100</text>
    
      <line x1="570.2702702702703" y1="505" x2="570.2702702702703" y2="645" stroke="#f1f5f9" stroke-width="1"/>
      <line x1="570.2702702702703" y1="645" x2="570.2702702702703" y2="651" stroke="#000000" stroke-width="1.2"/>
      <text x="570.2702702702703" y="663" font-size="11" text-anchor="middle" fill="#000000">125</text>
    
      <line x1="702.7027027027027" y1="505" x2="702.7027027027027" y2="645" stroke="#f1f5f9" stroke-width="1"/>
      <line x1="702.7027027027027" y1="645" x2="702.7027027027027" y2="651" stroke="#000000" stroke-width="1.2"/>
      <text x="702.7027027027027" y="663" font-size="11" text-anchor="middle" fill="#000000">150</text>
    
      <line x1="835.1351351351351" y1="505" x2="835.1351351351351" y2="645" stroke="#f1f5f9" stroke-width="1"/>
      <line x1="835.1351351351351" y1="645" x2="835.1351351351351" y2="651" stroke="#000000" stroke-width="1.2"/>
      <text x="835.1351351351351" y="663" font-size="11" text-anchor="middle" fill="#000000">175</text>
    
      <line x1="967.5675675675676" y1="505" x2="967.5675675675676" y2="645" stroke="#f1f5f9" stroke-width="1"/>
      <line x1="967.5675675675676" y1="645" x2="967.5675675675676" y2="651" stroke="#000000" stroke-width="1.2"/>
      <text x="967.5675675675676" y="663" font-size="11" text-anchor="middle" fill="#000000">200</text>
    
      <line x1="1100" y1="505" x2="1100" y2="645" stroke="#f1f5f9" stroke-width="1"/>
      <line x1="1100" y1="645" x2="1100" y2="651" stroke="#000000" stroke-width="1.2"/>
      <text x="1100" y="663" font-size="11" text-anchor="middle" fill="#000000">225</text>
    
  <!-- X Label -->
  <text x="610" y="679" font-size="12" text-anchor="middle" fill="#000000">
    Heart Rate (BPM)
  </text>
  <!-- Traces -->
  <polyline fill="none" stroke="#9333ea" stroke-width="2.2" points="131.6,645.0 150.2,644.9 168.8,644.9 187.5,644.9 206.1,644.8 224.7,644.7 243.3,644.6 262.0,644.5 280.6,644.3 299.2,644.1 317.8,643.8 336.4,643.6 355.1,643.4 373.7,643.1 392.3,642.7 410.9,642.2 429.6,641.5 448.2,641.0 466.8,640.6 485.4,640.1 504.1,638.8 522.7,635.2 541.3,627.5 559.9,614.7 578.5,596.4 597.2,574.4 615.8,552.1 634.4,533.7 653.0,523.3 671.7,523.3 690.3,533.8 708.9,552.3 727.5,574.9 746.2,597.3 764.8,616.2 783.4,630.0 802.0,638.5 820.7,642.8 839.3,644.6 857.9,645.0 876.5,644.9 895.1,644.7 913.8,644.6 932.4,644.5 951.0,644.4 969.6,644.3 988.3,644.2 1006.9,644.3 1025.5,644.3 1044.1,644.4 1062.8,644.5 1081.4,644.6 1100.0,644.6 " />
  <line x1="652.9081081081081" y1="645" x2="652.9081081081081" y2="523.2608695652174" stroke="#e11d48" stroke-width="2" stroke-dasharray="5,4"/>
  <!-- Legend -->
  <g transform="translate(865, 517)">
    <line x1="0" y1="6" x2="25" y2="6" stroke="#9333ea" stroke-width="2"/>
    <text x="32" y="10" font-size="11" fill="#000000">PSD (Welch)</text>
    <line x1="0" y1="24" x2="25" y2="24" stroke="#e11d48" stroke-width="2" stroke-dasharray="5,4"/>
    <text x="32" y="28" font-size="11" fill="#000000">Dominant Peak (140.6 BPM)</text>
  </g>

  <!-- ========================================================================= -->
  <!-- SUBPLOT 4: Heart Rate Variations | HRV (SDNN)                             -->
  <!-- ========================================================================= -->
  <!-- Title -->
  <text x="610" y="716" font-size="14" font-weight="bold" text-anchor="middle" fill="#000000">
    4. Heart Rate Variations | HRV (SDNN): 38.7 ms
  </text>
  <!-- Box -->
  <rect x="120" y="730" width="980" height="140" fill="#ffffff" stroke="#000000" stroke-width="1.2"/>
  <!-- Y Ticks -->
  
      <line x1="120" y1="832.6666666666666" x2="1100" y2="832.6666666666666" stroke="#f1f5f9" stroke-width="1"/>
      <line x1="114" y1="832.6666666666666" x2="120" y2="832.6666666666666" stroke="#000000" stroke-width="1.2"/>
      <text x="110" y="836.6666666666666" font-size="11" text-anchor="end" fill="#000000">100</text>
    
      <line x1="120" y1="786" x2="1100" y2="786" stroke="#f1f5f9" stroke-width="1"/>
      <line x1="114" y1="786" x2="120" y2="786" stroke="#000000" stroke-width="1.2"/>
      <text x="110" y="790" font-size="11" text-anchor="end" fill="#000000">150</text>
    
      <line x1="120" y1="739.3333333333334" x2="1100" y2="739.3333333333334" stroke="#f1f5f9" stroke-width="1"/>
      <line x1="114" y1="739.3333333333334" x2="120" y2="739.3333333333334" stroke="#000000" stroke-width="1.2"/>
      <text x="110" y="743.3333333333334" font-size="11" text-anchor="end" fill="#000000">200</text>
    
  <!-- Y Label -->
  <text x="65" y="800" font-size="12" text-anchor="middle" fill="#000000" transform="rotate(-90 65 800)">
    Heart Rate (BPM)
  </text>
  <!-- X Ticks -->
  
      <line x1="120" y1="730" x2="120" y2="870" stroke="#f1f5f9" stroke-width="1"/>
      <line x1="120" y1="870" x2="120" y2="876" stroke="#000000" stroke-width="1.2"/>
      <text x="120" y="888" font-size="11" text-anchor="middle" fill="#000000">0</text>
    
      <line x1="316" y1="730" x2="316" y2="870" stroke="#f1f5f9" stroke-width="1"/>
      <line x1="316" y1="870" x2="316" y2="876" stroke="#000000" stroke-width="1.2"/>
      <text x="316" y="888" font-size="11" text-anchor="middle" fill="#000000">10</text>
    
      <line x1="512" y1="730" x2="512" y2="870" stroke="#f1f5f9" stroke-width="1"/>
      <line x1="512" y1="870" x2="512" y2="876" stroke="#000000" stroke-width="1.2"/>
      <text x="512" y="888" font-size="11" text-anchor="middle" fill="#000000">20</text>
    
      <line x1="708" y1="730" x2="708" y2="870" stroke="#f1f5f9" stroke-width="1"/>
      <line x1="708" y1="870" x2="708" y2="876" stroke="#000000" stroke-width="1.2"/>
      <text x="708" y="888" font-size="11" text-anchor="middle" fill="#000000">30</text>
    
      <line x1="904" y1="730" x2="904" y2="870" stroke="#f1f5f9" stroke-width="1"/>
      <line x1="904" y1="870" x2="904" y2="876" stroke="#000000" stroke-width="1.2"/>
      <text x="904" y="888" font-size="11" text-anchor="middle" fill="#000000">40</text>
    
      <line x1="1100" y1="730" x2="1100" y2="870" stroke="#f1f5f9" stroke-width="1"/>
      <line x1="1100" y1="870" x2="1100" y2="876" stroke="#000000" stroke-width="1.2"/>
      <text x="1100" y="888" font-size="11" text-anchor="middle" fill="#000000">50</text>
    
  <!-- X Label -->
  <text x="610" y="904" font-size="12" text-anchor="middle" fill="#000000">
    Time (seconds)
  </text>
  <!-- Traces -->
  <polyline fill="none" stroke="#e11d48" stroke-width="1.8" points="152.7,758.0 195.1,796.8 231.1,773.3 273.5,796.8 316.0,796.8 358.5,796.8 400.9,796.8 " />
  <circle cx="152.7" cy="758.0" r="3.5" fill="#e11d48"/><circle cx="195.1" cy="796.8" r="3.5" fill="#e11d48"/><circle cx="231.1" cy="773.3" r="3.5" fill="#e11d48"/><circle cx="273.5" cy="796.8" r="3.5" fill="#e11d48"/><circle cx="316.0" cy="796.8" r="3.5" fill="#e11d48"/><circle cx="358.5" cy="796.8" r="3.5" fill="#e11d48"/><circle cx="400.9" cy="796.8" r="3.5" fill="#e11d48"/>
  <line x1="120" y1="796.7333333333333" x2="1100" y2="796.7333333333333" stroke="#000000" stroke-width="1.8" stroke-dasharray="2,3"/>
  <!-- Legend -->
  <g transform="translate(865, 742)">
    <line x1="0" y1="6" x2="25" y2="6" stroke="#e11d48" stroke-width="2"/>
    <circle cx="12" cy="6" r="3.5" fill="#e11d48"/>
    <text x="32" y="10" font-size="11" fill="#000000">Instantaneous BPM</text>
    <line x1="0" y1="24" x2="25" y2="24" stroke="#000000" stroke-width="2" stroke-dasharray="2,3"/>
    <text x="32" y="28" font-size="11" fill="#000000">Median BPM (138.5 BPM)</text>
  </g>
</svg>