<svg width="1200" height="960" viewBox="0 0 1200 960" xmlns="http://www.w3.org/2000/svg" style="background:#ffffff; font-family: -apple-system, BlinkMacSystemFont, 'Segoe UI', Roboto, Helvetica, Arial, sans-serif;">

  <!-- ========================================================================= -->
  <!-- SUBPLOT 1: Raw Color Intensity over Time (Skin ROI)                       -->
  <!-- ========================================================================= -->
  <!-- Title -->
  <text x="610" y="42" font-size="14" font-weight="bold" text-anchor="middle" fill="#000000">
    1. Raw Color Intensity over Time (Skin ROI)
  </text>
  <!-- Box -->
  <rect x="120" y="55" width="980" height="140" fill="#ffffff" stroke="#000000" stroke-width="1.2"/>
  <!-- Grid Lines -->
  <line x1="120" y1="164.56521739130434" x2="1100" y2="164.56521739130434" stroke="#f1f5f9" stroke-width="1"/>
  <line x1="120" y1="134.1304347826087" x2="1100" y2="134.1304347826087" stroke="#f1f5f9" stroke-width="1"/>
  <line x1="120" y1="103.69565217391305" x2="1100" y2="103.69565217391305" stroke="#f1f5f9" stroke-width="1"/>
  <line x1="120" y1="73.26086956521739" x2="1100" y2="73.26086956521739" stroke="#f1f5f9" stroke-width="1"/>
  <!-- Y Ticks -->
  <line x1="114" y1="164.56521739130434" x2="120" y2="164.56521739130434" stroke="#000000" stroke-width="1.2"/>
  <text x="110" y="168.56521739130434" font-size="11" text-anchor="end" fill="#000000">50</text>
  <line x1="114" y1="134.1304347826087" x2="120" y2="134.1304347826087" stroke="#000000" stroke-width="1.2"/>
  <text x="110" y="138.1304347826087" font-size="11" text-anchor="end" fill="#000000">100</text>
  <line x1="114" y1="103.69565217391305" x2="120" y2="103.69565217391305" stroke="#000000" stroke-width="1.2"/>
  <text x="110" y="107.69565217391305" font-size="11" text-anchor="end" fill="#000000">150</text>
  <line x1="114" y1="73.26086956521739" x2="120" y2="73.26086956521739" stroke="#000000" stroke-width="1.2"/>
  <text x="110" y="77.26086956521739" font-size="11" text-anchor="end" fill="#000000">200</text>
  <!-- Y Label -->
  <text x="65" y="125" font-size="12" text-anchor="middle" fill="#000000" transform="rotate(-90 65 125)">
    Mean Intensity
  </text>
  <!-- X Ticks -->
  
      <line x1="120" y1="55" x2="120" y2="195" stroke="#f1f5f9" stroke-width="1"/>
      <line x1="120" y1="195" x2="120" y2="201" stroke="#000000" stroke-width="1.2"/>
      <text x="120" y="213" font-size="11" text-anchor="middle" fill="#000000">0</text>
    
      <line x1="283.3333333333333" y1="55" x2="283.3333333333333" y2="195" stroke="#f1f5f9" stroke-width="1"/>
      <line x1="283.3333333333333" y1="195" x2="283.3333333333333" y2="201" stroke="#000000" stroke-width="1.2"/>
      <text x="283.3333333333333" y="213" font-size="11" text-anchor="middle" fill="#000000">5</text>
    
      <line x1="446.66666666666663" y1="55" x2="446.66666666666663" y2="195" stroke="#f1f5f9" stroke-width="1"/>
      <line x1="446.66666666666663" y1="195" x2="446.66666666666663" y2="201" stroke="#000000" stroke-width="1.2"/>
      <text x="446.66666666666663" y="213" font-size="11" text-anchor="middle" fill="#000000">10</text>
    
      <line x1="610" y1="55" x2="610" y2="195" stroke="#f1f5f9" stroke-width="1"/>
      <line x1="610" y1="195" x2="610" y2="201" stroke="#000000" stroke-width="1.2"/>
      <text x="610" y="213" font-size="11" text-anchor="middle" fill="#000000">15</text>
    
      <line x1="773.3333333333333" y1="55" x2="773.3333333333333" y2="195" stroke="#f1f5f9" stroke-width="1"/>
      <line x1="773.3333333333333" y1="195" x2="773.3333333333333" y2="201" stroke="#000000" stroke-width="1.2"/>
      <text x="773.3333333333333" y="213" font-size="11" text-anchor="middle" fill="#000000">20</text>
    
      <line x1="936.6666666666667" y1="55" x2="936.6666666666667" y2="195" stroke="#f1f5f9" stroke-width="1"/>
      <line x1="936.6666666666667" y1="195" x2="936.6666666666667" y2="201" stroke="#000000" stroke-width="1.2"/>
      <text x="936.6666666666667" y="213" font-size="11" text-anchor="middle" fill="#000000">25</text>
    
      <line x1="1100" y1="55" x2="1100" y2="195" stroke="#f1f5f9" stroke-width="1"/>
      <line x1="1100" y1="195" x2="1100" y2="201" stroke="#000000" stroke-width="1.2"/>
      <text x="1100" y="213" font-size="11" text-anchor="middle" fill="#000000">30</text>
    
  <!-- X Label -->
  <text x="610" y="229" font-size="12" text-anchor="middle" fill="#000000">
    Time (seconds)
  </text>
  <!-- Traces -->
  <polyline fill="none" stroke="#e11d48" stroke-width="1.6" points="120.0,103.8 130.2,104.7 140.4,105.7 150.6,106.9 160.8,105.6 171.0,107.9 181.3,107.9 191.5,107.0 201.7,107.0 211.9,108.0 222.1,107.0 232.3,107.0 242.5,107.0 252.7,107.0 262.9,104.8 273.1,104.8 283.3,104.8 293.5,104.8 303.8,104.8 314.0,104.1 324.2,104.9 334.4,104.8 344.6,105.7 354.8,105.7 365.0,105.8 375.2,105.8 385.4,105.8 395.6,105.0 405.8,102.9 416.0,105.8 426.3,103.6 436.5,105.0 446.7,105.9 456.9,105.9 467.1,105.9 477.3,105.9 487.5,105.9 497.7,105.9 507.9,106.4 518.1,105.7 528.3,105.7 538.5,105.8 548.8,105.8 559.0,105.8 569.2,105.8 579.4,105.9 589.6,104.9 599.8,104.9 610.0,104.9 620.2,104.9 630.4,104.9 640.6,104.9 650.8,104.9 661.0,104.9 671.3,106.0 681.5,106.5 691.7,106.5 701.9,106.5 712.1,104.5 722.3,104.5 732.5,104.5 742.7,104.5 752.9,105.9 763.1,105.9 773.3,105.0 783.5,105.0 793.8,105.0 804.0,105.9 814.2,105.9 824.4,105.9 834.6,108.1 844.8,108.1 855.0,108.1 865.2,108.8 875.4,108.8 885.6,106.6 895.8,106.6 906.0,106.6 916.3,108.9 926.5,108.9 936.7,104.9 946.9,104.9 957.1,109.0 967.3,109.0 977.5,109.0 987.7,109.0 997.9,106.8 1008.1,106.8 1018.3,106.8 1028.5,106.7 1038.8,106.7 1049.0,106.7 1059.2,104.5 1069.4,104.5 1079.6,104.5 1089.8,107.0 1100.0,107.0 " />
  <polyline fill="none" stroke="#16a34a" stroke-width="1.6" points="120.0,183.1 130.2,183.3 140.4,183.5 150.6,183.7 160.8,183.5 171.0,184.0 181.3,184.0 191.5,183.7 201.7,183.7 211.9,183.9 222.1,183.7 232.3,183.7 242.5,183.7 252.7,183.7 262.9,183.3 273.1,183.3 283.3,183.3 293.5,183.3 303.8,183.3 314.0,183.1 324.2,183.3 334.4,183.3 344.6,183.5 354.8,183.5 365.0,183.5 375.2,183.5 385.4,183.5 395.6,183.3 405.8,182.9 416.0,183.5 426.3,183.0 436.5,183.3 446.7,183.5 456.9,183.5 467.1,183.5 477.3,183.5 487.5,183.5 497.7,183.5 507.9,183.6 518.1,183.5 528.3,183.5 538.5,183.5 548.8,183.5 559.0,183.5 569.2,183.5 579.4,183.5 589.6,183.3 599.8,183.3 610.0,183.2 620.2,183.2 630.4,183.3 640.6,183.3 650.8,183.2 661.0,183.2 671.3,183.4 681.5,183.5 691.7,183.5 701.9,183.5 712.1,183.2 722.3,183.2 732.5,183.2 742.7,183.2 752.9,183.4 763.1,183.4 773.3,183.2 783.5,183.2 793.8,183.2 804.0,183.4 814.2,183.4 824.4,183.4 834.6,183.8 844.8,183.8 855.0,183.8 865.2,183.9 875.4,183.9 885.6,183.5 895.8,183.5 906.0,183.5 916.3,183.9 926.5,183.9 936.7,183.1 946.9,183.1 957.1,184.0 967.3,184.0 977.5,184.0 987.7,184.0 997.9,183.5 1008.1,183.5 1018.3,183.5 1028.5,183.5 1038.8,183.5 1049.0,183.5 1059.2,183.1 1069.4,183.1 1079.6,183.1 1089.8,183.6 1100.0,183.6 " />
  <polyline fill="none" stroke="#2563eb" stroke-width="1.6" points="120.0,179.5 130.2,179.9 140.4,180.2 150.6,180.7 160.8,180.2 171.0,181.0 181.3,181.0 191.5,180.6 201.7,180.6 211.9,181.0 222.1,180.7 232.3,180.7 242.5,180.7 252.7,180.7 262.9,179.8 273.1,179.8 283.3,179.8 293.5,179.8 303.8,179.8 314.0,179.5 324.2,179.7 334.4,179.7 344.6,180.1 354.8,180.1 365.0,180.1 375.2,180.1 385.4,180.2 395.6,179.9 405.8,179.2 416.0,180.2 426.3,179.5 436.5,179.9 446.7,180.2 456.9,180.2 467.1,180.2 477.3,180.2 487.5,180.1 497.7,180.2 507.9,180.4 518.1,180.2 528.3,180.2 538.5,180.2 548.8,180.2 559.0,180.1 569.2,180.1 579.4,180.1 589.6,179.7 599.8,179.7 610.0,179.8 620.2,179.8 630.4,179.7 640.6,179.7 650.8,179.7 661.0,179.7 671.3,180.1 681.5,180.4 691.7,180.4 701.9,180.4 712.1,179.7 722.3,179.7 732.5,179.7 742.7,179.7 752.9,180.1 763.1,180.1 773.3,179.7 783.5,179.7 793.8,179.7 804.0,180.1 814.2,180.1 824.4,180.1 834.6,181.0 844.8,181.0 855.0,181.0 865.2,181.2 875.4,181.2 885.6,180.4 895.8,180.4 906.0,180.4 916.3,181.2 926.5,181.2 936.7,179.8 946.9,179.8 957.1,181.2 967.3,181.2 977.5,181.2 987.7,181.2 997.9,180.5 1008.1,180.5 1018.3,180.5 1028.5,180.4 1038.8,180.4 1049.0,180.4 1059.2,179.7 1069.4,179.7 1079.6,179.7 1089.8,180.5 1100.0,180.5 " />
  <!-- Legend -->
  <g transform="translate(880, 67)">
    <line x1="0" y1="6" x2="25" y2="6" stroke="#e11d48" stroke-width="2"/>
    <text x="32" y="10" font-size="11" fill="#000000">Red Channel</text>
    <line x1="0" y1="24" x2="25" y2="24" stroke="#16a34a" stroke-width="2"/>
    <text x="32" y="28" font-size="11" fill="#000000">Green Channel (PPG primary)</text>
    <line x1="0" y1="42" x2="25" y2="42" stroke="#2563eb" stroke-width="2"/>
    <text x="32" y="46" font-size="11" fill="#000000">Blue Channel</text>
  </g>

  <!-- ========================================================================= -->
  <!-- SUBPLOT 2: Photoplethysmography (PPG) Pulse Waveform                      -->
  <!-- ========================================================================= -->
  <!-- Title -->
  <text x="610" y="266" font-size="14" font-weight="bold" text-anchor="middle" fill="#000000">
    2. Photoplethysmography (PPG) Pulse Waveform | Est. Heart Rate: 112.5 BPM
  </text>
  <!-- Box -->
  <rect x="120" y="280" width="980" height="140" fill="#ffffff" stroke="#000000" stroke-width="1.2"/>
  <!-- Y Ticks -->
  
      <line x1="120" y1="347.465367496976" x2="1100" y2="347.465367496976" stroke="#f1f5f9" stroke-width="1"/>
      <line x1="114" y1="347.465367496976" x2="120" y2="347.465367496976" stroke="#000000" stroke-width="1.2"/>
      <text x="110" y="351.465367496976" font-size="11" text-anchor="end" fill="#000000">0</text>
    
  <!-- Y Label -->
  <text x="65" y="350" font-size="12" text-anchor="middle" fill="#000000" transform="rotate(-90 65 350)">
    Normalized Amplitude
  </text>
  <!-- X Ticks -->
  
      <line x1="120" y1="280" x2="120" y2="420" stroke="#f1f5f9" stroke-width="1"/>
      <line x1="120" y1="420" x2="120" y2="426" stroke="#000000" stroke-width="1.2"/>
      <text x="120" y="438" font-size="11" text-anchor="middle" fill="#000000">0</text>
    
      <line x1="283.3333333333333" y1="280" x2="283.3333333333333" y2="420" stroke="#f1f5f9" stroke-width="1"/>
      <line x1="283.3333333333333" y1="420" x2="283.3333333333333" y2="426" stroke="#000000" stroke-width="1.2"/>
      <text x="283.3333333333333" y="438" font-size="11" text-anchor="middle" fill="#000000">10</text>
    
      <line x1="446.66666666666663" y1="280" x2="446.66666666666663" y2="420" stroke="#f1f5f9" stroke-width="1"/>
      <line x1="446.66666666666663" y1="420" x2="446.66666666666663" y2="426" stroke="#000000" stroke-width="1.2"/>
      <text x="446.66666666666663" y="438" font-size="11" text-anchor="middle" fill="#000000">20</text>
    
      <line x1="610" y1="280" x2="610" y2="420" stroke="#f1f5f9" stroke-width="1"/>
      <line x1="610" y1="420" x2="610" y2="426" stroke="#000000" stroke-width="1.2"/>
      <text x="610" y="438" font-size="11" text-anchor="middle" fill="#000000">30</text>
    
      <line x1="773.3333333333333" y1="280" x2="773.3333333333333" y2="420" stroke="#f1f5f9" stroke-width="1"/>
      <line x1="773.3333333333333" y1="420" x2="773.3333333333333" y2="426" stroke="#000000" stroke-width="1.2"/>
      <text x="773.3333333333333" y="438" font-size="11" text-anchor="middle" fill="#000000">40</text>
    
      <line x1="936.6666666666667" y1="280" x2="936.6666666666667" y2="420" stroke="#f1f5f9" stroke-width="1"/>
      <line x1="936.6666666666667" y1="420" x2="936.6666666666667" y2="426" stroke="#000000" stroke-width="1.2"/>
      <text x="936.6666666666667" y="438" font-size="11" text-anchor="middle" fill="#000000">50</text>
    
      <line x1="1100" y1="280" x2="1100" y2="420" stroke="#f1f5f9" stroke-width="1"/>
      <line x1="1100" y1="420" x2="1100" y2="426" stroke="#000000" stroke-width="1.2"/>
      <text x="1100" y="438" font-size="11" text-anchor="middle" fill="#000000">60</text>
    
  <!-- X Label -->
  <text x="610" y="454" font-size="12" text-anchor="middle" fill="#000000">
    Time (seconds)
  </text>
  <!-- Traces -->
  <polyline fill="none" stroke="#0284c7" stroke-width="1.8" points="120.0,319.6 130.2,324.8 140.4,337.3 150.6,352.9 160.8,367.5 171.0,378.3 181.3,383.5 191.5,384.3 201.7,383.2 211.9,381.4 222.1,378.3 232.3,372.7 242.5,363.8 252.7,351.4 262.9,337.6 273.1,325.9 283.3,318.7 293.5,315.7 303.8,316.0 314.0,319.8 324.2,327.5 334.4,338.3 344.6,349.6 354.8,358.0 365.0,361.3 375.2,358.5 385.4,350.1 395.6,339.2 405.8,330.1 416.0,326.1 426.3,328.0 436.5,334.5 446.7,342.9 456.9,350.4 467.1,355.5 477.3,358.5 487.5,360.5 497.7,362.0 507.9,362.9 518.1,363.3 528.3,363.3 538.5,363.2 548.8,362.6 559.0,360.7 569.2,356.9 579.4,350.8 589.6,343.7 599.8,337.5 610.0,333.5 620.2,332.0 630.4,332.6 640.6,335.4 650.8,340.7 661.0,348.6 671.3,357.3 681.5,363.1 691.7,362.4 701.9,354.5 712.1,343.0 722.3,333.2 732.5,328.4 742.7,328.2 752.9,329.4 763.1,328.4 773.3,325.2 783.5,322.4 793.8,323.4 804.0,329.2 814.2,339.6 824.4,353.3 834.6,367.7 844.8,378.5 855.0,382.6 865.2,378.7 875.4,368.2 885.6,355.5 895.8,346.5 906.0,342.9 916.3,341.2 926.5,337.6 936.7,335.4 946.9,341.7 957.1,356.5 967.3,371.5 977.5,378.6 987.7,375.5 997.9,366.2 1008.1,356.4 1018.3,349.3 1028.5,344.2 1038.8,338.8 1049.0,332.2 1059.2,326.8 1069.4,326.7 1079.6,333.0 1089.8,341.3 1100.0,346.3 " />
  <circle cx="293.5" cy="315.7" r="4" fill="#e11d48" stroke="#ffffff" stroke-width="1.2"/><circle cx="416.0" cy="326.1" r="4" fill="#e11d48" stroke="#ffffff" stroke-width="1.2"/><circle cx="620.2" cy="332.0" r="4" fill="#e11d48" stroke="#ffffff" stroke-width="1.2"/><circle cx="742.7" cy="328.2" r="4" fill="#e11d48" stroke="#ffffff" stroke-width="1.2"/><circle cx="936.7" cy="335.4" r="4" fill="#e11d48" stroke="#ffffff" stroke-width="1.2"/><circle cx="1069.4" cy="326.7" r="4" fill="#e11d48" stroke="#ffffff" stroke-width="1.2"/>
  <!-- Legend -->
  <g transform="translate(825, 292)">
    <line x1="0" y1="6" x2="25" y2="6" stroke="#0284c7" stroke-width="2"/>
    <text x="32" y="10" font-size="11" fill="#000000">Filtered rPPG Waveform (0.75 - 3.5 Hz)</text>
    <circle cx="12" cy="24" r="4" fill="#e11d48"/>
    <text x="32" y="28" font-size="11" fill="#000000">Detected Systolic Peaks (N=6)</text>
  </g>

  <!-- ========================================================================= -->
  <!-- SUBPLOT 3: Frequency Spectrum & Heart Rate Peak                           -->
  <!-- ========================================================================= -->
  <!-- Title -->
  <text x="610" y="491" font-size="14" font-weight="bold" text-anchor="middle" fill="#000000">
    3. Frequency Spectrum &amp; Heart Rate Peak
  </text>
  <!-- Box -->
  <rect x="120" y="505" width="980" height="140" fill="#ffffff" stroke="#000000" stroke-width="1.2"/>
  <!-- Y Ticks -->
  
      <line x1="120" y1="645" x2="1100" y2="645" stroke="#f1f5f9" stroke-width="1"/>
      <line x1="114" y1="645" x2="120" y2="645" stroke="#000000" stroke-width="1.2"/>
      <text x="110" y="649" font-size="11" text-anchor="end" fill="#000000">0.0</text>
    
      <line x1="120" y1="-49005.70557472563" x2="1100" y2="-49005.70557472563" stroke="#f1f5f9" stroke-width="1"/>
      <line x1="114" y1="-49005.70557472563" x2="120" y2="-49005.70557472563" stroke="#000000" stroke-width="1.2"/>
      <text x="110" y="-49001.70557472563" font-size="11" text-anchor="end" fill="#000000">0.2</text>
    
      <line x1="120" y1="-98656.41114945126" x2="1100" y2="-98656.41114945126" stroke="#f1f5f9" stroke-width="1"/>
      <line x1="114" y1="-98656.41114945126" x2="120" y2="-98656.41114945126" stroke="#000000" stroke-width="1.2"/>
      <text x="110" y="-98652.41114945126" font-size="11" text-anchor="end" fill="#000000">0.4</text>
    
      <line x1="120" y1="-148307.11672417689" x2="1100" y2="-148307.11672417689" stroke="#f1f5f9" stroke-width="1"/>
      <line x1="114" y1="-148307.11672417689" x2="120" y2="-148307.11672417689" stroke="#000000" stroke-width="1.2"/>
      <text x="110" y="-148303.11672417689" font-size="11" text-anchor="end" fill="#000000">0.6</text>
    
  <!-- Y Label -->
  <text x="65" y="575" font-size="12" text-anchor="middle" fill="#000000" transform="rotate(-90 65 575)">
    Power Spectral Density
  </text>
  <!-- X Ticks (BPM) -->
  
      <line x1="172.97297297297297" y1="505" x2="172.97297297297297" y2="645" stroke="#f1f5f9" stroke-width="1"/>
      <line x1="172.97297297297297" y1="645" x2="172.97297297297297" y2="651" stroke="#000000" stroke-width="1.2"/>
      <text x="172.97297297297297" y="663" font-size="11" text-anchor="middle" fill="#000000">50</text>
    
      <line x1="305.4054054054054" y1="505" x2="305.4054054054054" y2="645" stroke="#f1f5f9" stroke-width="1"/>
      <line x1="305.4054054054054" y1="645" x2="305.4054054054054" y2="651" stroke="#000000" stroke-width="1.2"/>
      <text x="305.4054054054054" y="663" font-size="11" text-anchor="middle" fill="#000000">75</text>
    
      <line x1="437.83783783783787" y1="505" x2="437.83783783783787" y2="645" stroke="#f1f5f9" stroke-width="1"/>
      <line x1="437.83783783783787" y1="645" x2="437.83783783783787" y2="651" stroke="#000000" stroke-width="1.2"/>
      <text x="437.83783783783787" y="663" font-size="11" text-anchor="middle" fill="#000000">100</text>
    
      <line x1="570.2702702702703" y1="505" x2="570.2702702702703" y2="645" stroke="#f1f5f9" stroke-width="1"/>
      <line x1="570.2702702702703" y1="645" x2="570.2702702702703" y2="651" stroke="#000000" stroke-width="1.2"/>
      <text x="570.2702702702703" y="663" font-size="11" text-anchor="middle" fill="#000000">125</text>
    
      <line x1="702.7027027027027" y1="505" x2="702.7027027027027" y2="645" stroke="#f1f5f9" stroke-width="1"/>
      <line x1="702.7027027027027" y1="645" x2="702.7027027027027" y2="651" stroke="#000000" stroke-width="1.2"/>
      <text x="702.7027027027027" y="663" font-size="11" text-anchor="middle" fill="#000000">150</text>
    
      <line x1="835.1351351351351" y1="505" x2="835.1351351351351" y2="645" stroke="#f1f5f9" stroke-width="1"/>
      <line x1="835.1351351351351" y1="645" x2="835.1351351351351" y2="651" stroke="#000000" stroke-width="1.2"/>
      <text x="835.1351351351351" y="663" font-size="11" text-anchor="middle" fill="#000000">175</text>
    
      <line x1="967.5675675675676" y1="505" x2="967.5675675675676" y2="645" stroke="#f1f5f9" stroke-width="1"/>
      <line x1="967.5675675675676" y1="645" x2="967.5675675675676" y2="651" stroke="#000000" stroke-width="1.2"/>
      <text x="967.5675675675676" y="663" font-size="11" text-anchor="middle" fill="#000000">200</text>
    
      <line x1="1100" y1="505" x2="1100" y2="645" stroke="#f1f5f9" stroke-width="1"/>
      <line x1="1100" y1="645" x2="1100" y2="651" stroke="#000000" stroke-width="1.2"/>
      <text x="1100" y="663" font-size="11" text-anchor="middle" fill="#000000">225</text>
    
  <!-- X Label -->
  <text x="610" y="679" font-size="12" text-anchor="middle" fill="#000000">
    Heart Rate (BPM)
  </text>
  <!-- Traces -->
  <polyline fill="none" stroke="#9333ea" stroke-width="2.2" points="131.6,594.2 150.2,588.9 168.8,589.5 187.5,596.1 206.1,607.1 224.7,619.8 243.3,631.3 262.0,639.7 280.6,644.1 299.2,644.9 317.8,643.5 336.4,640.9 355.1,637.4 373.7,632.7 392.3,625.1 410.9,613.1 429.6,595.8 448.2,574.3 466.8,551.7 485.4,533.0 504.1,523.3 522.7,526.0 541.3,541.3 559.9,565.9 578.5,593.6 597.2,617.9 615.8,634.1 634.4,641.0 653.0,640.5 671.7,636.4 690.3,632.7 708.9,631.5 727.5,633.3 746.2,636.4 764.8,638.9 783.4,639.2 802.0,637.1 820.7,633.3 839.3,629.2 857.9,626.3 876.5,625.4 895.1,626.7 913.8,629.6 932.4,633.3 951.0,637.1 969.6,640.2 988.3,642.4 1006.9,643.6 1025.5,644.0 1044.1,643.7 1062.8,643.0 1081.4,642.2 1100.0,641.5 " />
  <line x1="504.05405405405406" y1="645" x2="504.05405405405406" y2="523.2608695652174" stroke="#e11d48" stroke-width="2" stroke-dasharray="5,4"/>
  <!-- Legend -->
  <g transform="translate(865, 517)">
    <line x1="0" y1="6" x2="25" y2="6" stroke="#9333ea" stroke-width="2"/>
    <text x="32" y="10" font-size="11" fill="#000000">PSD (Welch)</text>
    <line x1="0" y1="24" x2="25" y2="24" stroke="#e11d48" stroke-width="2" stroke-dasharray="5,4"/>
    <text x="32" y="28" font-size="11" fill="#000000">Dominant Peak (112.5 BPM)</text>
  </g>

  <!-- ========================================================================= -->
  <!-- SUBPLOT 4: Heart Rate Variations | HRV (SDNN)                             -->
  <!-- ========================================================================= -->
  <!-- Title -->
  <text x="610" y="716" font-size="14" font-weight="bold" text-anchor="middle" fill="#000000">
    4. Heart Rate Variations | HRV (SDNN): 77.2 ms
  </text>
  <!-- Box -->
  <rect x="120" y="730" width="980" height="140" fill="#ffffff" stroke="#000000" stroke-width="1.2"/>
  <!-- Y Ticks -->
  
      <line x1="120" y1="832.6666666666666" x2="1100" y2="832.6666666666666" stroke="#f1f5f9" stroke-width="1"/>
      <line x1="114" y1="832.6666666666666" x2="120" y2="832.6666666666666" stroke="#000000" stroke-width="1.2"/>
      <text x="110" y="836.6666666666666" font-size="11" text-anchor="end" fill="#000000">100</text>
    
      <line x1="120" y1="786" x2="1100" y2="786" stroke="#f1f5f9" stroke-width="1"/>
      <line x1="114" y1="786" x2="120" y2="786" stroke="#000000" stroke-width="1.2"/>
      <text x="110" y="790" font-size="11" text-anchor="end" fill="#000000">150</text>
    
      <line x1="120" y1="739.3333333333334" x2="1100" y2="739.3333333333334" stroke="#f1f5f9" stroke-width="1"/>
      <line x1="114" y1="739.3333333333334" x2="120" y2="739.3333333333334" stroke="#000000" stroke-width="1.2"/>
      <text x="110" y="743.3333333333334" font-size="11" text-anchor="end" fill="#000000">200</text>
    
  <!-- Y Label -->
  <text x="65" y="800" font-size="12" text-anchor="middle" fill="#000000" transform="rotate(-90 65 800)">
    Heart Rate (BPM)
  </text>
  <!-- X Ticks -->
  
      <line x1="120" y1="730" x2="120" y2="870" stroke="#f1f5f9" stroke-width="1"/>
      <line x1="120" y1="870" x2="120" y2="876" stroke="#000000" stroke-width="1.2"/>
      <text x="120" y="888" font-size="11" text-anchor="middle" fill="#000000">0</text>
    
      <line x1="316" y1="730" x2="316" y2="870" stroke="#f1f5f9" stroke-width="1"/>
      <line x1="316" y1="870" x2="316" y2="876" stroke="#000000" stroke-width="1.2"/>
      <text x="316" y="888" font-size="11" text-anchor="middle" fill="#000000">10</text>
    
      <line x1="512" y1="730" x2="512" y2="870" stroke="#f1f5f9" stroke-width="1"/>
      <line x1="512" y1="870" x2="512" y2="876" stroke="#000000" stroke-width="1.2"/>
      <text x="512" y="888" font-size="11" text-anchor="middle" fill="#000000">20</text>
    
      <line x1="708" y1="730" x2="708" y2="870" stroke="#f1f5f9" stroke-width="1"/>
      <line x1="708" y1="870" x2="708" y2="876" stroke="#000000" stroke-width="1.2"/>
      <text x="708" y="888" font-size="11" text-anchor="middle" fill="#000000">30</text>
    
      <line x1="904" y1="730" x2="904" y2="870" stroke="#f1f5f9" stroke-width="1"/>
      <line x1="904" y1="870" x2="904" y2="876" stroke="#000000" stroke-width="1.2"/>
      <text x="904" y="888" font-size="11" text-anchor="middle" fill="#000000">40</text>
    
      <line x1="1100" y1="730" x2="1100" y2="870" stroke="#f1f5f9" stroke-width="1"/>
      <line x1="1100" y1="870" x2="1100" y2="876" stroke="#000000" stroke-width="1.2"/>
      <text x="1100" y="888" font-size="11" text-anchor="middle" fill="#000000">50</text>
    
  <!-- X Label -->
  <text x="610" y="904" font-size="12" text-anchor="middle" fill="#000000">
    Time (seconds)
  </text>
  <!-- Traces -->
  <polyline fill="none" stroke="#e11d48" stroke-width="1.8" points="165.7,806.0 224.5,832.7 267.0,796.8 322.5,827.2 361.7,786.0 " />
  <circle cx="165.7" cy="806.0" r="3.5" fill="#e11d48"/><circle cx="224.5" cy="832.7" r="3.5" fill="#e11d48"/><circle cx="267.0" cy="796.8" r="3.5" fill="#e11d48"/><circle cx="322.5" cy="827.2" r="3.5" fill="#e11d48"/><circle cx="361.7" cy="786.0" r="3.5" fill="#e11d48"/>
  <line x1="120" y1="805.9733333333334" x2="1100" y2="805.9733333333334" stroke="#000000" stroke-width="1.8" stroke-dasharray="2,3"/>
  <!-- Legend -->
  <g transform="translate(865, 742)">
    <line x1="0" y1="6" x2="25" y2="6" stroke="#e11d48" stroke-width="2"/>
    <circle cx="12" cy="6" r="3.5" fill="#e11d48"/>
    <text x="32" y="10" font-size="11" fill="#000000">Instantaneous BPM</text>
    <line x1="0" y1="24" x2="25" y2="24" stroke="#000000" stroke-width="2" stroke-dasharray="2,3"/>
    <text x="32" y="28" font-size="11" fill="#000000">Median BPM (128.6 BPM)</text>
  </g>
</svg>