<svg width="1200" height="820" viewBox="0 0 1200 820" xmlns="http://www.w3.org/2000/svg" style="background:#090d16; font-family: ui-sans-serif, system-ui, -apple-system, BlinkMacSystemFont, 'Segoe UI', Roboto, sans-serif;">
  <defs>
    <!-- Background Gradients -->
    <linearGradient id="headerGrad" x1="0%" y1="0%" x2="100%" y2="0%">
      <stop offset="0%" stop-color="#0f172a"/>
      <stop offset="100%" stop-color="#1e293b"/>
    </linearGradient>
    <linearGradient id="psdGrad" x1="0%" y1="0%" x2="0%" y2="100%">
      <stop offset="0%" stop-color="#a855f7" stop-opacity="0.35"/>
      <stop offset="100%" stop-color="#a855f7" stop-opacity="0.0"/>
    </linearGradient>
    <linearGradient id="sppgGlow" x1="0%" y1="0%" x2="100%" y2="0%">
      <stop offset="0%" stop-color="#10b981"/>
      <stop offset="100%" stop-color="#34d399"/>
    </linearGradient>
  </defs>

  <!-- ================= HEADER SECTION ================= -->
  <rect x="0" y="0" width="1200" height="70" fill="url(#headerGrad)"/>
  <circle cx="36" cy="35" r="9" fill="#f59e0b" opacity="0.2"/>
  <circle cx="36" cy="35" r="5" fill="#f59e0b"/>
  
  <text x="56" y="32" font-size="16" font-weight="800" fill="#f8fafc" letter-spacing="0.5">
    THE INTERMEDIATOR <tspan font-weight="400" fill="#94a3b8">| Sternal Hemodynamic Diagnostic Card</tspan>
  </text>
  <text x="56" y="52" font-size="11" font-weight="500" fill="#64748b">
    Target Placement: Sternum Cutaneous Contact • 120+ FPS Sensor Mode • Zero-Jitter IT Timing
  </text>

  <!-- Header Right: Patient Badge & Status -->
  <rect x="800" y="16" width="365" height="38" fill="#0b1120" stroke="#334155" rx="8"/>
  <text x="815" y="34" font-size="11" font-weight="bold" fill="#38bdf8">PATIENT: <tspan fill="#ffffff">PT-REAL-VIDEO-120FPS</tspan></text>
  <text x="815" y="47" font-size="9" fill="#94a3b8">2026-09-15 11:27:21 UTC</text>
  <rect x="1000" y="22" width="155" height="26" fill="#f59e0b22" stroke="#f59e0b" rx="6"/>
  <text x="1077" y="39" font-size="10" font-weight="bold" text-anchor="middle" fill="#f59e0b">
    ⚠️ CRITICAL ANOMALY BREACH
  </text>

  <!-- ========================================================================= -->
  <!-- ROW 1: PANEL 1 & PANEL 2                                                 -->
  <!-- ========================================================================= -->

  <!-- PANEL 1: Sternal Contact sPPG Pulse Wave -->
  <rect x="35" y="85" width="550" height="195" fill="#0f172a" stroke="#1e293b" rx="10"/>
  <rect x="35" y="85" width="550" height="34" fill="#131e36" rx="10"/>
  <text x="50" y="107" font-size="12" font-weight="700" fill="#38bdf8">
    1. Sternal Contact sPPG (GRD Motion Cancelled)
  </text>
  <!-- P1 Chip -->
  <rect x="420" y="91" width="155" height="22" fill="#090d16" stroke="#334155" rx="5"/>
  <text x="497" y="106" font-size="10" font-weight="bold" text-anchor="middle" fill="#34d399">
    HR: 133.6 BPM | CT: 183.3ms
  </text>
  <!-- P1 Grid Lines -->
  <line x1="60" y1="135" x2="560" y2="135" stroke="#1e293b" stroke-width="0.75" stroke-dasharray="3"/>
  <line x1="60" y1="190" x2="560" y2="190" stroke="#1e293b" stroke-width="0.75" stroke-dasharray="3"/>
  <line x1="60" y1="245" x2="560" y2="245" stroke="#1e293b" stroke-width="0.75"/>
  <!-- P1 Trace & Markers -->
  <polyline fill="none" stroke="url(#sppgGlow)" stroke-width="2.5" stroke-linejoin="round" points="60.0,188.6 65.3,189.5 70.6,189.9 76.0,189.4 81.3,188.2 86.6,186.7 91.9,185.3 97.2,184.4 102.6,184.1 107.9,184.8 113.2,186.7 118.5,189.2 123.8,192.2 129.1,195.1 134.5,196.8 139.8,196.6 145.1,193.8 150.4,188.8 155.7,183.2 161.1,179.1 166.4,177.6 171.7,178.5 177.0,181.3 182.3,185.4 187.7,190.6 193.0,196.5 198.3,201.7 203.6,203.7 208.9,201.5 214.3,195.9 219.6,187.9 224.9,179.4 230.2,171.8 235.5,166.8 240.9,166.1 246.2,170.0 251.5,178.2 256.8,189.6 262.1,202.7 267.4,214.3 272.8,220.7 278.1,219.8 283.4,211.5 288.7,197.5 294.0,180.8 299.4,165.2 304.7,154.0 310.0,149.8 315.3,153.8 320.6,165.3 326.0,182.0 331.3,200.3 336.6,216.7 341.9,228.1 347.2,231.4 352.6,225.4 357.9,211.2 363.2,191.8 368.5,171.1 373.8,153.8 379.1,143.4 384.5,142.9 389.8,152.9 395.1,170.6 400.4,191.9 405.7,212.1 411.1,226.8 416.4,232.7 421.7,228.3 427.0,215.1 432.3,196.1 437.7,175.9 443.0,158.9 448.3,149.0 453.6,148.5 458.9,156.8 464.3,171.5 469.6,189.4 474.9,206.8 480.2,220.8 485.5,228.6 490.9,227.9 496.2,218.0 501.5,201.0 506.8,180.2 512.1,160.1 517.4,145.4 522.8,139.7 528.1,144.4 533.4,158.9 538.7,180.6 544.0,205.8 549.4,228.5 554.7,242.9 560.0,245.0 " />
  <polygon points="139.8,194.6 135.8,203.6 143.8,203.6" fill="#38bdf8" stroke="#0284c7" stroke-width="1"/><polygon points="208.9,199.5 204.9,208.5 212.9,208.5" fill="#38bdf8" stroke="#0284c7" stroke-width="1"/><polygon points="283.4,209.5 279.4,218.5 287.4,218.5" fill="#38bdf8" stroke="#0284c7" stroke-width="1"/><polygon points="352.6,223.4 348.6,232.4 356.6,232.4" fill="#38bdf8" stroke="#0284c7" stroke-width="1"/><polygon points="421.7,226.3 417.7,235.3 425.7,235.3" fill="#38bdf8" stroke="#0284c7" stroke-width="1"/><polygon points="496.2,216.0 492.2,225.0 500.2,225.0" fill="#38bdf8" stroke="#0284c7" stroke-width="1"/>
  <circle cx="166.4" cy="177.6" r="4.5" fill="#f43f5e" stroke="#ffffff" stroke-width="1.5"/><circle cx="240.9" cy="166.1" r="4.5" fill="#f43f5e" stroke="#ffffff" stroke-width="1.5"/><circle cx="310.0" cy="149.8" r="4.5" fill="#f43f5e" stroke="#ffffff" stroke-width="1.5"/><circle cx="384.5" cy="142.9" r="4.5" fill="#f43f5e" stroke="#ffffff" stroke-width="1.5"/><circle cx="453.6" cy="148.5" r="4.5" fill="#f43f5e" stroke="#ffffff" stroke-width="1.5"/><circle cx="522.8" cy="139.7" r="4.5" fill="#f43f5e" stroke="#ffffff" stroke-width="1.5"/>
  <!-- P1 Legend -->
  <text x="60" y="263" font-size="9" fill="#64748b">
    ▲ <tspan fill="#38bdf8">IT Foot (RMSE &le; 5.7ms)</tspan> &nbsp;&nbsp; ● <tspan fill="#f43f5e">Systolic Peak</tspan> &nbsp;&nbsp; Trace: 0.75–3.5 Hz Bandpass
  </text>

  <!-- PANEL 2: SDPPG Acceleration Wave (Vascular Aging) -->
  <rect x="615" y="85" width="550" height="195" fill="#0f172a" stroke="#1e293b" rx="10"/>
  <rect x="615" y="85" width="550" height="34" fill="#131e36" rx="10"/>
  <text x="630" y="107" font-size="12" font-weight="700" fill="#fbbf24">
    2. SDPPG Second Derivative (d&sup2;G/dt&sup2;) &bull; Arterial Compliance
  </text>
  <!-- P2 Chip -->
  <rect x="980" y="91" width="175" height="22" fill="#090d16" stroke="#334155" rx="5"/>
  <text x="1067" y="106" font-size="10" font-weight="bold" text-anchor="middle" fill="#fbbf24">
    AGI: 0.95 | b/a: 0.53
  </text>
  <!-- P2 Grid & Zero Line -->
  <line x1="640" y1="135" x2="1140" y2="135" stroke="#1e293b" stroke-width="0.75" stroke-dasharray="3"/>
  <line x1="640" y1="194.2141834331255" x2="1140" y2="194.2141834331255" stroke="#475569" stroke-dasharray="4"/>
  <line x1="640" y1="245" x2="1140" y2="245" stroke="#1e293b" stroke-width="0.75"/>
  <!-- P2 Trace -->
  <polyline fill="none" stroke="#f59e0b" stroke-width="2.2" stroke-linejoin="round" points="640.0,194.2 645.3,192.3 650.6,189.7 656.0,190.6 661.3,192.6 666.6,195.0 671.9,196.5 677.2,197.3 682.6,199.1 687.9,199.7 693.2,197.7 698.5,196.2 703.8,194.0 709.1,188.5 714.5,184.4 719.8,182.4 725.1,183.2 730.4,191.2 735.7,201.6 741.1,206.9 746.4,206.0 751.7,203.4 757.0,200.5 762.3,199.0 767.7,198.1 773.0,190.5 778.3,178.7 783.6,174.3 788.9,177.1 794.3,183.2 799.6,191.6 804.9,198.5 810.2,206.9 815.5,214.7 820.9,216.9 826.2,214.8 831.5,209.9 836.8,202.2 842.1,187.2 847.4,169.0 852.8,158.6 858.1,158.5 863.4,166.7 868.7,181.3 874.0,198.9 879.4,215.9 884.7,228.4 890.0,233.7 895.3,230.5 900.6,219.2 906.0,202.2 911.3,185.2 916.6,169.6 921.9,155.2 927.2,149.3 932.6,154.5 937.9,168.5 943.2,188.7 948.5,210.1 953.8,228.1 959.1,241.9 964.5,244.9 969.8,232.1 975.1,211.3 980.4,188.7 985.7,167.9 991.1,151.3 996.4,144.7 1001.7,151.1 1007.0,166.7 1012.3,187.9 1017.7,209.9 1023.0,228.8 1028.3,239.4 1033.6,237.1 1038.9,225.5 1044.3,209.1 1049.6,192.1 1054.9,177.8 1060.2,164.5 1065.5,152.6 1070.9,149.8 1076.2,159.6 1081.5,176.2 1086.8,197.5 1092.1,220.3 1097.4,237.4 1102.8,245.0 1108.1,241.6 1113.4,229.4 1118.7,210.5 1124.0,182.9 1129.4,153.3 1134.7,135.0 1140.0,194.2 " />
  <!-- P2 Legend -->
  <text x="640" y="263" font-size="9" fill="#64748b">
    SDPPG Fiducials (a, b, c, d, e) &bull; AGI = (b - c - d - e)/a &bull; Arterial Stiffness Ratio b/a
  </text>

  <!-- ========================================================================= -->
  <!-- ROW 2: PANEL 3 & PANEL 4                                                 -->
  <!-- ========================================================================= -->

  <!-- PANEL 3: Welch Power Spectral Density -->
  <rect x="35" y="300" width="550" height="210" fill="#0f172a" stroke="#1e293b" rx="10"/>
  <rect x="35" y="300" width="550" height="34" fill="#131e36" rx="10"/>
  <text x="50" y="322" font-size="12" font-weight="700" fill="#c084fc">
    3. Welch PSD Autonomic Spectrum (0.75–3.5 Hz)
  </text>
  <!-- P3 Chip -->
  <rect x="420" y="306" width="155" height="22" fill="#090d16" stroke="#334155" rx="5"/>
  <text x="497" y="321" font-size="10" font-weight="bold" text-anchor="middle" fill="#d8b4fe">
    Cardiac Peak: 2.23 Hz
  </text>
  <!-- P3 Grid Lines -->
  <line x1="60" y1="365" x2="560" y2="365" stroke="#1e293b" stroke-width="0.75" stroke-dasharray="3"/>
  <line x1="60" y1="420" x2="560" y2="420" stroke="#1e293b" stroke-width="0.75" stroke-dasharray="3"/>
  <line x1="60" y1="475" x2="560" y2="475" stroke="#1e293b" stroke-width="0.75"/>
  <!-- P3 Area & Line -->
  <polygon fill="url(#psdGrad)" points="60,475 60.0,475.0 68.4,475.0 76.7,475.0 85.1,475.0 93.5,475.0 101.9,475.0 110.2,475.0 118.6,475.0 127.0,475.0 135.3,475.0 143.7,475.0 152.1,475.0 160.4,475.0 168.8,475.0 177.2,475.0 185.6,475.0 193.9,475.0 202.3,475.0 210.7,475.0 219.0,475.0 227.4,475.0 235.8,475.0 244.2,474.9 252.5,474.9 260.9,474.8 269.3,474.5 277.6,474.0 286.0,473.0 294.4,471.1 302.7,467.7 311.1,462.2 319.5,453.9 327.9,442.5 336.2,428.2 344.6,411.9 353.0,395.2 361.3,380.4 369.7,369.7 378.1,365.0 386.5,367.2 394.8,376.0 403.2,390.0 411.6,406.8 419.9,424.1 428.3,439.8 436.7,452.6 445.0,461.9 453.4,468.1 461.8,471.7 470.2,473.6 478.5,474.5 486.9,474.8 495.3,475.0 503.6,475.0 512.0,475.0 520.4,475.0 528.8,475.0 537.1,475.0 545.5,474.9 553.9,474.9 560,475"/>
  <polyline fill="none" stroke="#a855f7" stroke-width="2.2" points="60.0,475.0 68.4,475.0 76.7,475.0 85.1,475.0 93.5,475.0 101.9,475.0 110.2,475.0 118.6,475.0 127.0,475.0 135.3,475.0 143.7,475.0 152.1,475.0 160.4,475.0 168.8,475.0 177.2,475.0 185.6,475.0 193.9,475.0 202.3,475.0 210.7,475.0 219.0,475.0 227.4,475.0 235.8,475.0 244.2,474.9 252.5,474.9 260.9,474.8 269.3,474.5 277.6,474.0 286.0,473.0 294.4,471.1 302.7,467.7 311.1,462.2 319.5,453.9 327.9,442.5 336.2,428.2 344.6,411.9 353.0,395.2 361.3,380.4 369.7,369.7 378.1,365.0 386.5,367.2 394.8,376.0 403.2,390.0 411.6,406.8 419.9,424.1 428.3,439.8 436.7,452.6 445.0,461.9 453.4,468.1 461.8,471.7 470.2,473.6 478.5,474.5 486.9,474.8 495.3,475.0 503.6,475.0 512.0,475.0 520.4,475.0 528.8,475.0 537.1,475.0 545.5,474.9 553.9,474.9 " />
  <!-- P3 Ticks -->
  <text x="60" y="490" font-size="9" fill="#64748b">0.5 Hz</text>
  <text x="225" y="490" font-size="9" fill="#64748b">1.5 Hz</text>
  <text x="390" y="490" font-size="9" fill="#64748b">2.5 Hz</text>
  <text x="540" y="490" font-size="9" fill="#64748b">3.5 Hz</text>
  <!-- P3 Summary -->
  <text x="60" y="505" font-size="9" fill="#94a3b8">
    LF/HF Autonomic Ratio: <tspan font-weight="bold" fill="#c084fc">1.50</tspan> (Balanced Vagal Tone)
  </text>

  <!-- PANEL 4: Poincaré Non-Linear Dynamics -->
  <rect x="615" y="300" width="550" height="210" fill="#0f172a" stroke="#1e293b" rx="10"/>
  <rect x="615" y="300" width="550" height="34" fill="#131e36" rx="10"/>
  <text x="630" y="322" font-size="12" font-weight="700" fill="#34d399">
    4. Poincaré Non-Linear Dynamics (NN[k] vs NN[k+1])
  </text>
  <!-- P4 Chip -->
  <rect x="990" y="306" width="165" height="22" fill="#090d16" stroke="#334155" rx="5"/>
  <text x="1072" y="321" font-size="10" font-weight="bold" text-anchor="middle" fill="#34d399">
    RMSSD: 28.9 ms
  </text>
  <!-- P4 Scatter Box -->
  <rect x="640" y="360" width="125" height="125" fill="#0b1120" stroke="#334155" rx="6"/>
  <line x1="640" y1="485" x2="765" y2="360" stroke="#475569" stroke-dasharray="3"/>
  <circle cx="684.1" cy="404.1" r="3.5" fill="#34d399" stroke="#064e3b" stroke-width="1" opacity="0.85"/><circle cx="720.9" cy="440.9" r="3.5" fill="#34d399" stroke="#064e3b" stroke-width="1" opacity="0.85"/><circle cx="684.1" cy="440.9" r="3.5" fill="#34d399" stroke="#064e3b" stroke-width="1" opacity="0.85"/><circle cx="684.1" cy="404.1" r="3.5" fill="#34d399" stroke="#064e3b" stroke-width="1" opacity="0.85"/>
  <text x="650" y="479" font-size="8" fill="#64748b">NN[k]</text>
  <text x="646" y="374" font-size="8" fill="#64748b">NN[k+1]</text>
  <!-- P4 Metric Callouts -->
  <g transform="translate(785, 355)">
    <rect x="0" y="0" width="365" height="38" fill="#0b1120" stroke="#1e293b" rx="6"/>
    <text x="12" y="24" font-size="11" fill="#94a3b8">SD1 (Short-Term / Vagal Tone):</text>
    <text x="350" y="24" font-size="13" font-weight="bold" text-anchor="end" fill="#38bdf8">20.4 ms</text>

    <rect x="0" y="44" width="365" height="38" fill="#0b1120" stroke="#1e293b" rx="6"/>
    <text x="12" y="68" font-size="11" fill="#94a3b8">SD2 (Long-Term Continuous):</text>
    <text x="350" y="68" font-size="13" font-weight="bold" text-anchor="end" fill="#38bdf8">10.8 ms</text>

    <rect x="0" y="88" width="365" height="38" fill="#0b1120" stroke="#1e293b" rx="6"/>
    <text x="12" y="112" font-size="11" fill="#94a3b8">SDNN Total Variance:</text>
    <text x="350" y="112" font-size="13" font-weight="bold" text-anchor="end" fill="#ef4444">16.3 ms</text>
  </g>

  <!-- ========================================================================= -->
  <!-- ROW 3: PANEL 5 & PANEL 6                                                 -->
  <!-- ========================================================================= -->

  <!-- PANEL 5: Tri-Modal Smart Respiration Fusion -->
  <rect x="35" y="530" width="550" height="235" fill="#0f172a" stroke="#1e293b" rx="10"/>
  <rect x="35" y="530" width="550" height="34" fill="#131e36" rx="10"/>
  <text x="50" y="552" font-size="12" font-weight="700" fill="#22d3ee">
    5. Tri-Modal Smart Respiration Fusion (Sternal BW + AM + FM)
  </text>
  <!-- Channel 1: BW -->
  <g transform="translate(50, 580)">
    <text x="0" y="12" font-size="10" font-weight="600" fill="#94a3b8">Baseline Wander (BW - Rib Excursion)</text>
    <rect x="230" y="0" width="220" height="14" fill="#0b1120" rx="3"/>
    <rect x="230" y="0" width="128.94444444444446" height="14" fill="#06b6d4" rx="3"/>
    <text x="460" y="12" font-size="11" font-weight="bold" fill="#22d3ee">21.1 BrPM</text>
  </g>
  <!-- Channel 2: AM -->
  <g transform="translate(50, 610)">
    <text x="0" y="12" font-size="10" font-weight="600" fill="#94a3b8">Amplitude Modulation (AM - Stroke Vol)</text>
    <rect x="230" y="0" width="220" height="14" fill="#0b1120" rx="3"/>
    <rect x="230" y="0" width="128.94444444444446" height="14" fill="#3b82f6" rx="3"/>
    <text x="460" y="12" font-size="11" font-weight="bold" fill="#60a5fa">21.1 BrPM</text>
  </g>
  <!-- Channel 3: FM -->
  <g transform="translate(50, 640)">
    <text x="0" y="12" font-size="10" font-weight="600" fill="#94a3b8">Frequency Modulation (FM - RSA Timing)</text>
    <rect x="230" y="0" width="220" height="14" fill="#0b1120" rx="3"/>
    <rect x="230" y="0" width="128.94444444444446" height="14" fill="#8b5cf6" rx="3"/>
    <text x="460" y="12" font-size="11" font-weight="bold" fill="#a78bfa">21.1 BrPM</text>
  </g>
  <!-- Consensus Callout Box -->
  <rect x="50" y="675" width="515" height="72" fill="#0b1120" stroke="#334155" rx="8"/>
  <text x="68" y="705" font-size="11" font-weight="bold" fill="#64748b">CONSENSUS RESPIRATORY RATE:</text>
  <text x="68" y="736" font-size="28" font-weight="900" fill="#22d3ee">
    21.1 <tspan font-size="13" font-weight="600" fill="#94a3b8">BrPM</tspan>
  </text>
  <rect x="360" y="694" width="190" height="34" fill="#f59e0b22" stroke="#f59e0b" rx="6"/>
  <text x="455" y="715" font-size="10" font-weight="bold" text-anchor="middle" fill="#fbbf24">
    ⚠ Multi-Modal Variance
  </text>

  <!-- PANEL 6: Clinical Hemodynamics & 4-Gate SQI Protocol Matrix -->
  <rect x="615" y="530" width="550" height="235" fill="#0f172a" stroke="#1e293b" rx="10"/>
  <rect x="615" y="530" width="550" height="34" fill="#131e36" rx="10"/>
  <text x="630" y="552" font-size="12" font-weight="700" fill="#f43f5e">
    6. Clinical Hemodynamic Matrix &bull; 4-Gate SQI Protocol
  </text>
  <!-- Row 1: 3 Big Vital Badges -->
  <g transform="translate(630, 576)">
    <!-- HR -->
    <rect x="0" y="0" width="160" height="60" fill="#0b1120" stroke="#1e293b" rx="6"/>
    <text x="12" y="18" font-size="9" font-weight="bold" fill="#64748b">HEART RATE</text>
    <text x="12" y="47" font-size="22" font-weight="900" fill="#ef4444">
      133.6 <tspan font-size="11" font-weight="600" fill="#64748b">BPM</tspan>
    </text>

    <!-- SpO2 -->
    <rect x="175" y="0" width="160" height="60" fill="#0b1120" stroke="#1e293b" rx="6"/>
    <text x="187" y="18" font-size="9" font-weight="bold" fill="#64748b">SpO2 (Reflectance)</text>
    <text x="187" y="47" font-size="22" font-weight="900" fill="#38bdf8">
      100 <tspan font-size="11" font-weight="600" fill="#64748b">%</tspan>
    </text>

    <!-- PI -->
    <rect x="350" y="0" width="165" height="60" fill="#0b1120" stroke="#1e293b" rx="6"/>
    <text x="362" y="18" font-size="9" font-weight="bold" fill="#64748b">PERFUSION INDEX</text>
    <text x="362" y="47" font-size="22" font-weight="900" fill="#10b981">
      2.51 <tspan font-size="11" font-weight="600" fill="#64748b">%</tspan>
    </text>
  </g>

  <!-- Row 2: 4-Gate SQI Protocol Matrix -->
  <g transform="translate(630, 648)">
    <rect x="0" y="0" width="515" height="100" fill="#0b1120" stroke="#334155" rx="8"/>
    <text x="15" y="22" font-size="11" font-weight="bold" fill="#f8fafc">
      4-GATE MULTI-TIER SQI PROTOCOL: <tspan fill="#34d399">55% (TIER 2 ACCEPTABLE)</tspan>
    </text>
    <line x1="15" y1="32" x2="500" y2="32" stroke="#1e293b"/>

    <!-- SQI Items -->
    <text x="15" y="52" font-size="10" fill="#94a3b8">Gate 1 (PI &ge; 0.15%):</text>
    <text x="140" y="52" font-size="10" font-weight="bold" fill="#34d399">PASS</text>

    <text x="200" y="52" font-size="10" fill="#94a3b8">Gate 2 (Template r &ge; 0.85):</text>
    <text x="375" y="52" font-size="10" font-weight="bold" fill="#38bdf8">0.67</text>

    <text x="15" y="72" font-size="10" fill="#94a3b8">Gate 3 (Skewness S &gt; 0):</text>
    <text x="140" y="72" font-size="10" font-weight="bold" fill="#38bdf8">-0.07</text>

    <text x="200" y="72" font-size="10" fill="#94a3b8">Gate 4 (Zero-Crossing Z=2):</text>
    <text x="375" y="72" font-size="10" font-weight="bold" fill="#34d399">PASS</text>

    <text x="15" y="91" font-size="10" fill="#94a3b8">Transmural Contact Pressure:</text>
    <text x="175" y="91" font-size="10" font-weight="bold" fill="#34d399">OPTIMAL</text>
  </g>

  <!-- ================= FOOTER ================= -->
  <text x="600" y="798" font-size="10" text-anchor="middle" fill="#475569">
    CONFIDENTIAL CLINICAL TELEMETRY &bull; Generated by The Intermediator DSP Engine &bull; Instant Paramedic Telegram Relay (@PulseGuardbbot)
  </text>
</svg>