
<svg width="1280" height="960" viewBox="0 0 1280 960" xmlns="http://www.w3.org/2000/svg" style="background:#ffffff; font-family: sans-serif;">
  <!-- Title Header -->
  <text x="640" y="38" font-size="22" font-weight="bold" text-anchor="middle" fill="#0f172a">
    Clinical Photoplethysmography (rPPG) Multi-Biomarker Analysis
  </text>
  <text x="640" y="62" font-size="14" font-weight="semibold" text-anchor="middle" fill="#475569">
    Patient ID: PT-TEST-SPIKE • Real-Time Automated DSP Sweep
  </text>

  <!-- PANEL 1: BVP Waveforms (6s Window) -->
  <rect x="40" y="70" width="580" height="190" fill="#f8fafc" stroke="#cbd5e1" rx="8"/>
  <text x="50" y="92" font-size="13" font-weight="bold" fill="#0f172a">
    1. Blood Volume Pulse (BVP) Waveforms (6s Window)
  </text>
  <line x1="50" y1="170" x2="600" y2="170" stroke="#e2e8f0" stroke-dasharray="4"/>
  <polyline fill="none" stroke="#2ca02c" stroke-width="2.5" points="50.0,150.0 53.0,150.1 56.0,150.3 59.1,150.5 62.1,150.5 65.1,150.4 68.1,150.2 71.1,149.8 74.1,149.3 77.2,148.9 80.2,148.7 83.2,148.8 86.2,149.1 89.2,149.6 92.2,150.3 95.3,151.1 98.3,151.6 101.3,151.9 104.3,151.8 107.3,151.3 110.3,150.5 113.4,149.6 116.4,148.6 119.4,147.9 122.4,147.6 125.4,147.8 128.4,148.4 131.5,149.3 134.5,150.5 137.5,151.6 140.5,152.4 143.5,152.7 146.5,152.5 149.6,151.8 152.6,150.7 155.6,149.4 158.6,148.2 161.6,147.4 164.6,147.0 167.7,147.3 170.7,148.1 173.7,149.4 176.7,150.7 179.7,152.0 182.7,152.8 185.8,153.1 188.8,152.8 191.8,151.8 194.8,150.5 197.8,149.1 200.8,147.9 203.9,147.1 206.9,146.9 209.9,147.3 212.9,148.3 215.9,149.7 218.9,151.1 222.0,152.3 225.0,153.0 228.0,153.1 231.0,152.5 234.0,151.5 237.0,150.1 240.1,148.7 243.1,147.6 246.1,147.0 249.1,147.1 252.1,147.7 255.1,148.8 258.2,150.1 261.2,151.4 264.2,152.4 267.2,152.9 270.2,152.7 273.2,152.0 276.3,150.9 279.3,149.6 282.3,148.4 285.3,147.6 288.3,147.3 291.3,147.6 294.4,148.4 297.4,149.5 300.4,150.7 303.4,151.7 306.4,152.3 309.4,152.4 312.5,152.0 315.5,151.2 318.5,150.1 321.5,149.1 324.5,148.2 327.5,147.8 330.6,147.8 333.6,148.4 336.6,149.2 339.6,150.2 342.6,151.1 345.6,151.8 348.7,152.0 351.7,151.8 354.7,151.2 357.7,150.4 360.7,149.5 363.7,148.7 366.8,148.3 369.8,148.2 372.8,148.6 375.8,149.2 378.8,150.0 381.8,150.8 384.9,151.3 387.9,151.6 390.9,151.5 393.9,151.0 396.9,150.3 399.9,149.6 403.0,149.0 406.0,148.6 409.0,148.6 412.0,148.9 415.0,149.4 418.0,150.1 421.1,150.7 424.1,151.1 427.1,151.3 430.1,151.2 433.1,150.7 436.1,150.2 439.2,149.6 442.2,149.1 445.2,148.8 448.2,148.8 451.2,149.1 454.2,149.6 457.3,150.2 460.3,150.7 463.3,151.1 466.3,151.1 469.3,151.0 472.3,150.5 475.4,150.0 478.4,149.4 481.4,149.0 484.4,148.9 487.4,148.9 490.4,149.3 493.5,149.8 496.5,150.4 499.5,150.9 502.5,151.1 505.5,151.1 508.5,150.9 511.6,150.4 514.6,149.8 517.6,149.3 520.6,148.9 523.6,148.8 526.6,148.9 529.7,149.4 532.7,149.9 535.7,150.5 538.7,151.0 541.7,151.2 544.7,151.2 547.8,150.9 550.8,150.4 553.8,149.7 556.8,149.2 559.8,148.8 562.8,148.7 565.9,148.9 568.9,149.3 571.9,149.9 574.9,150.6 577.9,151.1 580.9,151.3 584.0,151.3 587.0,151.0 590.0,150.4 " />
  <rect x="480" y="80" width="130" height="22" fill="#ffffff" stroke="#cbd5e1" rx="4"/>
  <text x="545" y="95" font-size="10" font-weight="bold" text-anchor="middle" fill="#15803d">
    Pulse: 137.1 BPM
  </text>

  <!-- PANEL 2: Respiration Spectrum (RIIV/RSA) -->
  <rect x="650" y="70" width="580" height="190" fill="#f8fafc" stroke="#cbd5e1" rx="8"/>
  <text x="660" y="92" font-size="13" font-weight="bold" fill="#0f172a">
    2. Respiration Spectrum (RIIV / RSA Breathing Rate)
  </text>
  <!-- Bar for respiration -->
  <rect x="860" y="161.975" width="90" height="58.025000000000006" fill="#ff7f0e" rx="4"/>
  <text x="905" y="151.975" font-size="12" font-weight="bold" text-anchor="middle" fill="#c2410c">
    21.1 BrPM
  </text>
  <line x1="720" y1="180" x2="1160" y2="180" stroke="#64748b" stroke-dasharray="3"/>
  <text x="1170" y="184" font-size="10" fill="#64748b">Normal Max (20)</text>
  <line x1="720" y1="205" x2="1160" y2="205" stroke="#94a3b8" stroke-dasharray="2"/>
  <text x="1170" y="209" font-size="10" fill="#94a3b8">Normal Min (12)</text>

  <!-- PANEL 3: HRV Power Spectrum (LF/HF) -->
  <rect x="40" y="270" width="580" height="210" fill="#f8fafc" stroke="#cbd5e1" rx="8"/>
  <text x="50" y="292" font-size="13" font-weight="bold" fill="#0f172a">
    3. HRV Power Spectrum (Autonomic Tone LF/HF: 10)
  </text>
  <rect x="250" y="300" width="90" height="140" fill="#ef4444" rx="4"/>
  <text x="295" y="290" font-size="13" font-weight="bold" text-anchor="middle" fill="#0f172a">
    LF/HF: 10
  </text>
  <line x1="120" y1="400" x2="540" y2="400" stroke="#64748b" stroke-dasharray="3"/>
  <text x="490" y="394" font-size="10" fill="#64748b">Sympathetic Balance (1.0)</text>

  <!-- PANEL 4: Poincaré Plot (Non-Linear Heartbeat Dynamics) -->
  <rect x="650" y="270" width="580" height="210" fill="#f8fafc" stroke="#cbd5e1" rx="8"/>
  <text x="660" y="292" font-size="13" font-weight="bold" fill="#0f172a">
    4. Poincaré Plot (SD1: 9.6ms, SD2: 12.4ms)
  </text>
  <rect x="700" y="310" width="220" height="150" fill="#ffffff" stroke="#e2e8f0"/>
  <line x1="700" y1="460" x2="920" y2="310" stroke="#94a3b8" stroke-dasharray="3"/>
  <circle cx="786.0" cy="334.0" r="4.5" fill="#2ca02c" stroke="#111" stroke-width="1" opacity="0.85"/><circle cx="786.0" cy="334.0" r="4.5" fill="#2ca02c" stroke="#111" stroke-width="1" opacity="0.85"/><circle cx="786.0" cy="370.0" r="4.5" fill="#2ca02c" stroke="#111" stroke-width="1" opacity="0.85"/><circle cx="750.0" cy="334.0" r="4.5" fill="#2ca02c" stroke="#111" stroke-width="1" opacity="0.85"/><circle cx="786.0" cy="370.0" r="4.5" fill="#2ca02c" stroke="#111" stroke-width="1" opacity="0.85"/><circle cx="750.0" cy="334.0" r="4.5" fill="#2ca02c" stroke="#111" stroke-width="1" opacity="0.85"/><circle cx="786.0" cy="370.0" r="4.5" fill="#2ca02c" stroke="#111" stroke-width="1" opacity="0.85"/><circle cx="750.0" cy="406.0" r="4.5" fill="#2ca02c" stroke="#111" stroke-width="1" opacity="0.85"/><circle cx="714.0" cy="370.0" r="4.5" fill="#2ca02c" stroke="#111" stroke-width="1" opacity="0.85"/><circle cx="750.0" cy="370.0" r="4.5" fill="#2ca02c" stroke="#111" stroke-width="1" opacity="0.85"/><circle cx="750.0" cy="370.0" r="4.5" fill="#2ca02c" stroke="#111" stroke-width="1" opacity="0.85"/><circle cx="750.0" cy="370.0" r="4.5" fill="#2ca02c" stroke="#111" stroke-width="1" opacity="0.85"/><circle cx="750.0" cy="370.0" r="4.5" fill="#2ca02c" stroke="#111" stroke-width="1" opacity="0.85"/><circle cx="750.0" cy="370.0" r="4.5" fill="#2ca02c" stroke="#111" stroke-width="1" opacity="0.85"/><circle cx="750.0" cy="370.0" r="4.5" fill="#2ca02c" stroke="#111" stroke-width="1" opacity="0.85"/><circle cx="750.0" cy="370.0" r="4.5" fill="#2ca02c" stroke="#111" stroke-width="1" opacity="0.85"/><circle cx="750.0" cy="370.0" r="4.5" fill="#2ca02c" stroke="#111" stroke-width="1" opacity="0.85"/><circle cx="750.0" cy="370.0" r="4.5" fill="#2ca02c" stroke="#111" stroke-width="1" opacity="0.85"/><circle cx="750.0" cy="370.0" r="4.5" fill="#2ca02c" stroke="#111" stroke-width="1" opacity="0.85"/><circle cx="750.0" cy="370.0" r="4.5" fill="#2ca02c" stroke="#111" stroke-width="1" opacity="0.85"/><circle cx="750.0" cy="370.0" r="4.5" fill="#2ca02c" stroke="#111" stroke-width="1" opacity="0.85"/><circle cx="750.0" cy="334.0" r="4.5" fill="#2ca02c" stroke="#111" stroke-width="1" opacity="0.85"/><circle cx="786.0" cy="370.0" r="4.5" fill="#2ca02c" stroke="#111" stroke-width="1" opacity="0.85"/><circle cx="750.0" cy="370.0" r="4.5" fill="#2ca02c" stroke="#111" stroke-width="1" opacity="0.85"/><circle cx="750.0" cy="370.0" r="4.5" fill="#2ca02c" stroke="#111" stroke-width="1" opacity="0.85"/><circle cx="750.0" cy="370.0" r="4.5" fill="#2ca02c" stroke="#111" stroke-width="1" opacity="0.85"/><circle cx="750.0" cy="370.0" r="4.5" fill="#2ca02c" stroke="#111" stroke-width="1" opacity="0.85"/><circle cx="750.0" cy="370.0" r="4.5" fill="#2ca02c" stroke="#111" stroke-width="1" opacity="0.85"/><circle cx="750.0" cy="370.0" r="4.5" fill="#2ca02c" stroke="#111" stroke-width="1" opacity="0.85"/><circle cx="750.0" cy="370.0" r="4.5" fill="#2ca02c" stroke="#111" stroke-width="1" opacity="0.85"/><circle cx="750.0" cy="370.0" r="4.5" fill="#2ca02c" stroke="#111" stroke-width="1" opacity="0.85"/><circle cx="750.0" cy="370.0" r="4.5" fill="#2ca02c" stroke="#111" stroke-width="1" opacity="0.85"/><circle cx="750.0" cy="370.0" r="4.5" fill="#2ca02c" stroke="#111" stroke-width="1" opacity="0.85"/><circle cx="750.0" cy="370.0" r="4.5" fill="#2ca02c" stroke="#111" stroke-width="1" opacity="0.85"/><circle cx="750.0" cy="370.0" r="4.5" fill="#2ca02c" stroke="#111" stroke-width="1" opacity="0.85"/><circle cx="750.0" cy="370.0" r="4.5" fill="#2ca02c" stroke="#111" stroke-width="1" opacity="0.85"/><circle cx="750.0" cy="370.0" r="4.5" fill="#2ca02c" stroke="#111" stroke-width="1" opacity="0.85"/><circle cx="750.0" cy="370.0" r="4.5" fill="#2ca02c" stroke="#111" stroke-width="1" opacity="0.85"/><circle cx="750.0" cy="370.0" r="4.5" fill="#2ca02c" stroke="#111" stroke-width="1" opacity="0.85"/><circle cx="750.0" cy="370.0" r="4.5" fill="#2ca02c" stroke="#111" stroke-width="1" opacity="0.85"/><circle cx="750.0" cy="370.0" r="4.5" fill="#2ca02c" stroke="#111" stroke-width="1" opacity="0.85"/><circle cx="750.0" cy="370.0" r="4.5" fill="#2ca02c" stroke="#111" stroke-width="1" opacity="0.85"/><circle cx="750.0" cy="370.0" r="4.5" fill="#2ca02c" stroke="#111" stroke-width="1" opacity="0.85"/><circle cx="750.0" cy="370.0" r="4.5" fill="#2ca02c" stroke="#111" stroke-width="1" opacity="0.85"/><circle cx="750.0" cy="334.0" r="4.5" fill="#2ca02c" stroke="#111" stroke-width="1" opacity="0.85"/><circle cx="786.0" cy="370.0" r="4.5" fill="#2ca02c" stroke="#111" stroke-width="1" opacity="0.85"/><circle cx="750.0" cy="370.0" r="4.5" fill="#2ca02c" stroke="#111" stroke-width="1" opacity="0.85"/><circle cx="750.0" cy="370.0" r="4.5" fill="#2ca02c" stroke="#111" stroke-width="1" opacity="0.85"/><circle cx="750.0" cy="370.0" r="4.5" fill="#2ca02c" stroke="#111" stroke-width="1" opacity="0.85"/><circle cx="750.0" cy="370.0" r="4.5" fill="#2ca02c" stroke="#111" stroke-width="1" opacity="0.85"/><circle cx="750.0" cy="370.0" r="4.5" fill="#2ca02c" stroke="#111" stroke-width="1" opacity="0.85"/><circle cx="750.0" cy="370.0" r="4.5" fill="#2ca02c" stroke="#111" stroke-width="1" opacity="0.85"/><circle cx="750.0" cy="370.0" r="4.5" fill="#2ca02c" stroke="#111" stroke-width="1" opacity="0.85"/><circle cx="750.0" cy="370.0" r="4.5" fill="#2ca02c" stroke="#111" stroke-width="1" opacity="0.85"/><circle cx="750.0" cy="370.0" r="4.5" fill="#2ca02c" stroke="#111" stroke-width="1" opacity="0.85"/><circle cx="750.0" cy="370.0" r="4.5" fill="#2ca02c" stroke="#111" stroke-width="1" opacity="0.85"/><circle cx="750.0" cy="370.0" r="4.5" fill="#2ca02c" stroke="#111" stroke-width="1" opacity="0.85"/><circle cx="750.0" cy="370.0" r="4.5" fill="#2ca02c" stroke="#111" stroke-width="1" opacity="0.85"/><circle cx="750.0" cy="370.0" r="4.5" fill="#2ca02c" stroke="#111" stroke-width="1" opacity="0.85"/><circle cx="750.0" cy="370.0" r="4.5" fill="#2ca02c" stroke="#111" stroke-width="1" opacity="0.85"/><circle cx="750.0" cy="370.0" r="4.5" fill="#2ca02c" stroke="#111" stroke-width="1" opacity="0.85"/><circle cx="750.0" cy="370.0" r="4.5" fill="#2ca02c" stroke="#111" stroke-width="1" opacity="0.85"/><circle cx="750.0" cy="370.0" r="4.5" fill="#2ca02c" stroke="#111" stroke-width="1" opacity="0.85"/><circle cx="750.0" cy="370.0" r="4.5" fill="#2ca02c" stroke="#111" stroke-width="1" opacity="0.85"/><circle cx="750.0" cy="370.0" r="4.5" fill="#2ca02c" stroke="#111" stroke-width="1" opacity="0.85"/><circle cx="750.0" cy="370.0" r="4.5" fill="#2ca02c" stroke="#111" stroke-width="1" opacity="0.85"/>
  <text x="935" y="380" font-size="11" fill="#475569">Line of Identity (y=x)</text>

  <!-- PANEL 5: Autonomic & Vascular Tone Biomarkers -->
  <rect x="40" y="490" width="580" height="220" fill="#f8fafc" stroke="#cbd5e1" rx="8"/>
  <text x="50" y="512" font-size="13" font-weight="bold" fill="#0f172a">
    5. Autonomic & Vascular Tone Biomarkers
  </text>
  <!-- RMSSD -->
  <rect x="110" y="643.68" width="70" height="16.32" fill="#1f77b4" rx="4"/>
  <text x="145" y="633.68" font-size="11" font-weight="bold" text-anchor="middle" fill="#0f172a">13.6</text>
  <text x="145" y="680" font-size="10" text-anchor="middle" fill="#475569">RMSSD (ms)</text>
  <!-- pNN50 -->
  <rect x="250" y="660" width="70" height="0" fill="#ff7f0e" rx="4"/>
  <text x="285" y="650" font-size="11" font-weight="bold" text-anchor="middle" fill="#0f172a">0%</text>
  <text x="285" y="680" font-size="10" text-anchor="middle" fill="#475569">pNN50 (%)</text>
  <!-- Crest Time -->
  <rect x="390" y="586" width="70" height="74" fill="#2ca02c" rx="4"/>
  <text x="425" y="576" font-size="11" font-weight="bold" text-anchor="middle" fill="#0f172a">185</text>
  <text x="425" y="680" font-size="10" text-anchor="middle" fill="#475569">Crest Time (ms)</text>

  <!-- PANEL 6: Hemodynamics & Sympathetic Excitation -->
  <rect x="650" y="490" width="580" height="220" fill="#f8fafc" stroke="#cbd5e1" rx="8"/>
  <text x="660" y="512" font-size="13" font-weight="bold" fill="#0f172a">
    6. Hemodynamics & Sympathetic Excitation
  </text>
  <!-- Heart Rate -->
  <rect x="730" y="568.6" width="70" height="91.39999999999999" fill="#d62728" rx="4"/>
  <text x="765" y="558.6" font-size="11" font-weight="bold" text-anchor="middle" fill="#0f172a">137.1</text>
  <text x="765" y="680" font-size="10" text-anchor="middle" fill="#475569">Heart Rate</text>
  <!-- Perfusion Index -->
  <rect x="870" y="644" width="70" height="16" fill="#17becf" rx="4"/>
  <text x="905" y="634" font-size="11" font-weight="bold" text-anchor="middle" fill="#0f172a">1.6%</text>
  <text x="905" y="680" font-size="10" text-anchor="middle" fill="#475569">Perfusion Index</text>
  <!-- SpO2 Proxy -->
  <rect x="1010" y="540" width="70" height="120" fill="#e377c2" rx="4"/>
  <text x="1045" y="530" font-size="11" font-weight="bold" text-anchor="middle" fill="#0f172a">100%</text>
  <text x="1045" y="680" font-size="10" text-anchor="middle" fill="#475569">SpO2 Proxy</text>

  <!-- Footer Banner -->
  <rect x="40" y="730" width="1190" height="40" fill="#0f172a" rx="6"/>
  <text x="635" y="755" font-size="12" font-weight="bold" text-anchor="middle" fill="#38bdf8">
    AUTOMATED PARAMEDIC EMERGENCY TELEMETRY REPORT • CLINICAL NEWS2 / MEWS VERIFIED
  </text>
</svg>
