
<svg width="1280" height="960" viewBox="0 0 1280 960" xmlns="http://www.w3.org/2000/svg" style="background:#090d16; font-family: ui-sans-serif, system-ui, -apple-system, BlinkMacSystemFont, 'Segoe UI', Roboto, sans-serif;">
  <!-- Header Bar -->
  <rect x="0" y="0" width="1280" height="60" fill="#0f172a" border="none"/>
  <text x="40" y="38" font-size="20" font-weight="bold" fill="#38bdf8">
    THE INTERMEDIATOR | Emergency Collapse Hemodynamic Monitor
  </text>
  <text x="1240" y="38" font-size="13" font-weight="semibold" text-anchor="end" fill="#94a3b8">
    Patient ID: <tspan fill="#f8fafc">PT-REAL-VIDEO-120FPS</tspan> • Mode: Sternal/Arm 120+ FPS Contact sPPG
  </text>

  <!-- ================= PANEL 1: Sternal sPPG Pulse Wave (IT Feet + Peaks) ================= -->
  <rect x="40" y="70" width="580" height="180" fill="#131d31" stroke="#1e293b" rx="10"/>
  <text x="60" y="94" font-size="12" font-weight="bold" fill="#38bdf8">
    1. Sternal Contact sPPG (GRD Motion Cancelled) • Intersecting Tangents
  </text>
  <line x1="60" y1="150" x2="580" y2="150" stroke="#1e293b" stroke-dasharray="3"/>
  <polyline fill="none" stroke="#10b981" stroke-width="2.5" points="60.0,207.5 65.8,207.4 71.6,207.3 77.3,207.3 83.1,207.3 88.9,207.4 94.7,207.5 100.4,207.7 106.2,208.0 112.0,208.2 117.8,208.2 123.6,208.1 129.3,207.7 135.1,207.3 140.9,206.9 146.7,206.6 152.4,206.4 158.2,206.4 164.0,206.6 169.8,207.2 175.6,207.9 181.3,208.6 187.1,209.1 192.9,209.2 198.7,208.9 204.4,208.1 210.2,207.2 216.0,206.3 221.8,205.8 227.6,205.6 233.3,205.9 239.1,206.6 244.9,207.5 250.7,208.3 256.4,208.9 262.2,209.2 268.0,209.1 273.8,208.7 279.6,208.0 285.3,207.2 291.1,206.5 296.9,205.9 302.7,205.7 308.4,205.9 314.2,206.4 320.0,207.3 325.8,208.3 331.6,209.0 337.3,209.2 343.1,208.9 348.9,208.3 354.7,207.7 360.4,207.1 366.2,206.7 372.0,206.6 377.8,206.7 383.6,206.9 389.3,207.2 395.1,207.5 400.9,207.7 406.7,208.0 412.4,208.1 418.2,208.0 424.0,207.8 429.8,207.5 435.6,207.2 441.3,207.0 447.1,206.8 452.9,206.8 458.7,207.0 464.4,207.4 470.2,208.0 476.0,208.4 481.8,208.6 487.6,208.6 493.3,208.3 499.1,207.7 504.9,207.0 510.7,206.3 516.4,205.8 522.2,205.7 528.0,205.9 533.8,206.6 539.6,207.6 545.3,208.7 551.1,209.6 556.9,210.0 562.7,209.8 568.4,209.2 574.2,208.2 580.0,207.0 " />
  <polygon points="123.6,211.1 119.6,218.1 127.6,218.1" fill="#3b82f6" /><polygon points="198.7,211.9 194.7,218.9 202.7,218.9" fill="#3b82f6" /><polygon points="268.0,212.1 264.0,219.1 272.0,219.1" fill="#3b82f6" /><polygon points="343.1,211.9 339.1,218.9 347.1,218.9" fill="#3b82f6" /><polygon points="418.2,211.0 414.2,218.0 422.2,218.0" fill="#3b82f6" /><polygon points="493.3,211.3 489.3,218.3 497.3,218.3" fill="#3b82f6" />
  <circle cx="158.2" cy="206.4" r="4" fill="#ef4444" stroke="#ffffff" stroke-width="1.5"/><circle cx="227.6" cy="205.6" r="4" fill="#ef4444" stroke="#ffffff" stroke-width="1.5"/><circle cx="302.7" cy="205.7" r="4" fill="#ef4444" stroke="#ffffff" stroke-width="1.5"/><circle cx="372.0" cy="206.6" r="4" fill="#ef4444" stroke="#ffffff" stroke-width="1.5"/><circle cx="452.9" cy="206.8" r="4" fill="#ef4444" stroke="#ffffff" stroke-width="1.5"/><circle cx="522.2" cy="205.7" r="4" fill="#ef4444" stroke="#ffffff" stroke-width="1.5"/>
  <rect x="440" y="80" width="160" height="22" fill="#0f172a" stroke="#334155" rx="5"/>
  <text x="520" y="95" font-size="10" font-weight="bold" text-anchor="middle" fill="#34d399">
    HR: 140.6 BPM | CT: 183.3ms
  </text>

  <!-- ================= PANEL 2: SDPPG Acceleration Wave (Vascular Aging AGI) ================= -->
  <rect x="660" y="70" width="580" height="180" fill="#131d31" stroke="#1e293b" rx="10"/>
  <text x="680" y="94" font-size="12" font-weight="bold" fill="#f59e0b">
    2. Second Derivative Photoplethysmogram (SDPPG / APG) • Vascular Aging
  </text>
  <line x1="680" y1="150" x2="1200" y2="150" stroke="#1e293b" stroke-dasharray="3"/>
  <polyline fill="none" stroke="#f59e0b" stroke-width="2" points="680.0,158.0 685.8,156.2 691.6,163.6 697.3,165.4 703.1,165.4 708.9,165.4 714.7,165.2 720.4,160.8 726.2,151.2 732.0,142.5 737.8,136.5 743.6,136.4 749.3,146.6 755.1,160.0 760.9,169.3 766.7,173.1 772.4,178.0 778.2,190.2 784.0,190.0 789.8,175.6 795.6,159.7 801.3,134.7 807.1,113.2 812.9,106.2 818.7,110.3 824.4,133.8 830.2,167.5 836.0,193.3 841.8,207.3 847.6,209.4 853.3,200.0 859.1,180.2 864.9,157.2 870.7,133.0 876.4,115.8 882.2,116.9 888.0,119.9 893.8,126.0 899.6,146.3 905.3,163.9 911.1,178.4 916.9,196.2 922.7,205.0 928.4,205.6 934.2,194.8 940.0,164.3 945.8,128.0 951.6,101.6 957.3,101.3 963.1,124.9 968.9,148.8 974.7,166.3 980.4,179.6 986.2,186.2 992.0,185.2 997.8,175.8 1003.6,164.3 1009.3,158.0 1015.1,155.6 1020.9,151.8 1026.7,144.0 1032.4,139.9 1038.2,142.2 1044.0,148.3 1049.8,157.4 1055.6,161.2 1061.3,166.0 1067.1,178.6 1072.9,185.7 1078.7,181.6 1084.4,167.8 1090.2,150.1 1096.0,135.6 1101.8,126.3 1107.6,124.7 1113.3,126.4 1119.1,136.7 1124.9,164.6 1130.7,186.2 1136.4,194.5 1142.2,206.1 1148.0,210.0 1153.8,193.4 1159.6,164.2 1165.3,135.1 1171.1,107.4 1176.9,90.0 1182.7,97.7 1188.4,118.2 1194.2,140.3 1200.0,158.0 " />
  <rect x="1030" y="80" width="190" height="22" fill="#0f172a" stroke="#334155" rx="5"/>
  <text x="1125" y="95" font-size="10" font-weight="bold" text-anchor="middle" fill="#fbbf24">
    AGI: 0.57 | b/a: 0.53
  </text>

  <!-- ================= PANEL 3: Welch PSD Autonomic Spectrum (LF/HF) ================= -->
  <rect x="40" y="270" width="580" height="180" fill="#131d31" stroke="#1e293b" rx="10"/>
  <text x="60" y="294" font-size="12" font-weight="bold" fill="#a855f7">
    3. Welch PSD Autonomic Spectrum (Cardiac Peak: 2.34 Hz)
  </text>
  <line x1="60" y1="350" x2="580" y2="350" stroke="#1e293b" stroke-dasharray="3"/>
  <polyline fill="none" stroke="#c084fc" stroke-width="2" points="60.0,410.0 68.7,410.0 77.4,410.0 86.1,410.0 94.8,410.0 103.5,410.0 112.2,410.0 120.9,410.0 129.6,410.0 138.3,410.0 147.1,410.0 155.8,410.0 164.5,410.0 173.2,410.0 181.9,410.0 190.6,410.0 199.3,410.0 208.0,409.9 216.7,409.9 225.4,409.8 234.1,409.7 242.8,409.6 251.5,409.5 260.2,409.5 268.9,409.3 277.6,408.8 286.3,407.9 295.0,406.5 303.8,404.6 312.5,402.3 321.2,399.4 329.9,395.7 338.6,390.6 347.3,383.2 356.0,372.6 364.7,358.6 373.4,341.7 382.1,323.7 390.8,307.2 399.5,295.2 408.2,290.0 416.9,292.9 425.6,303.4 434.3,319.7 443.0,338.8 451.7,357.8 460.4,374.2 469.2,386.9 477.9,395.7 486.6,401.1 495.3,404.3 504.0,406.2 512.7,407.4 521.4,408.3 530.1,409.0 538.8,409.3 547.5,409.4 556.2,409.2 564.9,408.9 573.6,408.6 " />
  <rect x="440" y="280" width="160" height="22" fill="#0f172a" stroke="#334155" rx="5"/>
  <text x="520" y="295" font-size="10" font-weight="bold" text-anchor="middle" fill="#d8b4fe">
    LF/HF Ratio: 1.5 (Balanced)
  </text>

  <!-- ================= PANEL 4: Poincaré Non-Linear Dynamics ================= -->
  <rect x="660" y="270" width="580" height="180" fill="#131d31" stroke="#1e293b" rx="10"/>
  <text x="680" y="294" font-size="12" font-weight="bold" fill="#38bdf8">
    4. Poincaré Non-Linear Dynamics (NN[k] vs NN[k+1])
  </text>
  <rect x="710" y="275" width="160" height="160" fill="#0b1120" stroke="#1e293b" rx="6"/>
  <line x1="710" y1="435" x2="870" y2="275" stroke="#334155" stroke-dasharray="2"/>
  <circle cx="810.6" cy="370.6" r="4" fill="#10b981" stroke="#064e3b" stroke-width="1" opacity="0.8"/><circle cx="769.4" cy="329.4" r="4" fill="#10b981" stroke="#064e3b" stroke-width="1" opacity="0.8"/><circle cx="810.6" cy="329.4" r="4" fill="#10b981" stroke="#064e3b" stroke-width="1" opacity="0.8"/><circle cx="810.6" cy="329.4" r="4" fill="#10b981" stroke="#064e3b" stroke-width="1" opacity="0.8"/>
  <rect x="910" y="320" width="310" height="90" fill="#0f172a" stroke="#334155" rx="6"/>
  <text x="925" y="345" font-size="11" fill="#94a3b8">• SD1 (Short-Term / Parasymp): <tspan font-weight="bold" fill="#38bdf8">16.7 ms</tspan></text>
  <text x="925" y="370" font-size="11" fill="#94a3b8">• SD2 (Long-Term Autonomic): <tspan font-weight="bold" fill="#38bdf8">8.8 ms</tspan></text>
  <text x="925" y="395" font-size="11" fill="#94a3b8">• HRV RMSSD: <tspan font-weight="bold" fill="#34d399">23.6 ms</tspan></text>

  <!-- ================= PANEL 5: Tri-Modal Smart Respiratory Fusion ================= -->
  <rect x="40" y="470" width="580" height="230" fill="#131d31" stroke="#1e293b" rx="10"/>
  <text x="60" y="494" font-size="12" font-weight="bold" fill="#06b6d4">
    5. Tri-Modal Smart Respiration Fusion (Sternal Rib Excursion vs RSA)
  </text>

  <!-- Bar 1: BW Sternal Rib Cage -->
  <text x="60" y="530" font-size="11" fill="#94a3b8">Baseline Wander (BW - Ribs):</text>
  <rect x="250" y="518" width="140.8" height="16" fill="#06b6d4" rx="3"/>
  <text x="400.8" y="531" font-size="11" font-weight="bold" fill="#22d3ee">17.6 BrPM</text>

  <!-- Bar 2: AM Stroke Volume -->
  <text x="60" y="565" font-size="11" fill="#94a3b8">Amplitude Mod (AM - Stroke):</text>
  <rect x="250" y="553" width="140.8" height="16" fill="#3b82f6" rx="3"/>
  <text x="400.8" y="566" font-size="11" font-weight="bold" fill="#60a5fa">17.6 BrPM</text>

  <!-- Bar 3: FM Respiratory Sinus Arrhythmia -->
  <text x="60" y="600" font-size="11" fill="#94a3b8">Freq Mod (FM - Vagal RSA):</text>
  <rect x="250" y="588" width="140.8" height="16" fill="#8b5cf6" rx="3"/>
  <text x="400.8" y="601" font-size="11" font-weight="bold" fill="#a78bfa">17.6 BrPM</text>

  <!-- Consensus Badge -->
  <rect x="60" y="630" width="540" height="50" fill="#0f172a" stroke="#334155" rx="6"/>
  <text x="75" y="660" font-size="12" font-weight="bold" fill="#f8fafc">
    CONSENSUS RESPIRATION: <tspan fill="#38bdf8" font-size="15">17.6 BrPM</tspan>
  </text>
  <text x="440" y="660" font-size="11" fill="#f59e0b">
    ⚠ Frequency Variance
  </text>

  <!-- ================= PANEL 6: Clinical Vitals Matrix & Multi-Tier SQI ================= -->
  <rect x="660" y="470" width="580" height="230" fill="#131d31" stroke="#1e293b" rx="10"/>
  <text x="680" y="494" font-size="12" font-weight="bold" fill="#f43f5e">
    6. Clinical Hemodynamic Matrix & 4-Gate SQI Protocol
  </text>

  <g transform="translate(680, 515)">
    <!-- Column 1 -->
    <rect x="0" y="0" width="165" height="75" fill="#0f172a" stroke="#1e293b" rx="6"/>
    <text x="15" y="24" font-size="10" fill="#94a3b8">HEART RATE</text>
    <text x="15" y="55" font-size="22" font-weight="bold" fill="#ef4444">140.6 <tspan font-size="11" font-weight="normal" fill="#64748b">BPM</tspan></text>

    <!-- Column 2 -->
    <rect x="180" y="0" width="165" height="75" fill="#0f172a" stroke="#1e293b" rx="6"/>
    <text x="195" y="24" font-size="10" fill="#94a3b8">SpO2 PROXY (Reflectance)</text>
    <text x="195" y="55" font-size="22" font-weight="bold" fill="#38bdf8">100 <tspan font-size="11" font-weight="normal" fill="#64748b">%</tspan></text>

    <!-- Column 3 -->
    <rect x="360" y="0" width="180" height="75" fill="#0f172a" stroke="#1e293b" rx="6"/>
    <text x="375" y="24" font-size="10" fill="#94a3b8">PERFUSION INDEX (PI)</text>
    <text x="375" y="55" font-size="22" font-weight="bold" fill="#10b981">2.14 <tspan font-size="11" font-weight="normal" fill="#64748b">%</tspan></text>

    <!-- Row 2: SQI Diagnostics -->
    <rect x="0" y="90" width="540" height="85" fill="#0f172a" stroke="#334155" rx="6"/>
    <text x="15" y="112" font-size="11" font-weight="bold" fill="#f8fafc">4-GATE SIGNAL QUALITY INDEX (SQI): <tspan fill="#34d399">55.00000000000001%</tspan></text>
    <text x="15" y="132" font-size="10" fill="#94a3b8">• PI Gate (>=0.15%): <tspan fill="#34d399">PASSED</tspan></text>
    <text x="210" y="132" font-size="10" fill="#94a3b8">• Template Corr (r): <tspan fill="#38bdf8">0.67</tspan></text>
    <text x="390" y="132" font-size="10" fill="#94a3b8">• Skewness (S>0): <tspan fill="#38bdf8">-0.14</tspan></text>
    <text x="15" y="156" font-size="10" fill="#94a3b8">• Sternal Contact Force: <tspan font-weight="bold" fill="#34d399">OPTIMAL</tspan></text>
    <text x="320" y="156" font-size="10" fill="#94a3b8">• Asystole State: <tspan font-weight="bold" fill="#34d399">PULSATILE RHYTHM</tspan></text>
  </g>

  <!-- Footer Info -->
  <text x="640" y="730" font-size="11" text-anchor="middle" fill="#64748b">
    Generated automatically by PulseGuard / The Intermediator On-Device DSP Engine • Direct Paramedic Telemetry Relay
  </text>
</svg>
