<svg width="1200" height="960" viewBox="0 0 1200 960" xmlns="http://www.w3.org/2000/svg" style="background:#ffffff; font-family: -apple-system, BlinkMacSystemFont, 'Segoe UI', Roboto, Helvetica, Arial, sans-serif;">

  <!-- ========================================================================= -->
  <!-- SUBPLOT 1: Raw Color Intensity over Time (Skin ROI)                       -->
  <!-- ========================================================================= -->
  <!-- Title -->
  <text x="610" y="42" font-size="14" font-weight="bold" text-anchor="middle" fill="#000000">
    1. Raw Color Intensity over Time (Skin ROI)
  </text>
  <!-- Box -->
  <rect x="120" y="55" width="980" height="140" fill="#ffffff" stroke="#000000" stroke-width="1.2"/>
  <!-- Grid Lines -->
  <line x1="120" y1="164.56521739130434" x2="1100" y2="164.56521739130434" stroke="#f1f5f9" stroke-width="1"/>
  <line x1="120" y1="134.1304347826087" x2="1100" y2="134.1304347826087" stroke="#f1f5f9" stroke-width="1"/>
  <line x1="120" y1="103.69565217391305" x2="1100" y2="103.69565217391305" stroke="#f1f5f9" stroke-width="1"/>
  <line x1="120" y1="73.26086956521739" x2="1100" y2="73.26086956521739" stroke="#f1f5f9" stroke-width="1"/>
  <!-- Y Ticks -->
  <line x1="114" y1="164.56521739130434" x2="120" y2="164.56521739130434" stroke="#000000" stroke-width="1.2"/>
  <text x="110" y="168.56521739130434" font-size="11" text-anchor="end" fill="#000000">50</text>
  <line x1="114" y1="134.1304347826087" x2="120" y2="134.1304347826087" stroke="#000000" stroke-width="1.2"/>
  <text x="110" y="138.1304347826087" font-size="11" text-anchor="end" fill="#000000">100</text>
  <line x1="114" y1="103.69565217391305" x2="120" y2="103.69565217391305" stroke="#000000" stroke-width="1.2"/>
  <text x="110" y="107.69565217391305" font-size="11" text-anchor="end" fill="#000000">150</text>
  <line x1="114" y1="73.26086956521739" x2="120" y2="73.26086956521739" stroke="#000000" stroke-width="1.2"/>
  <text x="110" y="77.26086956521739" font-size="11" text-anchor="end" fill="#000000">200</text>
  <!-- Y Label -->
  <text x="65" y="125" font-size="12" text-anchor="middle" fill="#000000" transform="rotate(-90 65 125)">
    Mean Intensity
  </text>
  <!-- X Ticks -->
  
      <line x1="120" y1="55" x2="120" y2="195" stroke="#f1f5f9" stroke-width="1"/>
      <line x1="120" y1="195" x2="120" y2="201" stroke="#000000" stroke-width="1.2"/>
      <text x="120" y="213" font-size="11" text-anchor="middle" fill="#000000">0</text>
    
      <line x1="283.3333333333333" y1="55" x2="283.3333333333333" y2="195" stroke="#f1f5f9" stroke-width="1"/>
      <line x1="283.3333333333333" y1="195" x2="283.3333333333333" y2="201" stroke="#000000" stroke-width="1.2"/>
      <text x="283.3333333333333" y="213" font-size="11" text-anchor="middle" fill="#000000">5</text>
    
      <line x1="446.66666666666663" y1="55" x2="446.66666666666663" y2="195" stroke="#f1f5f9" stroke-width="1"/>
      <line x1="446.66666666666663" y1="195" x2="446.66666666666663" y2="201" stroke="#000000" stroke-width="1.2"/>
      <text x="446.66666666666663" y="213" font-size="11" text-anchor="middle" fill="#000000">10</text>
    
      <line x1="610" y1="55" x2="610" y2="195" stroke="#f1f5f9" stroke-width="1"/>
      <line x1="610" y1="195" x2="610" y2="201" stroke="#000000" stroke-width="1.2"/>
      <text x="610" y="213" font-size="11" text-anchor="middle" fill="#000000">15</text>
    
      <line x1="773.3333333333333" y1="55" x2="773.3333333333333" y2="195" stroke="#f1f5f9" stroke-width="1"/>
      <line x1="773.3333333333333" y1="195" x2="773.3333333333333" y2="201" stroke="#000000" stroke-width="1.2"/>
      <text x="773.3333333333333" y="213" font-size="11" text-anchor="middle" fill="#000000">20</text>
    
      <line x1="936.6666666666667" y1="55" x2="936.6666666666667" y2="195" stroke="#f1f5f9" stroke-width="1"/>
      <line x1="936.6666666666667" y1="195" x2="936.6666666666667" y2="201" stroke="#000000" stroke-width="1.2"/>
      <text x="936.6666666666667" y="213" font-size="11" text-anchor="middle" fill="#000000">25</text>
    
      <line x1="1100" y1="55" x2="1100" y2="195" stroke="#f1f5f9" stroke-width="1"/>
      <line x1="1100" y1="195" x2="1100" y2="201" stroke="#000000" stroke-width="1.2"/>
      <text x="1100" y="213" font-size="11" text-anchor="middle" fill="#000000">30</text>
    
  <!-- X Label -->
  <text x="610" y="229" font-size="12" text-anchor="middle" fill="#000000">
    Time (seconds)
  </text>
  <!-- Traces -->
  <polyline fill="none" stroke="#e11d48" stroke-width="1.6" points="120.0,106.0 131.0,106.0 142.0,105.0 153.0,105.0 164.0,105.0 175.1,105.0 186.1,105.0 197.1,105.0 208.1,106.8 219.1,106.8 230.1,105.0 241.1,105.0 252.1,106.8 263.1,106.8 274.2,105.0 285.2,105.0 296.2,105.0 307.2,105.0 318.2,105.0 329.2,105.1 340.2,105.1 351.2,105.1 362.2,106.2 373.3,106.2 384.3,106.2 395.3,106.2 406.3,106.8 417.3,106.8 428.3,108.4 439.3,108.4 450.3,108.4 461.3,105.5 472.4,105.5 483.4,105.5 494.4,109.0 505.4,109.0 516.4,109.0 527.4,109.0 538.4,109.0 549.4,109.0 560.4,109.0 571.5,109.0 582.5,106.4 593.5,106.4 604.5,106.4 615.5,106.4 626.5,104.9 637.5,104.9 648.5,104.9 659.6,104.9 670.6,104.9 681.6,105.5 692.6,105.5 703.6,104.9 714.6,104.9 725.6,105.3 736.6,105.3 747.6,105.3 758.7,105.4 769.7,105.4 780.7,105.4 791.7,105.4 802.7,105.4 813.7,104.0 824.7,104.0 835.7,105.5 846.7,105.5 857.8,105.5 868.8,105.5 879.8,105.5 890.8,105.5 901.8,107.8 912.8,107.8 923.8,107.8 934.8,107.3 945.8,107.3 956.9,107.2 967.9,107.2 978.9,105.3 989.9,105.3 1000.9,105.2 1011.9,105.2 1022.9,106.4 1033.9,106.4 1044.9,103.8 1056.0,103.8 1067.0,104.5 1078.0,104.5 1089.0,104.5 1100.0,102.9 " />
  <polyline fill="none" stroke="#16a34a" stroke-width="1.6" points="120.0,183.5 131.0,183.5 142.0,183.3 153.0,183.3 164.0,183.3 175.1,183.3 186.1,183.3 197.1,183.3 208.1,183.6 219.1,183.6 230.1,183.3 241.1,183.3 252.1,183.6 263.1,183.6 274.2,183.3 285.2,183.3 296.2,183.3 307.2,183.3 318.2,183.3 329.2,183.2 340.2,183.2 351.2,183.2 362.2,183.4 373.3,183.4 384.3,183.4 395.3,183.4 406.3,183.5 417.3,183.5 428.3,183.7 439.3,183.7 450.3,183.7 461.3,183.2 472.4,183.2 483.4,183.2 494.4,183.9 505.4,183.9 516.4,183.9 527.4,183.9 538.4,183.9 549.4,183.9 560.4,183.9 571.5,183.9 582.5,183.4 593.5,183.4 604.5,183.4 615.5,183.4 626.5,183.0 637.5,183.0 648.5,183.0 659.6,183.0 670.6,183.0 681.6,183.2 692.6,183.2 703.6,183.1 714.6,183.1 725.6,183.3 736.6,183.3 747.6,183.3 758.7,183.3 769.7,183.3 780.7,183.3 791.7,183.3 802.7,183.3 813.7,183.0 824.7,183.0 835.7,183.3 846.7,183.3 857.8,183.3 868.8,183.3 879.8,183.3 890.8,183.3 901.8,183.7 912.8,183.7 923.8,183.7 934.8,183.6 945.8,183.6 956.9,183.6 967.9,183.6 978.9,183.2 989.9,183.2 1000.9,183.2 1011.9,183.2 1022.9,183.5 1033.9,183.5 1044.9,183.0 1056.0,183.0 1067.0,183.2 1078.0,183.2 1089.0,183.2 1100.0,182.9 " />
  <polyline fill="none" stroke="#2563eb" stroke-width="1.6" points="120.0,180.4 131.0,180.4 142.0,180.1 153.0,180.1 164.0,180.1 175.1,180.1 186.1,180.1 197.1,180.1 208.1,180.7 219.1,180.7 230.1,180.1 241.1,180.1 252.1,180.7 263.1,180.7 274.2,180.1 285.2,180.1 296.2,180.1 307.2,180.1 318.2,180.1 329.2,180.1 340.2,180.1 351.2,180.1 362.2,180.4 373.3,180.4 384.3,180.4 395.3,180.4 406.3,180.6 417.3,180.6 428.3,181.0 439.3,181.0 450.3,181.0 461.3,180.0 472.4,180.0 483.4,180.0 494.4,181.2 505.4,181.2 516.4,181.2 527.4,181.2 538.4,181.2 549.4,181.3 560.4,181.3 571.5,181.3 582.5,180.4 593.5,180.4 604.5,180.4 615.5,180.4 626.5,179.8 637.5,179.8 648.5,179.8 659.6,179.8 670.6,179.8 681.6,180.1 692.6,180.1 703.6,179.9 714.6,179.9 725.6,180.1 736.6,180.1 747.6,180.1 758.7,180.2 769.7,180.2 780.7,180.1 791.7,180.1 802.7,180.1 813.7,179.5 824.7,179.5 835.7,180.1 846.7,180.1 857.8,180.1 868.8,180.1 879.8,180.1 890.8,180.1 901.8,180.9 912.8,180.9 923.8,180.9 934.8,180.7 945.8,180.7 956.9,180.7 967.9,180.7 978.9,180.0 989.9,180.0 1000.9,180.1 1011.9,180.1 1022.9,180.4 1033.9,180.4 1044.9,179.6 1056.0,179.6 1067.0,179.9 1078.0,179.9 1089.0,179.9 1100.0,179.3 " />
  <!-- Legend -->
  <g transform="translate(880, 67)">
    <line x1="0" y1="6" x2="25" y2="6" stroke="#e11d48" stroke-width="2"/>
    <text x="32" y="10" font-size="11" fill="#000000">Red Channel</text>
    <line x1="0" y1="24" x2="25" y2="24" stroke="#16a34a" stroke-width="2"/>
    <text x="32" y="28" font-size="11" fill="#000000">Green Channel (PPG primary)</text>
    <line x1="0" y1="42" x2="25" y2="42" stroke="#2563eb" stroke-width="2"/>
    <text x="32" y="46" font-size="11" fill="#000000">Blue Channel</text>
  </g>

  <!-- ========================================================================= -->
  <!-- SUBPLOT 2: Photoplethysmography (PPG) Pulse Waveform                      -->
  <!-- ========================================================================= -->
  <!-- Title -->
  <text x="610" y="266" font-size="14" font-weight="bold" text-anchor="middle" fill="#000000">
    2. Photoplethysmography (PPG) Pulse Waveform | Est. Heart Rate: 105.5 BPM
  </text>
  <!-- Box -->
  <rect x="120" y="280" width="980" height="140" fill="#ffffff" stroke="#000000" stroke-width="1.2"/>
  <!-- Y Ticks -->
  
      <line x1="120" y1="342.88109235691866" x2="1100" y2="342.88109235691866" stroke="#f1f5f9" stroke-width="1"/>
      <line x1="114" y1="342.88109235691866" x2="120" y2="342.88109235691866" stroke="#000000" stroke-width="1.2"/>
      <text x="110" y="346.88109235691866" font-size="11" text-anchor="end" fill="#000000">0</text>
    
  <!-- Y Label -->
  <text x="65" y="350" font-size="12" text-anchor="middle" fill="#000000" transform="rotate(-90 65 350)">
    Normalized Amplitude
  </text>
  <!-- X Ticks -->
  
      <line x1="120" y1="280" x2="120" y2="420" stroke="#f1f5f9" stroke-width="1"/>
      <line x1="120" y1="420" x2="120" y2="426" stroke="#000000" stroke-width="1.2"/>
      <text x="120" y="438" font-size="11" text-anchor="middle" fill="#000000">0</text>
    
      <line x1="283.3333333333333" y1="280" x2="283.3333333333333" y2="420" stroke="#f1f5f9" stroke-width="1"/>
      <line x1="283.3333333333333" y1="420" x2="283.3333333333333" y2="426" stroke="#000000" stroke-width="1.2"/>
      <text x="283.3333333333333" y="438" font-size="11" text-anchor="middle" fill="#000000">10</text>
    
      <line x1="446.66666666666663" y1="280" x2="446.66666666666663" y2="420" stroke="#f1f5f9" stroke-width="1"/>
      <line x1="446.66666666666663" y1="420" x2="446.66666666666663" y2="426" stroke="#000000" stroke-width="1.2"/>
      <text x="446.66666666666663" y="438" font-size="11" text-anchor="middle" fill="#000000">20</text>
    
      <line x1="610" y1="280" x2="610" y2="420" stroke="#f1f5f9" stroke-width="1"/>
      <line x1="610" y1="420" x2="610" y2="426" stroke="#000000" stroke-width="1.2"/>
      <text x="610" y="438" font-size="11" text-anchor="middle" fill="#000000">30</text>
    
      <line x1="773.3333333333333" y1="280" x2="773.3333333333333" y2="420" stroke="#f1f5f9" stroke-width="1"/>
      <line x1="773.3333333333333" y1="420" x2="773.3333333333333" y2="426" stroke="#000000" stroke-width="1.2"/>
      <text x="773.3333333333333" y="438" font-size="11" text-anchor="middle" fill="#000000">40</text>
    
      <line x1="936.6666666666667" y1="280" x2="936.6666666666667" y2="420" stroke="#f1f5f9" stroke-width="1"/>
      <line x1="936.6666666666667" y1="420" x2="936.6666666666667" y2="426" stroke="#000000" stroke-width="1.2"/>
      <text x="936.6666666666667" y="438" font-size="11" text-anchor="middle" fill="#000000">50</text>
    
      <line x1="1100" y1="280" x2="1100" y2="420" stroke="#f1f5f9" stroke-width="1"/>
      <line x1="1100" y1="420" x2="1100" y2="426" stroke="#000000" stroke-width="1.2"/>
      <text x="1100" y="438" font-size="11" text-anchor="middle" fill="#000000">60</text>
    
  <!-- X Label -->
  <text x="610" y="454" font-size="12" text-anchor="middle" fill="#000000">
    Time (seconds)
  </text>
  <!-- Traces -->
  <polyline fill="none" stroke="#0284c7" stroke-width="1.8" points="120.0,348.8 131.0,347.0 142.0,342.5 153.0,337.7 164.0,334.9 175.1,335.3 186.1,339.3 197.1,345.7 208.1,351.7 219.1,354.8 230.1,355.1 241.1,354.9 252.1,354.1 263.1,350.6 274.2,344.2 285.2,337.0 296.2,331.4 307.2,327.7 318.2,325.4 329.2,324.6 340.2,325.3 351.2,327.8 362.2,331.4 373.3,335.0 384.3,338.3 395.3,342.2 406.3,346.8 417.3,351.2 428.3,352.4 439.3,347.4 450.3,336.4 461.3,325.2 472.4,321.7 483.4,330.3 494.4,347.5 505.4,365.6 516.4,379.1 527.4,386.6 538.4,388.9 549.4,386.7 560.4,380.0 571.5,368.9 582.5,355.6 593.5,343.1 604.5,332.8 615.5,323.9 626.5,316.4 637.5,311.7 648.5,311.1 659.6,314.4 670.6,320.3 681.6,326.9 692.6,332.4 703.6,336.5 714.6,340.0 725.6,343.3 736.6,346.4 747.6,348.6 758.7,349.4 769.7,348.4 780.7,345.0 791.7,339.3 802.7,332.2 813.7,326.2 824.7,323.9 835.7,325.3 846.7,328.2 857.8,331.2 868.8,334.8 879.8,340.9 890.8,350.4 901.8,361.5 912.8,370.8 923.8,375.8 934.8,376.0 945.8,372.1 956.9,364.5 967.9,354.4 978.9,344.4 989.9,338.1 1000.9,337.1 1011.9,339.6 1022.9,341.4 1033.9,339.3 1044.9,334.2 1056.0,330.1 1067.0,330.0 1078.0,333.2 1089.0,337.9 1100.0,341.7 " />
  <circle cx="164.0" cy="334.9" r="4" fill="#e11d48" stroke="#ffffff" stroke-width="1.2"/><circle cx="329.2" cy="324.6" r="4" fill="#e11d48" stroke="#ffffff" stroke-width="1.2"/><circle cx="472.4" cy="321.7" r="4" fill="#e11d48" stroke="#ffffff" stroke-width="1.2"/><circle cx="648.5" cy="311.1" r="4" fill="#e11d48" stroke="#ffffff" stroke-width="1.2"/><circle cx="824.7" cy="323.9" r="4" fill="#e11d48" stroke="#ffffff" stroke-width="1.2"/><circle cx="1000.9" cy="337.1" r="4" fill="#e11d48" stroke="#ffffff" stroke-width="1.2"/>
  <!-- Legend -->
  <g transform="translate(825, 292)">
    <line x1="0" y1="6" x2="25" y2="6" stroke="#0284c7" stroke-width="2"/>
    <text x="32" y="10" font-size="11" fill="#000000">Filtered rPPG Waveform (0.75 - 3.5 Hz)</text>
    <circle cx="12" cy="24" r="4" fill="#e11d48"/>
    <text x="32" y="28" font-size="11" fill="#000000">Detected Systolic Peaks (N=6)</text>
  </g>

  <!-- ========================================================================= -->
  <!-- SUBPLOT 3: Frequency Spectrum & Heart Rate Peak                           -->
  <!-- ========================================================================= -->
  <!-- Title -->
  <text x="610" y="491" font-size="14" font-weight="bold" text-anchor="middle" fill="#000000">
    3. Frequency Spectrum &amp; Heart Rate Peak
  </text>
  <!-- Box -->
  <rect x="120" y="505" width="980" height="140" fill="#ffffff" stroke="#000000" stroke-width="1.2"/>
  <!-- Y Ticks -->
  
      <line x1="120" y1="645" x2="1100" y2="645" stroke="#f1f5f9" stroke-width="1"/>
      <line x1="114" y1="645" x2="120" y2="645" stroke="#000000" stroke-width="1.2"/>
      <text x="110" y="649" font-size="11" text-anchor="end" fill="#000000">0.0</text>
    
      <line x1="120" y1="-28580.45700542963" x2="1100" y2="-28580.45700542963" stroke="#f1f5f9" stroke-width="1"/>
      <line x1="114" y1="-28580.45700542963" x2="120" y2="-28580.45700542963" stroke="#000000" stroke-width="1.2"/>
      <text x="110" y="-28576.45700542963" font-size="11" text-anchor="end" fill="#000000">0.2</text>
    
      <line x1="120" y1="-57805.91401085926" x2="1100" y2="-57805.91401085926" stroke="#f1f5f9" stroke-width="1"/>
      <line x1="114" y1="-57805.91401085926" x2="120" y2="-57805.91401085926" stroke="#000000" stroke-width="1.2"/>
      <text x="110" y="-57801.91401085926" font-size="11" text-anchor="end" fill="#000000">0.4</text>
    
      <line x1="120" y1="-87031.37101628889" x2="1100" y2="-87031.37101628889" stroke="#f1f5f9" stroke-width="1"/>
      <line x1="114" y1="-87031.37101628889" x2="120" y2="-87031.37101628889" stroke="#000000" stroke-width="1.2"/>
      <text x="110" y="-87027.37101628889" font-size="11" text-anchor="end" fill="#000000">0.6</text>
    
  <!-- Y Label -->
  <text x="65" y="575" font-size="12" text-anchor="middle" fill="#000000" transform="rotate(-90 65 575)">
    Power Spectral Density
  </text>
  <!-- X Ticks (BPM) -->
  
      <line x1="172.97297297297297" y1="505" x2="172.97297297297297" y2="645" stroke="#f1f5f9" stroke-width="1"/>
      <line x1="172.97297297297297" y1="645" x2="172.97297297297297" y2="651" stroke="#000000" stroke-width="1.2"/>
      <text x="172.97297297297297" y="663" font-size="11" text-anchor="middle" fill="#000000">50</text>
    
      <line x1="305.4054054054054" y1="505" x2="305.4054054054054" y2="645" stroke="#f1f5f9" stroke-width="1"/>
      <line x1="305.4054054054054" y1="645" x2="305.4054054054054" y2="651" stroke="#000000" stroke-width="1.2"/>
      <text x="305.4054054054054" y="663" font-size="11" text-anchor="middle" fill="#000000">75</text>
    
      <line x1="437.83783783783787" y1="505" x2="437.83783783783787" y2="645" stroke="#f1f5f9" stroke-width="1"/>
      <line x1="437.83783783783787" y1="645" x2="437.83783783783787" y2="651" stroke="#000000" stroke-width="1.2"/>
      <text x="437.83783783783787" y="663" font-size="11" text-anchor="middle" fill="#000000">100</text>
    
      <line x1="570.2702702702703" y1="505" x2="570.2702702702703" y2="645" stroke="#f1f5f9" stroke-width="1"/>
      <line x1="570.2702702702703" y1="645" x2="570.2702702702703" y2="651" stroke="#000000" stroke-width="1.2"/>
      <text x="570.2702702702703" y="663" font-size="11" text-anchor="middle" fill="#000000">125</text>
    
      <line x1="702.7027027027027" y1="505" x2="702.7027027027027" y2="645" stroke="#f1f5f9" stroke-width="1"/>
      <line x1="702.7027027027027" y1="645" x2="702.7027027027027" y2="651" stroke="#000000" stroke-width="1.2"/>
      <text x="702.7027027027027" y="663" font-size="11" text-anchor="middle" fill="#000000">150</text>
    
      <line x1="835.1351351351351" y1="505" x2="835.1351351351351" y2="645" stroke="#f1f5f9" stroke-width="1"/>
      <line x1="835.1351351351351" y1="645" x2="835.1351351351351" y2="651" stroke="#000000" stroke-width="1.2"/>
      <text x="835.1351351351351" y="663" font-size="11" text-anchor="middle" fill="#000000">175</text>
    
      <line x1="967.5675675675676" y1="505" x2="967.5675675675676" y2="645" stroke="#f1f5f9" stroke-width="1"/>
      <line x1="967.5675675675676" y1="645" x2="967.5675675675676" y2="651" stroke="#000000" stroke-width="1.2"/>
      <text x="967.5675675675676" y="663" font-size="11" text-anchor="middle" fill="#000000">200</text>
    
      <line x1="1100" y1="505" x2="1100" y2="645" stroke="#f1f5f9" stroke-width="1"/>
      <line x1="1100" y1="645" x2="1100" y2="651" stroke="#000000" stroke-width="1.2"/>
      <text x="1100" y="663" font-size="11" text-anchor="middle" fill="#000000">225</text>
    
  <!-- X Label -->
  <text x="610" y="679" font-size="12" text-anchor="middle" fill="#000000">
    Heart Rate (BPM)
  </text>
  <!-- Traces -->
  <polyline fill="none" stroke="#9333ea" stroke-width="2.2" points="131.6,579.4 150.2,570.7 168.8,565.7 187.5,564.9 206.1,567.8 224.7,573.0 243.3,578.9 262.0,583.4 280.6,585.4 299.2,584.1 317.8,579.8 336.4,573.3 355.1,565.5 373.7,557.1 392.3,548.6 410.9,540.4 429.6,532.8 448.2,526.8 466.8,523.3 485.4,523.6 504.1,528.7 522.7,538.7 541.3,552.7 559.9,569.2 578.5,585.8 597.2,600.3 615.8,611.4 634.4,618.4 653.0,621.7 671.7,622.4 690.3,621.9 708.9,621.4 727.5,621.7 746.2,623.3 764.8,625.8 783.4,629.0 802.0,632.3 820.7,635.4 839.3,637.8 857.9,639.6 876.5,640.6 895.1,641.2 913.8,641.4 932.4,641.5 951.0,641.6 969.6,641.8 988.3,642.1 1006.9,642.5 1025.5,642.7 1044.1,642.8 1062.8,642.7 1081.4,642.4 1100.0,641.9 " />
  <line x1="466.97297297297297" y1="645" x2="466.97297297297297" y2="523.2608695652174" stroke="#e11d48" stroke-width="2" stroke-dasharray="5,4"/>
  <!-- Legend -->
  <g transform="translate(865, 517)">
    <line x1="0" y1="6" x2="25" y2="6" stroke="#9333ea" stroke-width="2"/>
    <text x="32" y="10" font-size="11" fill="#000000">PSD (Welch)</text>
    <line x1="0" y1="24" x2="25" y2="24" stroke="#e11d48" stroke-width="2" stroke-dasharray="5,4"/>
    <text x="32" y="28" font-size="11" fill="#000000">Dominant Peak (105.5 BPM)</text>
  </g>

  <!-- ========================================================================= -->
  <!-- SUBPLOT 4: Heart Rate Variations | HRV (SDNN)                             -->
  <!-- ========================================================================= -->
  <!-- Title -->
  <text x="610" y="716" font-size="14" font-weight="bold" text-anchor="middle" fill="#000000">
    4. Heart Rate Variations | HRV (SDNN): 125.4 ms
  </text>
  <!-- Box -->
  <rect x="120" y="730" width="980" height="140" fill="#ffffff" stroke="#000000" stroke-width="1.2"/>
  <!-- Y Ticks -->
  
      <line x1="120" y1="832.6666666666666" x2="1100" y2="832.6666666666666" stroke="#f1f5f9" stroke-width="1"/>
      <line x1="114" y1="832.6666666666666" x2="120" y2="832.6666666666666" stroke="#000000" stroke-width="1.2"/>
      <text x="110" y="836.6666666666666" font-size="11" text-anchor="end" fill="#000000">100</text>
    
      <line x1="120" y1="786" x2="1100" y2="786" stroke="#f1f5f9" stroke-width="1"/>
      <line x1="114" y1="786" x2="120" y2="786" stroke="#000000" stroke-width="1.2"/>
      <text x="110" y="790" font-size="11" text-anchor="end" fill="#000000">150</text>
    
      <line x1="120" y1="739.3333333333334" x2="1100" y2="739.3333333333334" stroke="#f1f5f9" stroke-width="1"/>
      <line x1="114" y1="739.3333333333334" x2="120" y2="739.3333333333334" stroke="#000000" stroke-width="1.2"/>
      <text x="110" y="743.3333333333334" font-size="11" text-anchor="end" fill="#000000">200</text>
    
  <!-- Y Label -->
  <text x="65" y="800" font-size="12" text-anchor="middle" fill="#000000" transform="rotate(-90 65 800)">
    Heart Rate (BPM)
  </text>
  <!-- X Ticks -->
  
      <line x1="120" y1="730" x2="120" y2="870" stroke="#f1f5f9" stroke-width="1"/>
      <line x1="120" y1="870" x2="120" y2="876" stroke="#000000" stroke-width="1.2"/>
      <text x="120" y="888" font-size="11" text-anchor="middle" fill="#000000">0</text>
    
      <line x1="316" y1="730" x2="316" y2="870" stroke="#f1f5f9" stroke-width="1"/>
      <line x1="316" y1="870" x2="316" y2="876" stroke="#000000" stroke-width="1.2"/>
      <text x="316" y="888" font-size="11" text-anchor="middle" fill="#000000">10</text>
    
      <line x1="512" y1="730" x2="512" y2="870" stroke="#f1f5f9" stroke-width="1"/>
      <line x1="512" y1="870" x2="512" y2="876" stroke="#000000" stroke-width="1.2"/>
      <text x="512" y="888" font-size="11" text-anchor="middle" fill="#000000">20</text>
    
      <line x1="708" y1="730" x2="708" y2="870" stroke="#f1f5f9" stroke-width="1"/>
      <line x1="708" y1="870" x2="708" y2="876" stroke="#000000" stroke-width="1.2"/>
      <text x="708" y="888" font-size="11" text-anchor="middle" fill="#000000">30</text>
    
      <line x1="904" y1="730" x2="904" y2="870" stroke="#f1f5f9" stroke-width="1"/>
      <line x1="904" y1="870" x2="904" y2="876" stroke="#000000" stroke-width="1.2"/>
      <text x="904" y="888" font-size="11" text-anchor="middle" fill="#000000">40</text>
    
      <line x1="1100" y1="730" x2="1100" y2="870" stroke="#f1f5f9" stroke-width="1"/>
      <line x1="1100" y1="870" x2="1100" y2="876" stroke="#000000" stroke-width="1.2"/>
      <text x="1100" y="888" font-size="11" text-anchor="middle" fill="#000000">50</text>
    
  <!-- X Label -->
  <text x="610" y="904" font-size="12" text-anchor="middle" fill="#000000">
    Time (seconds)
  </text>
  <!-- Traces -->
  <polyline fill="none" stroke="#e11d48" stroke-width="1.8" points="155.9,773.3 211.5,827.2 244.1,758.0 309.5,842.0 361.7,821.0 " />
  <circle cx="155.9" cy="773.3" r="3.5" fill="#e11d48"/><circle cx="211.5" cy="827.2" r="3.5" fill="#e11d48"/><circle cx="244.1" cy="758.0" r="3.5" fill="#e11d48"/><circle cx="309.5" cy="842.0" r="3.5" fill="#e11d48"/><circle cx="361.7" cy="821.0" r="3.5" fill="#e11d48"/>
  <line x1="120" y1="821" x2="1100" y2="821" stroke="#000000" stroke-width="1.8" stroke-dasharray="2,3"/>
  <!-- Legend -->
  <g transform="translate(865, 742)">
    <line x1="0" y1="6" x2="25" y2="6" stroke="#e11d48" stroke-width="2"/>
    <circle cx="12" cy="6" r="3.5" fill="#e11d48"/>
    <text x="32" y="10" font-size="11" fill="#000000">Instantaneous BPM</text>
    <line x1="0" y1="24" x2="25" y2="24" stroke="#000000" stroke-width="2" stroke-dasharray="2,3"/>
    <text x="32" y="28" font-size="11" fill="#000000">Median BPM (112.5 BPM)</text>
  </g>
</svg>