<svg width="1200" height="960" viewBox="0 0 1200 960" xmlns="http://www.w3.org/2000/svg" style="background:#ffffff; font-family: -apple-system, BlinkMacSystemFont, 'Segoe UI', Roboto, Helvetica, Arial, sans-serif;">

  <!-- ========================================================================= -->
  <!-- SUBPLOT 1: Raw Color Intensity over Time (Skin ROI)                       -->
  <!-- ========================================================================= -->
  <!-- Title -->
  <text x="610" y="42" font-size="14" font-weight="bold" text-anchor="middle" fill="#000000">
    1. Raw Color Intensity over Time (Skin ROI)
  </text>
  <!-- Box -->
  <rect x="120" y="55" width="980" height="140" fill="#ffffff" stroke="#000000" stroke-width="1.2"/>
  <!-- Grid Lines -->
  <line x1="120" y1="164.56521739130434" x2="1100" y2="164.56521739130434" stroke="#f1f5f9" stroke-width="1"/>
  <line x1="120" y1="134.1304347826087" x2="1100" y2="134.1304347826087" stroke="#f1f5f9" stroke-width="1"/>
  <line x1="120" y1="103.69565217391305" x2="1100" y2="103.69565217391305" stroke="#f1f5f9" stroke-width="1"/>
  <line x1="120" y1="73.26086956521739" x2="1100" y2="73.26086956521739" stroke="#f1f5f9" stroke-width="1"/>
  <!-- Y Ticks -->
  <line x1="114" y1="164.56521739130434" x2="120" y2="164.56521739130434" stroke="#000000" stroke-width="1.2"/>
  <text x="110" y="168.56521739130434" font-size="11" text-anchor="end" fill="#000000">50</text>
  <line x1="114" y1="134.1304347826087" x2="120" y2="134.1304347826087" stroke="#000000" stroke-width="1.2"/>
  <text x="110" y="138.1304347826087" font-size="11" text-anchor="end" fill="#000000">100</text>
  <line x1="114" y1="103.69565217391305" x2="120" y2="103.69565217391305" stroke="#000000" stroke-width="1.2"/>
  <text x="110" y="107.69565217391305" font-size="11" text-anchor="end" fill="#000000">150</text>
  <line x1="114" y1="73.26086956521739" x2="120" y2="73.26086956521739" stroke="#000000" stroke-width="1.2"/>
  <text x="110" y="77.26086956521739" font-size="11" text-anchor="end" fill="#000000">200</text>
  <!-- Y Label -->
  <text x="65" y="125" font-size="12" text-anchor="middle" fill="#000000" transform="rotate(-90 65 125)">
    Mean Intensity
  </text>
  <!-- X Ticks -->
  
      <line x1="120" y1="55" x2="120" y2="195" stroke="#f1f5f9" stroke-width="1"/>
      <line x1="120" y1="195" x2="120" y2="201" stroke="#000000" stroke-width="1.2"/>
      <text x="120" y="213" font-size="11" text-anchor="middle" fill="#000000">0</text>
    
      <line x1="283.3333333333333" y1="55" x2="283.3333333333333" y2="195" stroke="#f1f5f9" stroke-width="1"/>
      <line x1="283.3333333333333" y1="195" x2="283.3333333333333" y2="201" stroke="#000000" stroke-width="1.2"/>
      <text x="283.3333333333333" y="213" font-size="11" text-anchor="middle" fill="#000000">5</text>
    
      <line x1="446.66666666666663" y1="55" x2="446.66666666666663" y2="195" stroke="#f1f5f9" stroke-width="1"/>
      <line x1="446.66666666666663" y1="195" x2="446.66666666666663" y2="201" stroke="#000000" stroke-width="1.2"/>
      <text x="446.66666666666663" y="213" font-size="11" text-anchor="middle" fill="#000000">10</text>
    
      <line x1="610" y1="55" x2="610" y2="195" stroke="#f1f5f9" stroke-width="1"/>
      <line x1="610" y1="195" x2="610" y2="201" stroke="#000000" stroke-width="1.2"/>
      <text x="610" y="213" font-size="11" text-anchor="middle" fill="#000000">15</text>
    
      <line x1="773.3333333333333" y1="55" x2="773.3333333333333" y2="195" stroke="#f1f5f9" stroke-width="1"/>
      <line x1="773.3333333333333" y1="195" x2="773.3333333333333" y2="201" stroke="#000000" stroke-width="1.2"/>
      <text x="773.3333333333333" y="213" font-size="11" text-anchor="middle" fill="#000000">20</text>
    
      <line x1="936.6666666666667" y1="55" x2="936.6666666666667" y2="195" stroke="#f1f5f9" stroke-width="1"/>
      <line x1="936.6666666666667" y1="195" x2="936.6666666666667" y2="201" stroke="#000000" stroke-width="1.2"/>
      <text x="936.6666666666667" y="213" font-size="11" text-anchor="middle" fill="#000000">25</text>
    
      <line x1="1100" y1="55" x2="1100" y2="195" stroke="#f1f5f9" stroke-width="1"/>
      <line x1="1100" y1="195" x2="1100" y2="201" stroke="#000000" stroke-width="1.2"/>
      <text x="1100" y="213" font-size="11" text-anchor="middle" fill="#000000">30</text>
    
  <!-- X Label -->
  <text x="610" y="229" font-size="12" text-anchor="middle" fill="#000000">
    Time (seconds)
  </text>
  <!-- Traces -->
  <polyline fill="none" stroke="#e11d48" stroke-width="1.6" points="120.0,57.4 130.7,57.3 141.3,57.4 152.0,57.3 162.6,57.4 173.3,59.8 183.9,57.3 194.6,57.3 205.2,57.2 215.9,60.2 226.5,57.3 237.2,57.3 247.8,57.4 258.5,57.3 269.1,57.3 279.8,57.3 290.4,57.3 301.1,57.3 311.7,57.3 322.4,57.4 333.0,57.4 343.7,57.4 354.3,59.5 365.0,57.4 375.7,57.4 386.3,57.5 397.0,57.5 407.6,57.5 418.3,57.4 428.9,57.5 439.6,57.4 450.2,57.5 460.9,57.5 471.5,60.4 482.2,57.3 492.8,57.4 503.5,57.4 514.1,57.5 524.8,57.5 535.4,57.5 546.1,57.4 556.7,57.5 567.4,57.5 578.0,59.5 588.7,57.4 599.3,57.5 610.0,57.5 620.7,57.5 631.3,57.5 642.0,57.4 652.6,59.5 663.3,57.4 673.9,57.4 684.6,57.5 695.2,57.4 705.9,57.3 716.5,54.2 727.2,57.5 737.8,57.5 748.5,57.5 759.1,57.6 769.8,60.1 780.4,57.6 791.1,57.5 801.7,57.7 812.4,57.7 823.0,56.4 833.7,57.6 844.3,58.7 855.0,57.5 865.7,57.5 876.3,57.5 887.0,58.3 897.6,60.4 908.3,57.5 918.9,57.5 929.6,59.6 940.2,57.4 950.9,57.4 961.5,57.3 972.2,57.4 982.8,57.4 993.5,57.4 1004.1,57.4 1014.8,56.2 1025.4,57.4 1036.1,54.1 1046.7,57.4 1057.4,57.5 1068.0,57.5 1078.7,57.5 1089.3,57.5 1100.0,57.6 " />
  <polyline fill="none" stroke="#16a34a" stroke-width="1.6" points="120.0,170.8 130.7,170.9 141.3,170.8 152.0,170.9 162.6,170.8 173.3,171.9 183.9,170.8 194.6,170.9 205.2,170.9 215.9,172.1 226.5,170.9 237.2,170.9 247.8,170.8 258.5,170.9 269.1,170.8 279.8,170.8 290.4,170.8 301.1,170.8 311.7,170.8 322.4,170.8 333.0,170.9 343.7,170.9 354.3,171.8 365.0,170.8 375.7,170.9 386.3,170.9 397.0,170.9 407.6,170.9 418.3,171.0 428.9,170.9 439.6,170.9 450.2,170.9 460.9,170.9 471.5,172.2 482.2,171.0 492.8,170.9 503.5,170.9 514.1,170.9 524.8,170.9 535.4,170.9 546.1,170.9 556.7,170.9 567.4,170.9 578.0,171.7 588.7,170.9 599.3,170.9 610.0,170.9 620.7,170.9 631.3,170.9 642.0,170.9 652.6,171.7 663.3,170.9 673.9,170.9 684.6,170.9 695.2,170.8 705.9,170.9 716.5,169.4 727.2,170.9 737.8,170.9 748.5,171.0 759.1,170.9 769.8,172.0 780.4,171.0 791.1,171.0 801.7,170.9 812.4,171.0 823.0,170.6 833.7,171.0 844.3,171.2 855.0,170.9 865.7,170.9 876.3,171.0 887.0,171.4 897.6,172.2 908.3,170.9 918.9,170.9 929.6,171.8 940.2,171.0 950.9,170.9 961.5,171.0 972.2,170.9 982.8,170.9 993.5,170.9 1004.1,170.9 1014.8,170.5 1025.4,170.9 1036.1,169.4 1046.7,170.9 1057.4,170.9 1068.0,170.9 1078.7,170.9 1089.3,171.0 1100.0,171.0 " />
  <polyline fill="none" stroke="#2563eb" stroke-width="1.6" points="120.0,171.8 130.7,171.8 141.3,171.6 152.0,171.9 162.6,171.5 173.3,172.8 183.9,171.8 194.6,172.2 205.2,172.0 215.9,173.6 226.5,171.8 237.2,171.8 247.8,171.7 258.5,172.2 269.1,171.8 279.8,171.8 290.4,171.8 301.1,171.8 311.7,171.7 322.4,171.8 333.0,171.7 343.7,171.6 354.3,173.0 365.0,171.6 375.7,171.9 386.3,171.6 397.0,171.8 407.6,171.8 418.3,172.1 428.9,171.6 439.6,171.8 450.2,171.8 460.9,171.7 471.5,173.5 482.2,172.2 492.8,171.8 503.5,171.9 514.1,171.7 524.8,171.9 535.4,171.7 546.1,171.8 556.7,171.9 567.4,171.9 578.0,173.0 588.7,171.8 599.3,172.1 610.0,171.9 620.7,171.8 631.3,171.9 642.0,171.9 652.6,173.1 663.3,171.9 673.9,171.9 684.6,171.9 695.2,172.0 705.9,172.0 716.5,170.9 727.2,171.9 737.8,172.0 748.5,172.4 759.1,171.7 769.8,172.8 780.4,172.1 791.1,172.2 801.7,171.8 812.4,171.9 823.0,171.8 833.7,172.1 844.3,172.1 855.0,171.9 865.7,171.7 876.3,172.3 887.0,173.0 897.6,173.4 908.3,171.9 918.9,171.9 929.6,172.9 940.2,172.1 950.9,171.9 961.5,172.4 972.2,171.8 982.8,171.7 993.5,172.1 1004.1,171.9 1014.8,172.0 1025.4,171.6 1036.1,170.6 1046.7,172.0 1057.4,171.9 1068.0,171.7 1078.7,172.0 1089.3,172.1 1100.0,171.8 " />
  <!-- Legend -->
  <g transform="translate(880, 67)">
    <line x1="0" y1="6" x2="25" y2="6" stroke="#e11d48" stroke-width="2"/>
    <text x="32" y="10" font-size="11" fill="#000000">Red Channel</text>
    <line x1="0" y1="24" x2="25" y2="24" stroke="#16a34a" stroke-width="2"/>
    <text x="32" y="28" font-size="11" fill="#000000">Green Channel (PPG primary)</text>
    <line x1="0" y1="42" x2="25" y2="42" stroke="#2563eb" stroke-width="2"/>
    <text x="32" y="46" font-size="11" fill="#000000">Blue Channel</text>
  </g>

  <!-- ========================================================================= -->
  <!-- SUBPLOT 2: Photoplethysmography (PPG) Pulse Waveform                      -->
  <!-- ========================================================================= -->
  <!-- Title -->
  <text x="610" y="266" font-size="14" font-weight="bold" text-anchor="middle" fill="#000000">
    2. Photoplethysmography (PPG) Pulse Waveform | Est. Heart Rate: 130.1 BPM
  </text>
  <!-- Box -->
  <rect x="120" y="280" width="980" height="140" fill="#ffffff" stroke="#000000" stroke-width="1.2"/>
  <!-- Y Ticks -->
  
      <line x1="120" y1="349.73833878134775" x2="1100" y2="349.73833878134775" stroke="#f1f5f9" stroke-width="1"/>
      <line x1="114" y1="349.73833878134775" x2="120" y2="349.73833878134775" stroke="#000000" stroke-width="1.2"/>
      <text x="110" y="353.73833878134775" font-size="11" text-anchor="end" fill="#000000">0</text>
    
  <!-- Y Label -->
  <text x="65" y="350" font-size="12" text-anchor="middle" fill="#000000" transform="rotate(-90 65 350)">
    Normalized Amplitude
  </text>
  <!-- X Ticks -->
  
      <line x1="120" y1="280" x2="120" y2="420" stroke="#f1f5f9" stroke-width="1"/>
      <line x1="120" y1="420" x2="120" y2="426" stroke="#000000" stroke-width="1.2"/>
      <text x="120" y="438" font-size="11" text-anchor="middle" fill="#000000">0</text>
    
      <line x1="283.3333333333333" y1="280" x2="283.3333333333333" y2="420" stroke="#f1f5f9" stroke-width="1"/>
      <line x1="283.3333333333333" y1="420" x2="283.3333333333333" y2="426" stroke="#000000" stroke-width="1.2"/>
      <text x="283.3333333333333" y="438" font-size="11" text-anchor="middle" fill="#000000">10</text>
    
      <line x1="446.66666666666663" y1="280" x2="446.66666666666663" y2="420" stroke="#f1f5f9" stroke-width="1"/>
      <line x1="446.66666666666663" y1="420" x2="446.66666666666663" y2="426" stroke="#000000" stroke-width="1.2"/>
      <text x="446.66666666666663" y="438" font-size="11" text-anchor="middle" fill="#000000">20</text>
    
      <line x1="610" y1="280" x2="610" y2="420" stroke="#f1f5f9" stroke-width="1"/>
      <line x1="610" y1="420" x2="610" y2="426" stroke="#000000" stroke-width="1.2"/>
      <text x="610" y="438" font-size="11" text-anchor="middle" fill="#000000">30</text>
    
      <line x1="773.3333333333333" y1="280" x2="773.3333333333333" y2="420" stroke="#f1f5f9" stroke-width="1"/>
      <line x1="773.3333333333333" y1="420" x2="773.3333333333333" y2="426" stroke="#000000" stroke-width="1.2"/>
      <text x="773.3333333333333" y="438" font-size="11" text-anchor="middle" fill="#000000">40</text>
    
      <line x1="936.6666666666667" y1="280" x2="936.6666666666667" y2="420" stroke="#f1f5f9" stroke-width="1"/>
      <line x1="936.6666666666667" y1="420" x2="936.6666666666667" y2="426" stroke="#000000" stroke-width="1.2"/>
      <text x="936.6666666666667" y="438" font-size="11" text-anchor="middle" fill="#000000">50</text>
    
      <line x1="1100" y1="280" x2="1100" y2="420" stroke="#f1f5f9" stroke-width="1"/>
      <line x1="1100" y1="420" x2="1100" y2="426" stroke="#000000" stroke-width="1.2"/>
      <text x="1100" y="438" font-size="11" text-anchor="middle" fill="#000000">60</text>
    
  <!-- X Label -->
  <text x="610" y="454" font-size="12" text-anchor="middle" fill="#000000">
    Time (seconds)
  </text>
  <!-- Traces -->
  <polyline fill="none" stroke="#0284c7" stroke-width="1.8" points="120.0,349.7 130.7,349.7 141.3,349.6 152.0,349.6 162.6,349.6 173.3,349.7 183.9,350.0 194.6,350.3 205.2,350.3 215.9,350.3 226.5,350.2 237.2,349.9 247.8,349.5 258.5,348.9 269.1,348.4 279.8,348.1 290.4,348.2 301.1,348.7 311.7,349.5 322.4,350.5 333.0,351.4 343.7,352.1 354.3,352.4 365.0,352.3 375.7,351.7 386.3,350.5 397.0,349.0 407.6,347.5 418.3,346.3 428.9,345.7 439.6,346.0 450.2,347.0 460.9,348.7 471.5,350.8 482.2,352.9 492.8,354.5 503.5,355.0 514.1,354.4 524.8,352.6 535.4,350.2 546.1,347.6 556.7,345.4 567.4,344.1 578.0,344.0 588.7,345.3 599.3,347.6 610.0,350.3 620.7,352.8 631.3,354.6 642.0,355.4 652.6,355.0 663.3,353.7 673.9,351.6 684.6,349.1 695.2,346.7 705.9,344.8 716.5,343.9 727.2,343.9 737.8,345.1 748.5,347.4 759.1,350.4 769.8,353.5 780.4,356.1 791.1,357.5 801.7,357.2 812.4,355.2 823.0,351.9 833.7,347.9 844.3,344.1 855.0,341.5 865.7,340.6 876.3,341.6 887.0,344.4 897.6,348.5 908.3,353.1 918.9,357.0 929.6,359.3 940.2,359.6 950.9,357.8 961.5,354.1 972.2,349.4 982.8,344.7 993.5,341.0 1004.1,339.3 1014.8,339.7 1025.4,342.2 1036.1,346.3 1046.7,350.9 1057.4,355.4 1068.0,358.9 1078.7,360.7 1089.3,360.4 1100.0,358.1 " />
  <circle cx="279.8" cy="348.1" r="4" fill="#e11d48" stroke="#ffffff" stroke-width="1.2"/><circle cx="428.9" cy="345.7" r="4" fill="#e11d48" stroke="#ffffff" stroke-width="1.2"/><circle cx="578.0" cy="344.0" r="4" fill="#e11d48" stroke="#ffffff" stroke-width="1.2"/><circle cx="716.5" cy="343.9" r="4" fill="#e11d48" stroke="#ffffff" stroke-width="1.2"/><circle cx="865.7" cy="340.6" r="4" fill="#e11d48" stroke="#ffffff" stroke-width="1.2"/><circle cx="1004.1" cy="339.3" r="4" fill="#e11d48" stroke="#ffffff" stroke-width="1.2"/>
  <!-- Legend -->
  <g transform="translate(825, 292)">
    <line x1="0" y1="6" x2="25" y2="6" stroke="#0284c7" stroke-width="2"/>
    <text x="32" y="10" font-size="11" fill="#000000">Filtered rPPG Waveform (0.75 - 3.5 Hz)</text>
    <circle cx="12" cy="24" r="4" fill="#e11d48"/>
    <text x="32" y="28" font-size="11" fill="#000000">Detected Systolic Peaks (N=6)</text>
  </g>

  <!-- ========================================================================= -->
  <!-- SUBPLOT 3: Frequency Spectrum & Heart Rate Peak                           -->
  <!-- ========================================================================= -->
  <!-- Title -->
  <text x="610" y="491" font-size="14" font-weight="bold" text-anchor="middle" fill="#000000">
    3. Frequency Spectrum &amp; Heart Rate Peak
  </text>
  <!-- Box -->
  <rect x="120" y="505" width="980" height="140" fill="#ffffff" stroke="#000000" stroke-width="1.2"/>
  <!-- Y Ticks -->
  
      <line x1="120" y1="645" x2="1100" y2="645" stroke="#f1f5f9" stroke-width="1"/>
      <line x1="114" y1="645" x2="120" y2="645" stroke="#000000" stroke-width="1.2"/>
      <text x="110" y="649" font-size="11" text-anchor="end" fill="#000000">0.0</text>
    
      <line x1="120" y1="-1133585.4879182312" x2="1100" y2="-1133585.4879182312" stroke="#f1f5f9" stroke-width="1"/>
      <line x1="114" y1="-1133585.4879182312" x2="120" y2="-1133585.4879182312" stroke="#000000" stroke-width="1.2"/>
      <text x="110" y="-1133581.4879182312" font-size="11" text-anchor="end" fill="#000000">0.2</text>
    
      <line x1="120" y1="-2267815.9758364623" x2="1100" y2="-2267815.9758364623" stroke="#f1f5f9" stroke-width="1"/>
      <line x1="114" y1="-2267815.9758364623" x2="120" y2="-2267815.9758364623" stroke="#000000" stroke-width="1.2"/>
      <text x="110" y="-2267811.9758364623" font-size="11" text-anchor="end" fill="#000000">0.4</text>
    
      <line x1="120" y1="-3402046.4637546935" x2="1100" y2="-3402046.4637546935" stroke="#f1f5f9" stroke-width="1"/>
      <line x1="114" y1="-3402046.4637546935" x2="120" y2="-3402046.4637546935" stroke="#000000" stroke-width="1.2"/>
      <text x="110" y="-3402042.4637546935" font-size="11" text-anchor="end" fill="#000000">0.6</text>
    
  <!-- Y Label -->
  <text x="65" y="575" font-size="12" text-anchor="middle" fill="#000000" transform="rotate(-90 65 575)">
    Power Spectral Density
  </text>
  <!-- X Ticks (BPM) -->
  
      <line x1="172.97297297297297" y1="505" x2="172.97297297297297" y2="645" stroke="#f1f5f9" stroke-width="1"/>
      <line x1="172.97297297297297" y1="645" x2="172.97297297297297" y2="651" stroke="#000000" stroke-width="1.2"/>
      <text x="172.97297297297297" y="663" font-size="11" text-anchor="middle" fill="#000000">50</text>
    
      <line x1="305.4054054054054" y1="505" x2="305.4054054054054" y2="645" stroke="#f1f5f9" stroke-width="1"/>
      <line x1="305.4054054054054" y1="645" x2="305.4054054054054" y2="651" stroke="#000000" stroke-width="1.2"/>
      <text x="305.4054054054054" y="663" font-size="11" text-anchor="middle" fill="#000000">75</text>
    
      <line x1="437.83783783783787" y1="505" x2="437.83783783783787" y2="645" stroke="#f1f5f9" stroke-width="1"/>
      <line x1="437.83783783783787" y1="645" x2="437.83783783783787" y2="651" stroke="#000000" stroke-width="1.2"/>
      <text x="437.83783783783787" y="663" font-size="11" text-anchor="middle" fill="#000000">100</text>
    
      <line x1="570.2702702702703" y1="505" x2="570.2702702702703" y2="645" stroke="#f1f5f9" stroke-width="1"/>
      <line x1="570.2702702702703" y1="645" x2="570.2702702702703" y2="651" stroke="#000000" stroke-width="1.2"/>
      <text x="570.2702702702703" y="663" font-size="11" text-anchor="middle" fill="#000000">125</text>
    
      <line x1="702.7027027027027" y1="505" x2="702.7027027027027" y2="645" stroke="#f1f5f9" stroke-width="1"/>
      <line x1="702.7027027027027" y1="645" x2="702.7027027027027" y2="651" stroke="#000000" stroke-width="1.2"/>
      <text x="702.7027027027027" y="663" font-size="11" text-anchor="middle" fill="#000000">150</text>
    
      <line x1="835.1351351351351" y1="505" x2="835.1351351351351" y2="645" stroke="#f1f5f9" stroke-width="1"/>
      <line x1="835.1351351351351" y1="645" x2="835.1351351351351" y2="651" stroke="#000000" stroke-width="1.2"/>
      <text x="835.1351351351351" y="663" font-size="11" text-anchor="middle" fill="#000000">175</text>
    
      <line x1="967.5675675675676" y1="505" x2="967.5675675675676" y2="645" stroke="#f1f5f9" stroke-width="1"/>
      <line x1="967.5675675675676" y1="645" x2="967.5675675675676" y2="651" stroke="#000000" stroke-width="1.2"/>
      <text x="967.5675675675676" y="663" font-size="11" text-anchor="middle" fill="#000000">200</text>
    
      <line x1="1100" y1="505" x2="1100" y2="645" stroke="#f1f5f9" stroke-width="1"/>
      <line x1="1100" y1="645" x2="1100" y2="651" stroke="#000000" stroke-width="1.2"/>
      <text x="1100" y="663" font-size="11" text-anchor="middle" fill="#000000">225</text>
    
  <!-- X Label -->
  <text x="610" y="679" font-size="12" text-anchor="middle" fill="#000000">
    Heart Rate (BPM)
  </text>
  <!-- Traces -->
  <polyline fill="none" stroke="#9333ea" stroke-width="2.2" points="131.6,645.0 150.2,645.0 168.8,645.0 187.5,645.0 206.1,645.0 224.7,645.0 243.3,645.0 262.0,645.0 280.6,644.9 299.2,644.9 317.8,644.7 336.4,644.6 355.1,644.6 373.7,644.8 392.3,645.0 410.9,644.9 429.6,643.7 448.2,640.6 466.8,634.1 485.4,623.3 504.1,608.0 522.7,588.8 541.3,567.7 559.9,547.6 578.5,531.9 597.2,523.3 615.8,523.5 634.4,532.4 653.0,548.4 671.7,568.7 690.3,589.8 708.9,609.0 727.5,624.4 746.2,635.0 764.8,641.3 783.4,644.2 802.0,645.0 820.7,644.7 839.3,644.1 857.9,643.6 876.5,643.4 895.1,643.4 913.8,643.6 932.4,643.9 951.0,644.2 969.6,644.4 988.3,644.6 1006.9,644.7 1025.5,644.8 1044.1,644.9 1062.8,644.9 1081.4,644.9 1100.0,645.0 " />
  <line x1="597.2864864864864" y1="645" x2="597.2864864864864" y2="523.2608695652174" stroke="#e11d48" stroke-width="2" stroke-dasharray="5,4"/>
  <!-- Legend -->
  <g transform="translate(865, 517)">
    <line x1="0" y1="6" x2="25" y2="6" stroke="#9333ea" stroke-width="2"/>
    <text x="32" y="10" font-size="11" fill="#000000">PSD (Welch)</text>
    <line x1="0" y1="24" x2="25" y2="24" stroke="#e11d48" stroke-width="2" stroke-dasharray="5,4"/>
    <text x="32" y="28" font-size="11" fill="#000000">Dominant Peak (130.1 BPM)</text>
  </g>

  <!-- ========================================================================= -->
  <!-- SUBPLOT 4: Heart Rate Variations | HRV (SDNN)                             -->
  <!-- ========================================================================= -->
  <!-- Title -->
  <text x="610" y="716" font-size="14" font-weight="bold" text-anchor="middle" fill="#000000">
    4. Heart Rate Variations | HRV (SDNN): 26.7 ms
  </text>
  <!-- Box -->
  <rect x="120" y="730" width="980" height="140" fill="#ffffff" stroke="#000000" stroke-width="1.2"/>
  <!-- Y Ticks -->
  
      <line x1="120" y1="832.6666666666666" x2="1100" y2="832.6666666666666" stroke="#f1f5f9" stroke-width="1"/>
      <line x1="114" y1="832.6666666666666" x2="120" y2="832.6666666666666" stroke="#000000" stroke-width="1.2"/>
      <text x="110" y="836.6666666666666" font-size="11" text-anchor="end" fill="#000000">100</text>
    
      <line x1="120" y1="786" x2="1100" y2="786" stroke="#f1f5f9" stroke-width="1"/>
      <line x1="114" y1="786" x2="120" y2="786" stroke="#000000" stroke-width="1.2"/>
      <text x="110" y="790" font-size="11" text-anchor="end" fill="#000000">150</text>
    
      <line x1="120" y1="739.3333333333334" x2="1100" y2="739.3333333333334" stroke="#f1f5f9" stroke-width="1"/>
      <line x1="114" y1="739.3333333333334" x2="120" y2="739.3333333333334" stroke="#000000" stroke-width="1.2"/>
      <text x="110" y="743.3333333333334" font-size="11" text-anchor="end" fill="#000000">200</text>
    
  <!-- Y Label -->
  <text x="65" y="800" font-size="12" text-anchor="middle" fill="#000000" transform="rotate(-90 65 800)">
    Heart Rate (BPM)
  </text>
  <!-- X Ticks -->
  
      <line x1="120" y1="730" x2="120" y2="870" stroke="#f1f5f9" stroke-width="1"/>
      <line x1="120" y1="870" x2="120" y2="876" stroke="#000000" stroke-width="1.2"/>
      <text x="120" y="888" font-size="11" text-anchor="middle" fill="#000000">0</text>
    
      <line x1="316" y1="730" x2="316" y2="870" stroke="#f1f5f9" stroke-width="1"/>
      <line x1="316" y1="870" x2="316" y2="876" stroke="#000000" stroke-width="1.2"/>
      <text x="316" y="888" font-size="11" text-anchor="middle" fill="#000000">10</text>
    
      <line x1="512" y1="730" x2="512" y2="870" stroke="#f1f5f9" stroke-width="1"/>
      <line x1="512" y1="870" x2="512" y2="876" stroke="#000000" stroke-width="1.2"/>
      <text x="512" y="888" font-size="11" text-anchor="middle" fill="#000000">20</text>
    
      <line x1="708" y1="730" x2="708" y2="870" stroke="#f1f5f9" stroke-width="1"/>
      <line x1="708" y1="870" x2="708" y2="876" stroke="#000000" stroke-width="1.2"/>
      <text x="708" y="888" font-size="11" text-anchor="middle" fill="#000000">30</text>
    
      <line x1="904" y1="730" x2="904" y2="870" stroke="#f1f5f9" stroke-width="1"/>
      <line x1="904" y1="870" x2="904" y2="876" stroke="#000000" stroke-width="1.2"/>
      <text x="904" y="888" font-size="11" text-anchor="middle" fill="#000000">40</text>
    
      <line x1="1100" y1="730" x2="1100" y2="870" stroke="#f1f5f9" stroke-width="1"/>
      <line x1="1100" y1="870" x2="1100" y2="876" stroke="#000000" stroke-width="1.2"/>
      <text x="1100" y="888" font-size="11" text-anchor="middle" fill="#000000">50</text>
    
  <!-- X Label -->
  <text x="610" y="904" font-size="12" text-anchor="middle" fill="#000000">
    Time (seconds)
  </text>
  <!-- Traces -->
  <polyline fill="none" stroke="#e11d48" stroke-width="1.8" points="165.7,806.0 208.2,796.8 250.7,796.8 299.7,814.0 342.1,796.8 " />
  <circle cx="165.7" cy="806.0" r="3.5" fill="#e11d48"/><circle cx="208.2" cy="796.8" r="3.5" fill="#e11d48"/><circle cx="250.7" cy="796.8" r="3.5" fill="#e11d48"/><circle cx="299.7" cy="814.0" r="3.5" fill="#e11d48"/><circle cx="342.1" cy="796.8" r="3.5" fill="#e11d48"/>
  <line x1="120" y1="796.7333333333333" x2="1100" y2="796.7333333333333" stroke="#000000" stroke-width="1.8" stroke-dasharray="2,3"/>
  <!-- Legend -->
  <g transform="translate(865, 742)">
    <line x1="0" y1="6" x2="25" y2="6" stroke="#e11d48" stroke-width="2"/>
    <circle cx="12" cy="6" r="3.5" fill="#e11d48"/>
    <text x="32" y="10" font-size="11" fill="#000000">Instantaneous BPM</text>
    <line x1="0" y1="24" x2="25" y2="24" stroke="#000000" stroke-width="2" stroke-dasharray="2,3"/>
    <text x="32" y="28" font-size="11" fill="#000000">Median BPM (138.5 BPM)</text>
  </g>
</svg>