<svg width="1200" height="960" viewBox="0 0 1200 960" xmlns="http://www.w3.org/2000/svg" style="background:#ffffff; font-family: -apple-system, BlinkMacSystemFont, 'Segoe UI', Roboto, Helvetica, Arial, sans-serif;">

  <!-- ========================================================================= -->
  <!-- SUBPLOT 1: Raw Color Intensity over Time (Skin ROI)                       -->
  <!-- ========================================================================= -->
  <!-- Title -->
  <text x="610" y="42" font-size="14" font-weight="bold" text-anchor="middle" fill="#000000">
    1. Raw Color Intensity over Time (Skin ROI)
  </text>
  <!-- Box -->
  <rect x="120" y="55" width="980" height="140" fill="#ffffff" stroke="#000000" stroke-width="1.2"/>
  <!-- Grid Lines -->
  <line x1="120" y1="164.56521739130434" x2="1100" y2="164.56521739130434" stroke="#f1f5f9" stroke-width="1"/>
  <line x1="120" y1="134.1304347826087" x2="1100" y2="134.1304347826087" stroke="#f1f5f9" stroke-width="1"/>
  <line x1="120" y1="103.69565217391305" x2="1100" y2="103.69565217391305" stroke="#f1f5f9" stroke-width="1"/>
  <line x1="120" y1="73.26086956521739" x2="1100" y2="73.26086956521739" stroke="#f1f5f9" stroke-width="1"/>
  <!-- Y Ticks -->
  <line x1="114" y1="164.56521739130434" x2="120" y2="164.56521739130434" stroke="#000000" stroke-width="1.2"/>
  <text x="110" y="168.56521739130434" font-size="11" text-anchor="end" fill="#000000">50</text>
  <line x1="114" y1="134.1304347826087" x2="120" y2="134.1304347826087" stroke="#000000" stroke-width="1.2"/>
  <text x="110" y="138.1304347826087" font-size="11" text-anchor="end" fill="#000000">100</text>
  <line x1="114" y1="103.69565217391305" x2="120" y2="103.69565217391305" stroke="#000000" stroke-width="1.2"/>
  <text x="110" y="107.69565217391305" font-size="11" text-anchor="end" fill="#000000">150</text>
  <line x1="114" y1="73.26086956521739" x2="120" y2="73.26086956521739" stroke="#000000" stroke-width="1.2"/>
  <text x="110" y="77.26086956521739" font-size="11" text-anchor="end" fill="#000000">200</text>
  <!-- Y Label -->
  <text x="65" y="125" font-size="12" text-anchor="middle" fill="#000000" transform="rotate(-90 65 125)">
    Mean Intensity
  </text>
  <!-- X Ticks -->
  
      <line x1="120" y1="55" x2="120" y2="195" stroke="#f1f5f9" stroke-width="1"/>
      <line x1="120" y1="195" x2="120" y2="201" stroke="#000000" stroke-width="1.2"/>
      <text x="120" y="213" font-size="11" text-anchor="middle" fill="#000000">0</text>
    
      <line x1="283.3333333333333" y1="55" x2="283.3333333333333" y2="195" stroke="#f1f5f9" stroke-width="1"/>
      <line x1="283.3333333333333" y1="195" x2="283.3333333333333" y2="201" stroke="#000000" stroke-width="1.2"/>
      <text x="283.3333333333333" y="213" font-size="11" text-anchor="middle" fill="#000000">5</text>
    
      <line x1="446.66666666666663" y1="55" x2="446.66666666666663" y2="195" stroke="#f1f5f9" stroke-width="1"/>
      <line x1="446.66666666666663" y1="195" x2="446.66666666666663" y2="201" stroke="#000000" stroke-width="1.2"/>
      <text x="446.66666666666663" y="213" font-size="11" text-anchor="middle" fill="#000000">10</text>
    
      <line x1="610" y1="55" x2="610" y2="195" stroke="#f1f5f9" stroke-width="1"/>
      <line x1="610" y1="195" x2="610" y2="201" stroke="#000000" stroke-width="1.2"/>
      <text x="610" y="213" font-size="11" text-anchor="middle" fill="#000000">15</text>
    
      <line x1="773.3333333333333" y1="55" x2="773.3333333333333" y2="195" stroke="#f1f5f9" stroke-width="1"/>
      <line x1="773.3333333333333" y1="195" x2="773.3333333333333" y2="201" stroke="#000000" stroke-width="1.2"/>
      <text x="773.3333333333333" y="213" font-size="11" text-anchor="middle" fill="#000000">20</text>
    
      <line x1="936.6666666666667" y1="55" x2="936.6666666666667" y2="195" stroke="#f1f5f9" stroke-width="1"/>
      <line x1="936.6666666666667" y1="195" x2="936.6666666666667" y2="201" stroke="#000000" stroke-width="1.2"/>
      <text x="936.6666666666667" y="213" font-size="11" text-anchor="middle" fill="#000000">25</text>
    
      <line x1="1100" y1="55" x2="1100" y2="195" stroke="#f1f5f9" stroke-width="1"/>
      <line x1="1100" y1="195" x2="1100" y2="201" stroke="#000000" stroke-width="1.2"/>
      <text x="1100" y="213" font-size="11" text-anchor="middle" fill="#000000">30</text>
    
  <!-- X Label -->
  <text x="610" y="229" font-size="12" text-anchor="middle" fill="#000000">
    Time (seconds)
  </text>
  <!-- Traces -->
  <polyline fill="none" stroke="#e11d48" stroke-width="1.6" points="120.0,108.3 130.8,108.3 141.5,108.3 152.3,108.4 163.1,108.4 173.8,108.4 184.6,108.4 195.4,108.4 206.2,108.4 216.9,108.4 227.7,108.5 238.5,108.5 249.2,108.5 260.0,108.6 270.8,108.6 281.5,108.6 292.3,108.7 303.1,108.7 313.8,108.7 324.6,108.6 335.4,108.6 346.2,108.6 356.9,108.6 367.7,108.6 378.5,108.6 389.2,108.6 400.0,108.6 410.8,108.6 421.5,108.6 432.3,108.5 443.1,108.5 453.8,108.5 464.6,108.5 475.4,108.5 486.2,108.5 496.9,108.5 507.7,108.4 518.5,108.4 529.2,108.4 540.0,108.4 550.8,108.4 561.5,108.4 572.3,108.4 583.1,108.4 593.8,108.4 604.6,108.4 615.4,108.4 626.2,108.4 636.9,108.5 647.7,108.5 658.5,106.2 669.2,106.2 680.0,108.5 690.8,108.5 701.5,108.6 712.3,108.6 723.1,108.6 733.8,108.6 744.6,108.6 755.4,108.6 766.2,108.6 776.9,108.6 787.7,108.6 798.5,108.6 809.2,108.6 820.0,108.5 830.8,108.5 841.5,108.5 852.3,108.6 863.1,108.6 873.8,108.6 884.6,107.9 895.4,107.9 906.2,107.9 916.9,108.6 927.7,108.6 938.5,108.4 949.2,108.4 960.0,107.9 970.8,107.9 981.5,110.0 992.3,110.0 1003.1,110.0 1013.8,110.0 1024.6,110.0 1035.4,110.0 1046.2,110.0 1056.9,110.0 1067.7,110.0 1078.5,110.0 1089.2,109.9 1100.0,109.9 " />
  <polyline fill="none" stroke="#16a34a" stroke-width="1.6" points="120.0,183.6 130.8,183.6 141.5,183.6 152.3,183.6 163.1,183.6 173.8,183.6 184.6,183.6 195.4,183.7 206.2,183.7 216.9,183.7 227.7,183.7 238.5,183.7 249.2,183.7 260.0,183.7 270.8,183.7 281.5,183.7 292.3,183.7 303.1,183.7 313.8,183.7 324.6,183.7 335.4,183.7 346.2,183.8 356.9,183.8 367.7,183.8 378.5,183.8 389.2,183.8 400.0,183.8 410.8,183.8 421.5,183.8 432.3,183.8 443.1,183.8 453.8,183.8 464.6,183.8 475.4,183.8 486.2,183.8 496.9,183.8 507.7,183.9 518.5,183.9 529.2,183.9 540.0,183.9 550.8,183.9 561.5,183.9 572.3,183.9 583.1,183.9 593.8,183.8 604.6,183.8 615.4,183.9 626.2,183.9 636.9,183.8 647.7,183.8 658.5,183.4 669.2,183.4 680.0,183.8 690.8,183.8 701.5,183.8 712.3,183.8 723.1,183.8 733.8,183.8 744.6,183.8 755.4,183.8 766.2,183.8 776.9,183.8 787.7,183.8 798.5,183.8 809.2,183.8 820.0,183.8 830.8,183.8 841.5,183.8 852.3,183.8 863.1,183.8 873.8,183.8 884.6,183.7 895.4,183.7 906.2,183.7 916.9,183.8 927.7,183.8 938.5,183.8 949.2,183.8 960.0,183.7 970.8,183.7 981.5,184.1 992.3,184.1 1003.1,184.2 1013.8,184.2 1024.6,184.2 1035.4,184.2 1046.2,184.2 1056.9,184.2 1067.7,184.2 1078.5,184.2 1089.2,184.2 1100.0,184.2 " />
  <polyline fill="none" stroke="#2563eb" stroke-width="1.6" points="120.0,180.6 130.8,180.6 141.5,180.6 152.3,180.7 163.1,180.7 173.8,180.7 184.6,180.7 195.4,180.7 206.2,180.7 216.9,180.7 227.7,180.7 238.5,180.7 249.2,180.7 260.0,180.8 270.8,180.8 281.5,180.8 292.3,180.8 303.1,180.8 313.8,180.8 324.6,180.8 335.4,180.8 346.2,180.9 356.9,180.9 367.7,180.9 378.5,180.9 389.2,180.9 400.0,180.9 410.8,180.9 421.5,180.9 432.3,180.9 443.1,180.9 453.8,180.9 464.6,180.9 475.4,180.9 486.2,180.9 496.9,180.9 507.7,180.9 518.5,180.9 529.2,180.9 540.0,180.9 550.8,180.9 561.5,180.9 572.3,180.9 583.1,180.9 593.8,180.9 604.6,180.9 615.4,180.9 626.2,180.9 636.9,180.9 647.7,180.9 658.5,180.1 669.2,180.1 680.0,180.9 690.8,180.9 701.5,180.9 712.3,180.9 723.1,180.9 733.8,180.9 744.6,180.9 755.4,180.9 766.2,180.9 776.9,180.9 787.7,180.9 798.5,180.9 809.2,180.9 820.0,180.9 830.8,180.9 841.5,180.9 852.3,180.9 863.1,180.9 873.8,180.9 884.6,180.7 895.4,180.7 906.2,180.7 916.9,180.9 927.7,180.9 938.5,180.9 949.2,180.9 960.0,180.8 970.8,180.8 981.5,181.6 992.3,181.6 1003.1,181.6 1013.8,181.6 1024.6,181.6 1035.4,181.6 1046.2,181.6 1056.9,181.6 1067.7,181.6 1078.5,181.6 1089.2,181.6 1100.0,181.6 " />
  <!-- Legend -->
  <g transform="translate(880, 67)">
    <line x1="0" y1="6" x2="25" y2="6" stroke="#e11d48" stroke-width="2"/>
    <text x="32" y="10" font-size="11" fill="#000000">Red Channel</text>
    <line x1="0" y1="24" x2="25" y2="24" stroke="#16a34a" stroke-width="2"/>
    <text x="32" y="28" font-size="11" fill="#000000">Green Channel (PPG primary)</text>
    <line x1="0" y1="42" x2="25" y2="42" stroke="#2563eb" stroke-width="2"/>
    <text x="32" y="46" font-size="11" fill="#000000">Blue Channel</text>
  </g>

  <!-- ========================================================================= -->
  <!-- SUBPLOT 2: Photoplethysmography (PPG) Pulse Waveform                      -->
  <!-- ========================================================================= -->
  <!-- Title -->
  <text x="610" y="266" font-size="14" font-weight="bold" text-anchor="middle" fill="#000000">
    2. Photoplethysmography (PPG) Pulse Waveform | Est. Heart Rate: 80.9 BPM
  </text>
  <!-- Box -->
  <rect x="120" y="280" width="980" height="140" fill="#ffffff" stroke="#000000" stroke-width="1.2"/>
  <!-- Y Ticks -->
  
      <line x1="120" y1="352.99850223528597" x2="1100" y2="352.99850223528597" stroke="#f1f5f9" stroke-width="1"/>
      <line x1="114" y1="352.99850223528597" x2="120" y2="352.99850223528597" stroke="#000000" stroke-width="1.2"/>
      <text x="110" y="356.99850223528597" font-size="11" text-anchor="end" fill="#000000">0</text>
    
  <!-- Y Label -->
  <text x="65" y="350" font-size="12" text-anchor="middle" fill="#000000" transform="rotate(-90 65 350)">
    Normalized Amplitude
  </text>
  <!-- X Ticks -->
  
      <line x1="120" y1="280" x2="120" y2="420" stroke="#f1f5f9" stroke-width="1"/>
      <line x1="120" y1="420" x2="120" y2="426" stroke="#000000" stroke-width="1.2"/>
      <text x="120" y="438" font-size="11" text-anchor="middle" fill="#000000">0</text>
    
      <line x1="283.3333333333333" y1="280" x2="283.3333333333333" y2="420" stroke="#f1f5f9" stroke-width="1"/>
      <line x1="283.3333333333333" y1="420" x2="283.3333333333333" y2="426" stroke="#000000" stroke-width="1.2"/>
      <text x="283.3333333333333" y="438" font-size="11" text-anchor="middle" fill="#000000">10</text>
    
      <line x1="446.66666666666663" y1="280" x2="446.66666666666663" y2="420" stroke="#f1f5f9" stroke-width="1"/>
      <line x1="446.66666666666663" y1="420" x2="446.66666666666663" y2="426" stroke="#000000" stroke-width="1.2"/>
      <text x="446.66666666666663" y="438" font-size="11" text-anchor="middle" fill="#000000">20</text>
    
      <line x1="610" y1="280" x2="610" y2="420" stroke="#f1f5f9" stroke-width="1"/>
      <line x1="610" y1="420" x2="610" y2="426" stroke="#000000" stroke-width="1.2"/>
      <text x="610" y="438" font-size="11" text-anchor="middle" fill="#000000">30</text>
    
      <line x1="773.3333333333333" y1="280" x2="773.3333333333333" y2="420" stroke="#f1f5f9" stroke-width="1"/>
      <line x1="773.3333333333333" y1="420" x2="773.3333333333333" y2="426" stroke="#000000" stroke-width="1.2"/>
      <text x="773.3333333333333" y="438" font-size="11" text-anchor="middle" fill="#000000">40</text>
    
      <line x1="936.6666666666667" y1="280" x2="936.6666666666667" y2="420" stroke="#f1f5f9" stroke-width="1"/>
      <line x1="936.6666666666667" y1="420" x2="936.6666666666667" y2="426" stroke="#000000" stroke-width="1.2"/>
      <text x="936.6666666666667" y="438" font-size="11" text-anchor="middle" fill="#000000">50</text>
    
      <line x1="1100" y1="280" x2="1100" y2="420" stroke="#f1f5f9" stroke-width="1"/>
      <line x1="1100" y1="420" x2="1100" y2="426" stroke="#000000" stroke-width="1.2"/>
      <text x="1100" y="438" font-size="11" text-anchor="middle" fill="#000000">60</text>
    
  <!-- X Label -->
  <text x="610" y="454" font-size="12" text-anchor="middle" fill="#000000">
    Time (seconds)
  </text>
  <!-- Traces -->
  <polyline fill="none" stroke="#0284c7" stroke-width="1.8" points="120.0,346.5 130.8,340.0 141.5,337.2 152.3,337.7 163.1,340.1 173.8,342.9 184.6,345.6 195.4,347.8 206.2,349.2 216.9,349.8 227.7,350.0 238.5,350.1 249.2,350.5 260.0,351.0 270.8,351.3 281.5,351.4 292.3,351.3 303.1,351.3 313.8,351.7 324.6,352.6 335.4,353.7 346.2,354.7 356.9,355.4 367.7,355.6 378.5,355.6 389.2,355.4 400.0,355.1 410.8,354.5 421.5,353.8 432.3,353.3 443.1,353.1 453.8,353.3 464.6,353.7 475.4,354.3 486.2,355.0 496.9,355.9 507.7,356.9 518.5,357.8 529.2,358.2 540.0,358.5 550.8,358.6 561.5,359.0 572.3,359.6 583.1,360.7 593.8,362.0 604.6,362.9 615.4,362.0 626.2,357.4 636.9,348.1 647.7,335.7 658.5,326.2 669.2,325.7 680.0,334.2 690.8,345.6 701.5,354.4 712.3,359.1 723.1,360.8 733.8,360.9 744.6,360.5 755.4,359.9 766.2,359.5 776.9,359.2 787.7,359.2 798.5,359.5 809.2,360.0 820.0,360.5 830.8,360.5 841.5,359.5 852.3,357.0 863.1,352.6 873.8,346.8 884.6,341.0 895.4,337.2 906.2,336.2 916.9,336.5 927.7,335.8 938.5,333.6 949.2,331.8 960.0,334.2 970.8,342.8 981.5,355.4 992.3,366.9 1003.1,373.3 1013.8,374.3 1024.6,371.3 1035.4,366.1 1046.2,360.4 1056.9,355.3 1067.7,351.9 1078.5,350.6 1089.2,351.2 1100.0,352.5 " />
  <circle cx="141.5" cy="337.2" r="4" fill="#e11d48" stroke="#ffffff" stroke-width="1.2"/><circle cx="669.2" cy="325.7" r="4" fill="#e11d48" stroke="#ffffff" stroke-width="1.2"/><circle cx="906.2" cy="336.2" r="4" fill="#e11d48" stroke="#ffffff" stroke-width="1.2"/>
  <!-- Legend -->
  <g transform="translate(825, 292)">
    <line x1="0" y1="6" x2="25" y2="6" stroke="#0284c7" stroke-width="2"/>
    <text x="32" y="10" font-size="11" fill="#000000">Filtered rPPG Waveform (0.75 - 3.5 Hz)</text>
    <circle cx="12" cy="24" r="4" fill="#e11d48"/>
    <text x="32" y="28" font-size="11" fill="#000000">Detected Systolic Peaks (N=3)</text>
  </g>

  <!-- ========================================================================= -->
  <!-- SUBPLOT 3: Frequency Spectrum & Heart Rate Peak                           -->
  <!-- ========================================================================= -->
  <!-- Title -->
  <text x="610" y="491" font-size="14" font-weight="bold" text-anchor="middle" fill="#000000">
    3. Frequency Spectrum &amp; Heart Rate Peak
  </text>
  <!-- Box -->
  <rect x="120" y="505" width="980" height="140" fill="#ffffff" stroke="#000000" stroke-width="1.2"/>
  <!-- Y Ticks -->
  
      <line x1="120" y1="645" x2="1100" y2="645" stroke="#f1f5f9" stroke-width="1"/>
      <line x1="114" y1="645" x2="120" y2="645" stroke="#000000" stroke-width="1.2"/>
      <text x="110" y="649" font-size="11" text-anchor="end" fill="#000000">0.0</text>
    
      <line x1="120" y1="-313212.08854543435" x2="1100" y2="-313212.08854543435" stroke="#f1f5f9" stroke-width="1"/>
      <line x1="114" y1="-313212.08854543435" x2="120" y2="-313212.08854543435" stroke="#000000" stroke-width="1.2"/>
      <text x="110" y="-313208.08854543435" font-size="11" text-anchor="end" fill="#000000">0.2</text>
    
      <line x1="120" y1="-627069.1770908687" x2="1100" y2="-627069.1770908687" stroke="#f1f5f9" stroke-width="1"/>
      <line x1="114" y1="-627069.1770908687" x2="120" y2="-627069.1770908687" stroke="#000000" stroke-width="1.2"/>
      <text x="110" y="-627065.1770908687" font-size="11" text-anchor="end" fill="#000000">0.4</text>
    
      <line x1="120" y1="-940926.265636303" x2="1100" y2="-940926.265636303" stroke="#f1f5f9" stroke-width="1"/>
      <line x1="114" y1="-940926.265636303" x2="120" y2="-940926.265636303" stroke="#000000" stroke-width="1.2"/>
      <text x="110" y="-940922.265636303" font-size="11" text-anchor="end" fill="#000000">0.6</text>
    
  <!-- Y Label -->
  <text x="65" y="575" font-size="12" text-anchor="middle" fill="#000000" transform="rotate(-90 65 575)">
    Power Spectral Density
  </text>
  <!-- X Ticks (BPM) -->
  
      <line x1="172.97297297297297" y1="505" x2="172.97297297297297" y2="645" stroke="#f1f5f9" stroke-width="1"/>
      <line x1="172.97297297297297" y1="645" x2="172.97297297297297" y2="651" stroke="#000000" stroke-width="1.2"/>
      <text x="172.97297297297297" y="663" font-size="11" text-anchor="middle" fill="#000000">50</text>
    
      <line x1="305.4054054054054" y1="505" x2="305.4054054054054" y2="645" stroke="#f1f5f9" stroke-width="1"/>
      <line x1="305.4054054054054" y1="645" x2="305.4054054054054" y2="651" stroke="#000000" stroke-width="1.2"/>
      <text x="305.4054054054054" y="663" font-size="11" text-anchor="middle" fill="#000000">75</text>
    
      <line x1="437.83783783783787" y1="505" x2="437.83783783783787" y2="645" stroke="#f1f5f9" stroke-width="1"/>
      <line x1="437.83783783783787" y1="645" x2="437.83783783783787" y2="651" stroke="#000000" stroke-width="1.2"/>
      <text x="437.83783783783787" y="663" font-size="11" text-anchor="middle" fill="#000000">100</text>
    
      <line x1="570.2702702702703" y1="505" x2="570.2702702702703" y2="645" stroke="#f1f5f9" stroke-width="1"/>
      <line x1="570.2702702702703" y1="645" x2="570.2702702702703" y2="651" stroke="#000000" stroke-width="1.2"/>
      <text x="570.2702702702703" y="663" font-size="11" text-anchor="middle" fill="#000000">125</text>
    
      <line x1="702.7027027027027" y1="505" x2="702.7027027027027" y2="645" stroke="#f1f5f9" stroke-width="1"/>
      <line x1="702.7027027027027" y1="645" x2="702.7027027027027" y2="651" stroke="#000000" stroke-width="1.2"/>
      <text x="702.7027027027027" y="663" font-size="11" text-anchor="middle" fill="#000000">150</text>
    
      <line x1="835.1351351351351" y1="505" x2="835.1351351351351" y2="645" stroke="#f1f5f9" stroke-width="1"/>
      <line x1="835.1351351351351" y1="645" x2="835.1351351351351" y2="651" stroke="#000000" stroke-width="1.2"/>
      <text x="835.1351351351351" y="663" font-size="11" text-anchor="middle" fill="#000000">175</text>
    
      <line x1="967.5675675675676" y1="505" x2="967.5675675675676" y2="645" stroke="#f1f5f9" stroke-width="1"/>
      <line x1="967.5675675675676" y1="645" x2="967.5675675675676" y2="651" stroke="#000000" stroke-width="1.2"/>
      <text x="967.5675675675676" y="663" font-size="11" text-anchor="middle" fill="#000000">200</text>
    
      <line x1="1100" y1="505" x2="1100" y2="645" stroke="#f1f5f9" stroke-width="1"/>
      <line x1="1100" y1="645" x2="1100" y2="651" stroke="#000000" stroke-width="1.2"/>
      <text x="1100" y="663" font-size="11" text-anchor="middle" fill="#000000">225</text>
    
  <!-- X Label -->
  <text x="610" y="679" font-size="12" text-anchor="middle" fill="#000000">
    Heart Rate (BPM)
  </text>
  <!-- Traces -->
  <polyline fill="none" stroke="#9333ea" stroke-width="2.2" points="131.6,638.7 150.2,632.9 168.8,624.4 187.5,613.7 206.1,601.6 224.7,588.6 243.3,575.2 262.0,561.7 280.6,548.5 299.2,536.8 317.8,527.9 336.4,523.3 355.1,523.8 373.7,529.7 392.3,540.4 410.9,554.3 429.6,569.7 448.2,584.5 466.8,597.3 485.4,607.1 504.1,613.4 522.7,616.5 541.3,617.0 559.9,615.5 578.5,613.0 597.2,609.8 615.8,606.6 634.4,603.4 653.0,600.5 671.7,598.0 690.3,596.3 708.9,595.6 727.5,596.1 746.2,597.6 764.8,600.0 783.4,602.8 802.0,605.8 820.7,608.5 839.3,610.8 857.9,612.7 876.5,614.2 895.1,615.6 913.8,616.9 932.4,618.4 951.0,620.1 969.6,622.2 988.3,624.4 1006.9,626.8 1025.5,629.2 1044.1,631.5 1062.8,633.4 1081.4,635.0 1100.0,636.2 " />
  <line x1="336.65945945945947" y1="645" x2="336.65945945945947" y2="523.2608695652174" stroke="#e11d48" stroke-width="2" stroke-dasharray="5,4"/>
  <!-- Legend -->
  <g transform="translate(865, 517)">
    <line x1="0" y1="6" x2="25" y2="6" stroke="#9333ea" stroke-width="2"/>
    <text x="32" y="10" font-size="11" fill="#000000">PSD (Welch)</text>
    <line x1="0" y1="24" x2="25" y2="24" stroke="#e11d48" stroke-width="2" stroke-dasharray="5,4"/>
    <text x="32" y="28" font-size="11" fill="#000000">Dominant Peak (80.9 BPM)</text>
  </g>

  <!-- ========================================================================= -->
  <!-- SUBPLOT 4: Heart Rate Variations | HRV (SDNN)                             -->
  <!-- ========================================================================= -->
  <!-- Title -->
  <text x="610" y="716" font-size="14" font-weight="bold" text-anchor="middle" fill="#000000">
    4. Heart Rate Variations | HRV (SDNN): 434.9 ms
  </text>
  <!-- Box -->
  <rect x="120" y="730" width="980" height="140" fill="#ffffff" stroke="#000000" stroke-width="1.2"/>
  <!-- Y Ticks -->
  
      <line x1="120" y1="832.6666666666666" x2="1100" y2="832.6666666666666" stroke="#f1f5f9" stroke-width="1"/>
      <line x1="114" y1="832.6666666666666" x2="120" y2="832.6666666666666" stroke="#000000" stroke-width="1.2"/>
      <text x="110" y="836.6666666666666" font-size="11" text-anchor="end" fill="#000000">100</text>
    
      <line x1="120" y1="786" x2="1100" y2="786" stroke="#f1f5f9" stroke-width="1"/>
      <line x1="114" y1="786" x2="120" y2="786" stroke="#000000" stroke-width="1.2"/>
      <text x="110" y="790" font-size="11" text-anchor="end" fill="#000000">150</text>
    
      <line x1="120" y1="739.3333333333334" x2="1100" y2="739.3333333333334" stroke="#f1f5f9" stroke-width="1"/>
      <line x1="114" y1="739.3333333333334" x2="120" y2="739.3333333333334" stroke="#000000" stroke-width="1.2"/>
      <text x="110" y="743.3333333333334" font-size="11" text-anchor="end" fill="#000000">200</text>
    
  <!-- Y Label -->
  <text x="65" y="800" font-size="12" text-anchor="middle" fill="#000000" transform="rotate(-90 65 800)">
    Heart Rate (BPM)
  </text>
  <!-- X Ticks -->
  
      <line x1="120" y1="730" x2="120" y2="870" stroke="#f1f5f9" stroke-width="1"/>
      <line x1="120" y1="870" x2="120" y2="876" stroke="#000000" stroke-width="1.2"/>
      <text x="120" y="888" font-size="11" text-anchor="middle" fill="#000000">0</text>
    
      <line x1="316" y1="730" x2="316" y2="870" stroke="#f1f5f9" stroke-width="1"/>
      <line x1="316" y1="870" x2="316" y2="876" stroke="#000000" stroke-width="1.2"/>
      <text x="316" y="888" font-size="11" text-anchor="middle" fill="#000000">10</text>
    
      <line x1="512" y1="730" x2="512" y2="870" stroke="#f1f5f9" stroke-width="1"/>
      <line x1="512" y1="870" x2="512" y2="876" stroke="#000000" stroke-width="1.2"/>
      <text x="512" y="888" font-size="11" text-anchor="middle" fill="#000000">20</text>
    
      <line x1="708" y1="730" x2="708" y2="870" stroke="#f1f5f9" stroke-width="1"/>
      <line x1="708" y1="870" x2="708" y2="876" stroke="#000000" stroke-width="1.2"/>
      <text x="708" y="888" font-size="11" text-anchor="middle" fill="#000000">30</text>
    
      <line x1="904" y1="730" x2="904" y2="870" stroke="#f1f5f9" stroke-width="1"/>
      <line x1="904" y1="870" x2="904" y2="876" stroke="#000000" stroke-width="1.2"/>
      <text x="904" y="888" font-size="11" text-anchor="middle" fill="#000000">40</text>
    
      <line x1="1100" y1="730" x2="1100" y2="870" stroke="#f1f5f9" stroke-width="1"/>
      <line x1="1100" y1="870" x2="1100" y2="876" stroke="#000000" stroke-width="1.2"/>
      <text x="1100" y="888" font-size="11" text-anchor="middle" fill="#000000">50</text>
    
  <!-- X Label -->
  <text x="610" y="904" font-size="12" text-anchor="middle" fill="#000000">
    Time (seconds)
  </text>
  <!-- Traces -->
  <polyline fill="none" stroke="#e11d48" stroke-width="1.8" points="270.3,888.7 338.9,846.0 498.9,888.7 570.8,849.6 " />
  <circle cx="270.3" cy="888.7" r="3.5" fill="#e11d48"/><circle cx="338.9" cy="846.0" r="3.5" fill="#e11d48"/><circle cx="498.9" cy="888.7" r="3.5" fill="#e11d48"/><circle cx="570.8" cy="849.6" r="3.5" fill="#e11d48"/>
  <line x1="120" y1="889.5066666666667" x2="1100" y2="889.5066666666667" stroke="#000000" stroke-width="1.8" stroke-dasharray="2,3"/>
  <!-- Legend -->
  <g transform="translate(865, 742)">
    <line x1="0" y1="6" x2="25" y2="6" stroke="#e11d48" stroke-width="2"/>
    <circle cx="12" cy="6" r="3.5" fill="#e11d48"/>
    <text x="32" y="10" font-size="11" fill="#000000">Instantaneous BPM</text>
    <line x1="0" y1="24" x2="25" y2="24" stroke="#000000" stroke-width="2" stroke-dasharray="2,3"/>
    <text x="32" y="28" font-size="11" fill="#000000">Median BPM (39.1 BPM)</text>
  </g>
</svg>