<svg width="1200" height="960" viewBox="0 0 1200 960" xmlns="http://www.w3.org/2000/svg" style="background:#ffffff; font-family: -apple-system, BlinkMacSystemFont, 'Segoe UI', Roboto, Helvetica, Arial, sans-serif;">

  <!-- ========================================================================= -->
  <!-- SUBPLOT 1: Raw Color Intensity over Time (Skin ROI)                       -->
  <!-- ========================================================================= -->
  <!-- Title -->
  <text x="610" y="42" font-size="14" font-weight="bold" text-anchor="middle" fill="#000000">
    1. Raw Color Intensity over Time (Skin ROI)
  </text>
  <!-- Box -->
  <rect x="120" y="55" width="980" height="140" fill="#ffffff" stroke="#000000" stroke-width="1.2"/>
  <!-- Grid Lines -->
  <line x1="120" y1="164.56521739130434" x2="1100" y2="164.56521739130434" stroke="#f1f5f9" stroke-width="1"/>
  <line x1="120" y1="134.1304347826087" x2="1100" y2="134.1304347826087" stroke="#f1f5f9" stroke-width="1"/>
  <line x1="120" y1="103.69565217391305" x2="1100" y2="103.69565217391305" stroke="#f1f5f9" stroke-width="1"/>
  <line x1="120" y1="73.26086956521739" x2="1100" y2="73.26086956521739" stroke="#f1f5f9" stroke-width="1"/>
  <!-- Y Ticks -->
  <line x1="114" y1="164.56521739130434" x2="120" y2="164.56521739130434" stroke="#000000" stroke-width="1.2"/>
  <text x="110" y="168.56521739130434" font-size="11" text-anchor="end" fill="#000000">50</text>
  <line x1="114" y1="134.1304347826087" x2="120" y2="134.1304347826087" stroke="#000000" stroke-width="1.2"/>
  <text x="110" y="138.1304347826087" font-size="11" text-anchor="end" fill="#000000">100</text>
  <line x1="114" y1="103.69565217391305" x2="120" y2="103.69565217391305" stroke="#000000" stroke-width="1.2"/>
  <text x="110" y="107.69565217391305" font-size="11" text-anchor="end" fill="#000000">150</text>
  <line x1="114" y1="73.26086956521739" x2="120" y2="73.26086956521739" stroke="#000000" stroke-width="1.2"/>
  <text x="110" y="77.26086956521739" font-size="11" text-anchor="end" fill="#000000">200</text>
  <!-- Y Label -->
  <text x="65" y="125" font-size="12" text-anchor="middle" fill="#000000" transform="rotate(-90 65 125)">
    Mean Intensity
  </text>
  <!-- X Ticks -->
  
      <line x1="120" y1="55" x2="120" y2="195" stroke="#f1f5f9" stroke-width="1"/>
      <line x1="120" y1="195" x2="120" y2="201" stroke="#000000" stroke-width="1.2"/>
      <text x="120" y="213" font-size="11" text-anchor="middle" fill="#000000">0</text>
    
      <line x1="283.3333333333333" y1="55" x2="283.3333333333333" y2="195" stroke="#f1f5f9" stroke-width="1"/>
      <line x1="283.3333333333333" y1="195" x2="283.3333333333333" y2="201" stroke="#000000" stroke-width="1.2"/>
      <text x="283.3333333333333" y="213" font-size="11" text-anchor="middle" fill="#000000">5</text>
    
      <line x1="446.66666666666663" y1="55" x2="446.66666666666663" y2="195" stroke="#f1f5f9" stroke-width="1"/>
      <line x1="446.66666666666663" y1="195" x2="446.66666666666663" y2="201" stroke="#000000" stroke-width="1.2"/>
      <text x="446.66666666666663" y="213" font-size="11" text-anchor="middle" fill="#000000">10</text>
    
      <line x1="610" y1="55" x2="610" y2="195" stroke="#f1f5f9" stroke-width="1"/>
      <line x1="610" y1="195" x2="610" y2="201" stroke="#000000" stroke-width="1.2"/>
      <text x="610" y="213" font-size="11" text-anchor="middle" fill="#000000">15</text>
    
      <line x1="773.3333333333333" y1="55" x2="773.3333333333333" y2="195" stroke="#f1f5f9" stroke-width="1"/>
      <line x1="773.3333333333333" y1="195" x2="773.3333333333333" y2="201" stroke="#000000" stroke-width="1.2"/>
      <text x="773.3333333333333" y="213" font-size="11" text-anchor="middle" fill="#000000">20</text>
    
      <line x1="936.6666666666667" y1="55" x2="936.6666666666667" y2="195" stroke="#f1f5f9" stroke-width="1"/>
      <line x1="936.6666666666667" y1="195" x2="936.6666666666667" y2="201" stroke="#000000" stroke-width="1.2"/>
      <text x="936.6666666666667" y="213" font-size="11" text-anchor="middle" fill="#000000">25</text>
    
      <line x1="1100" y1="55" x2="1100" y2="195" stroke="#f1f5f9" stroke-width="1"/>
      <line x1="1100" y1="195" x2="1100" y2="201" stroke="#000000" stroke-width="1.2"/>
      <text x="1100" y="213" font-size="11" text-anchor="middle" fill="#000000">30</text>
    
  <!-- X Label -->
  <text x="610" y="229" font-size="12" text-anchor="middle" fill="#000000">
    Time (seconds)
  </text>
  <!-- Traces -->
  <polyline fill="none" stroke="#e11d48" stroke-width="1.6" points="120.0,105.9 130.0,105.9 140.0,105.3 150.0,105.3 160.0,105.9 170.0,105.9 180.0,105.9 190.0,104.3 200.0,104.3 210.0,105.9 220.0,105.9 230.0,105.4 240.0,105.4 250.0,105.4 260.0,105.2 270.0,105.3 280.0,105.3 290.0,105.8 300.0,105.8 310.0,103.8 320.0,105.8 330.0,105.8 340.0,105.7 350.0,105.7 360.0,105.7 370.0,105.7 380.0,105.7 390.0,106.0 400.0,106.0 410.0,105.7 420.0,105.7 430.0,105.7 440.0,105.7 450.0,105.1 460.0,105.1 470.0,105.1 480.0,105.1 490.0,105.1 500.0,105.1 510.0,105.1 520.0,105.1 530.0,105.1 540.0,105.7 550.0,105.7 560.0,105.7 570.0,105.8 580.0,106.1 590.0,104.3 600.0,104.3 610.0,103.7 620.0,104.4 630.0,104.4 640.0,104.4 650.0,104.2 660.0,105.7 670.0,105.7 680.0,104.6 690.0,104.6 700.0,105.7 710.0,105.7 720.0,105.7 730.0,105.1 740.0,105.1 750.0,105.1 760.0,103.7 770.0,103.6 780.0,103.6 790.0,105.6 800.0,105.6 810.0,105.6 820.0,104.3 830.0,104.3 840.0,105.7 850.0,105.7 860.0,105.7 870.0,105.7 880.0,105.7 890.0,104.3 900.0,104.3 910.0,104.3 920.0,104.3 930.0,104.3 940.0,104.3 950.0,104.2 960.0,104.2 970.0,104.2 980.0,104.3 990.0,104.3 1000.0,104.3 1010.0,104.3 1020.0,104.3 1030.0,104.3 1040.0,104.3 1050.0,104.3 1060.0,104.3 1070.0,104.3 1080.0,104.3 1090.0,104.3 1100.0,104.3 " />
  <polyline fill="none" stroke="#16a34a" stroke-width="1.6" points="120.0,183.4 130.0,183.4 140.0,183.3 150.0,183.3 160.0,183.4 170.0,183.4 180.0,183.4 190.0,183.1 200.0,183.1 210.0,183.4 220.0,183.4 230.0,183.3 240.0,183.3 250.0,183.3 260.0,183.3 270.0,183.4 280.0,183.4 290.0,183.4 300.0,183.4 310.0,183.0 320.0,183.4 330.0,183.4 340.0,183.4 350.0,183.4 360.0,183.4 370.0,183.4 380.0,183.4 390.0,183.6 400.0,183.6 410.0,183.4 420.0,183.4 430.0,183.4 440.0,183.4 450.0,183.3 460.0,183.3 470.0,183.3 480.0,183.3 490.0,183.2 500.0,183.2 510.0,183.2 520.0,183.2 530.0,183.2 540.0,183.3 550.0,183.3 560.0,183.3 570.0,183.3 580.0,183.4 590.0,183.0 600.0,183.0 610.0,182.9 620.0,183.0 630.0,183.0 640.0,183.0 650.0,183.0 660.0,183.3 670.0,183.3 680.0,183.1 690.0,183.1 700.0,183.3 710.0,183.3 720.0,183.3 730.0,183.2 740.0,183.2 750.0,183.2 760.0,183.0 770.0,183.0 780.0,183.0 790.0,183.4 800.0,183.4 810.0,183.4 820.0,183.1 830.0,183.1 840.0,183.4 850.0,183.4 860.0,183.4 870.0,183.4 880.0,183.4 890.0,183.0 900.0,183.0 910.0,183.0 920.0,183.0 930.0,183.0 940.0,183.0 950.0,183.0 960.0,183.0 970.0,183.0 980.0,183.0 990.0,183.0 1000.0,183.0 1010.0,183.0 1020.0,183.0 1030.0,183.0 1040.0,183.0 1050.0,183.0 1060.0,183.0 1070.0,183.0 1080.0,183.0 1090.0,183.0 1100.0,183.0 " />
  <polyline fill="none" stroke="#2563eb" stroke-width="1.6" points="120.0,180.5 130.0,180.4 140.0,180.3 150.0,180.3 160.0,180.5 170.0,180.5 180.0,180.5 190.0,179.9 200.0,179.9 210.0,180.4 220.0,180.4 230.0,180.4 240.0,180.4 250.0,180.4 260.0,180.3 270.0,180.4 280.0,180.4 290.0,180.4 300.0,180.4 310.0,179.7 320.0,180.5 330.0,180.5 340.0,180.5 350.0,180.5 360.0,180.4 370.0,180.4 380.0,180.4 390.0,180.8 400.0,180.8 410.0,180.4 420.0,180.4 430.0,180.4 440.0,180.4 450.0,180.2 460.0,180.2 470.0,180.2 480.0,180.2 490.0,180.2 500.0,180.2 510.0,180.2 520.0,180.2 530.0,180.2 540.0,180.4 550.0,180.4 560.0,180.4 570.0,180.4 580.0,180.5 590.0,179.8 600.0,179.8 610.0,179.6 620.0,179.8 630.0,179.8 640.0,179.8 650.0,179.8 660.0,180.4 670.0,180.4 680.0,180.2 690.0,180.2 700.0,180.4 710.0,180.4 720.0,180.4 730.0,180.2 740.0,180.2 750.0,180.2 760.0,179.6 770.0,179.6 780.0,179.6 790.0,180.4 800.0,180.4 810.0,180.4 820.0,179.8 830.0,179.8 840.0,180.4 850.0,180.4 860.0,180.4 870.0,180.4 880.0,180.4 890.0,179.8 900.0,179.8 910.0,179.8 920.0,179.8 930.0,179.8 940.0,179.8 950.0,179.8 960.0,179.8 970.0,179.8 980.0,179.8 990.0,179.8 1000.0,179.8 1010.0,179.8 1020.0,179.8 1030.0,179.8 1040.0,179.8 1050.0,179.7 1060.0,179.7 1070.0,179.7 1080.0,179.8 1090.0,179.8 1100.0,179.8 " />
  <!-- Legend -->
  <g transform="translate(880, 67)">
    <line x1="0" y1="6" x2="25" y2="6" stroke="#e11d48" stroke-width="2"/>
    <text x="32" y="10" font-size="11" fill="#000000">Red Channel</text>
    <line x1="0" y1="24" x2="25" y2="24" stroke="#16a34a" stroke-width="2"/>
    <text x="32" y="28" font-size="11" fill="#000000">Green Channel (PPG primary)</text>
    <line x1="0" y1="42" x2="25" y2="42" stroke="#2563eb" stroke-width="2"/>
    <text x="32" y="46" font-size="11" fill="#000000">Blue Channel</text>
  </g>

  <!-- ========================================================================= -->
  <!-- SUBPLOT 2: Photoplethysmography (PPG) Pulse Waveform                      -->
  <!-- ========================================================================= -->
  <!-- Title -->
  <text x="610" y="266" font-size="14" font-weight="bold" text-anchor="middle" fill="#000000">
    2. Photoplethysmography (PPG) Pulse Waveform | Est. Heart Rate: 116.0 BPM
  </text>
  <!-- Box -->
  <rect x="120" y="280" width="980" height="140" fill="#ffffff" stroke="#000000" stroke-width="1.2"/>
  <!-- Y Ticks -->
  
      <line x1="120" y1="353.52116541439364" x2="1100" y2="353.52116541439364" stroke="#f1f5f9" stroke-width="1"/>
      <line x1="114" y1="353.52116541439364" x2="120" y2="353.52116541439364" stroke="#000000" stroke-width="1.2"/>
      <text x="110" y="357.52116541439364" font-size="11" text-anchor="end" fill="#000000">0</text>
    
  <!-- Y Label -->
  <text x="65" y="350" font-size="12" text-anchor="middle" fill="#000000" transform="rotate(-90 65 350)">
    Normalized Amplitude
  </text>
  <!-- X Ticks -->
  
      <line x1="120" y1="280" x2="120" y2="420" stroke="#f1f5f9" stroke-width="1"/>
      <line x1="120" y1="420" x2="120" y2="426" stroke="#000000" stroke-width="1.2"/>
      <text x="120" y="438" font-size="11" text-anchor="middle" fill="#000000">0</text>
    
      <line x1="283.3333333333333" y1="280" x2="283.3333333333333" y2="420" stroke="#f1f5f9" stroke-width="1"/>
      <line x1="283.3333333333333" y1="420" x2="283.3333333333333" y2="426" stroke="#000000" stroke-width="1.2"/>
      <text x="283.3333333333333" y="438" font-size="11" text-anchor="middle" fill="#000000">10</text>
    
      <line x1="446.66666666666663" y1="280" x2="446.66666666666663" y2="420" stroke="#f1f5f9" stroke-width="1"/>
      <line x1="446.66666666666663" y1="420" x2="446.66666666666663" y2="426" stroke="#000000" stroke-width="1.2"/>
      <text x="446.66666666666663" y="438" font-size="11" text-anchor="middle" fill="#000000">20</text>
    
      <line x1="610" y1="280" x2="610" y2="420" stroke="#f1f5f9" stroke-width="1"/>
      <line x1="610" y1="420" x2="610" y2="426" stroke="#000000" stroke-width="1.2"/>
      <text x="610" y="438" font-size="11" text-anchor="middle" fill="#000000">30</text>
    
      <line x1="773.3333333333333" y1="280" x2="773.3333333333333" y2="420" stroke="#f1f5f9" stroke-width="1"/>
      <line x1="773.3333333333333" y1="420" x2="773.3333333333333" y2="426" stroke="#000000" stroke-width="1.2"/>
      <text x="773.3333333333333" y="438" font-size="11" text-anchor="middle" fill="#000000">40</text>
    
      <line x1="936.6666666666667" y1="280" x2="936.6666666666667" y2="420" stroke="#f1f5f9" stroke-width="1"/>
      <line x1="936.6666666666667" y1="420" x2="936.6666666666667" y2="426" stroke="#000000" stroke-width="1.2"/>
      <text x="936.6666666666667" y="438" font-size="11" text-anchor="middle" fill="#000000">50</text>
    
      <line x1="1100" y1="280" x2="1100" y2="420" stroke="#f1f5f9" stroke-width="1"/>
      <line x1="1100" y1="420" x2="1100" y2="426" stroke="#000000" stroke-width="1.2"/>
      <text x="1100" y="438" font-size="11" text-anchor="middle" fill="#000000">60</text>
    
  <!-- X Label -->
  <text x="610" y="454" font-size="12" text-anchor="middle" fill="#000000">
    Time (seconds)
  </text>
  <!-- Traces -->
  <polyline fill="none" stroke="#0284c7" stroke-width="1.8" points="120.0,359.6 130.0,362.2 140.0,362.9 150.0,362.3 160.0,360.2 170.0,355.6 180.0,348.8 190.0,343.2 200.0,342.6 210.0,346.5 220.0,351.2 230.0,353.5 240.0,353.6 250.0,352.9 260.0,352.5 270.0,352.3 280.0,351.5 290.0,349.3 300.0,346.3 310.0,345.1 320.0,347.5 330.0,352.1 340.0,356.2 350.0,359.1 360.0,361.7 370.0,365.0 380.0,368.9 390.0,371.9 400.0,372.2 410.0,369.3 420.0,364.4 430.0,358.9 440.0,353.3 450.0,348.5 460.0,345.4 470.0,344.2 480.0,344.3 490.0,345.3 500.0,346.9 510.0,349.4 520.0,353.0 530.0,357.9 540.0,363.1 550.0,367.0 560.0,368.0 570.0,364.4 580.0,355.8 590.0,343.6 600.0,331.8 610.0,324.2 620.0,322.3 630.0,325.6 640.0,333.0 650.0,342.8 660.0,352.3 670.0,358.8 680.0,362.5 690.0,365.7 700.0,369.6 710.0,372.1 720.0,371.2 730.0,366.0 740.0,357.1 750.0,346.5 760.0,338.0 770.0,335.9 780.0,341.6 790.0,351.2 800.0,358.4 810.0,360.5 820.0,360.4 830.0,362.7 840.0,368.6 850.0,374.9 860.0,377.7 870.0,375.0 880.0,367.2 890.0,356.9 900.0,347.9 910.0,342.4 920.0,340.0 930.0,339.5 940.0,339.7 950.0,340.3 960.0,341.5 970.0,343.4 980.0,345.7 990.0,348.2 1000.0,350.4 1010.0,352.6 1020.0,354.5 1030.0,356.2 1040.0,357.6 1050.0,358.4 1060.0,358.7 1070.0,358.1 1080.0,356.9 1090.0,355.2 1100.0,353.9 " />
  <circle cx="200.0" cy="342.6" r="4" fill="#e11d48" stroke="#ffffff" stroke-width="1.2"/><circle cx="310.0" cy="345.1" r="4" fill="#e11d48" stroke="#ffffff" stroke-width="1.2"/><circle cx="470.0" cy="344.2" r="4" fill="#e11d48" stroke="#ffffff" stroke-width="1.2"/><circle cx="620.0" cy="322.3" r="4" fill="#e11d48" stroke="#ffffff" stroke-width="1.2"/><circle cx="770.0" cy="335.9" r="4" fill="#e11d48" stroke="#ffffff" stroke-width="1.2"/><circle cx="930.0" cy="339.5" r="4" fill="#e11d48" stroke="#ffffff" stroke-width="1.2"/>
  <!-- Legend -->
  <g transform="translate(825, 292)">
    <line x1="0" y1="6" x2="25" y2="6" stroke="#0284c7" stroke-width="2"/>
    <text x="32" y="10" font-size="11" fill="#000000">Filtered rPPG Waveform (0.75 - 3.5 Hz)</text>
    <circle cx="12" cy="24" r="4" fill="#e11d48"/>
    <text x="32" y="28" font-size="11" fill="#000000">Detected Systolic Peaks (N=6)</text>
  </g>

  <!-- ========================================================================= -->
  <!-- SUBPLOT 3: Frequency Spectrum & Heart Rate Peak                           -->
  <!-- ========================================================================= -->
  <!-- Title -->
  <text x="610" y="491" font-size="14" font-weight="bold" text-anchor="middle" fill="#000000">
    3. Frequency Spectrum &amp; Heart Rate Peak
  </text>
  <!-- Box -->
  <rect x="120" y="505" width="980" height="140" fill="#ffffff" stroke="#000000" stroke-width="1.2"/>
  <!-- Y Ticks -->
  
      <line x1="120" y1="645" x2="1100" y2="645" stroke="#f1f5f9" stroke-width="1"/>
      <line x1="114" y1="645" x2="120" y2="645" stroke="#000000" stroke-width="1.2"/>
      <text x="110" y="649" font-size="11" text-anchor="end" fill="#000000">0.0</text>
    
      <line x1="120" y1="-68866.06570749164" x2="1100" y2="-68866.06570749164" stroke="#f1f5f9" stroke-width="1"/>
      <line x1="114" y1="-68866.06570749164" x2="120" y2="-68866.06570749164" stroke="#000000" stroke-width="1.2"/>
      <text x="110" y="-68862.06570749164" font-size="11" text-anchor="end" fill="#000000">0.2</text>
    
      <line x1="120" y1="-138377.13141498328" x2="1100" y2="-138377.13141498328" stroke="#f1f5f9" stroke-width="1"/>
      <line x1="114" y1="-138377.13141498328" x2="120" y2="-138377.13141498328" stroke="#000000" stroke-width="1.2"/>
      <text x="110" y="-138373.13141498328" font-size="11" text-anchor="end" fill="#000000">0.4</text>
    
      <line x1="120" y1="-207888.1971224749" x2="1100" y2="-207888.1971224749" stroke="#f1f5f9" stroke-width="1"/>
      <line x1="114" y1="-207888.1971224749" x2="120" y2="-207888.1971224749" stroke="#000000" stroke-width="1.2"/>
      <text x="110" y="-207884.1971224749" font-size="11" text-anchor="end" fill="#000000">0.6</text>
    
  <!-- Y Label -->
  <text x="65" y="575" font-size="12" text-anchor="middle" fill="#000000" transform="rotate(-90 65 575)">
    Power Spectral Density
  </text>
  <!-- X Ticks (BPM) -->
  
      <line x1="172.97297297297297" y1="505" x2="172.97297297297297" y2="645" stroke="#f1f5f9" stroke-width="1"/>
      <line x1="172.97297297297297" y1="645" x2="172.97297297297297" y2="651" stroke="#000000" stroke-width="1.2"/>
      <text x="172.97297297297297" y="663" font-size="11" text-anchor="middle" fill="#000000">50</text>
    
      <line x1="305.4054054054054" y1="505" x2="305.4054054054054" y2="645" stroke="#f1f5f9" stroke-width="1"/>
      <line x1="305.4054054054054" y1="645" x2="305.4054054054054" y2="651" stroke="#000000" stroke-width="1.2"/>
      <text x="305.4054054054054" y="663" font-size="11" text-anchor="middle" fill="#000000">75</text>
    
      <line x1="437.83783783783787" y1="505" x2="437.83783783783787" y2="645" stroke="#f1f5f9" stroke-width="1"/>
      <line x1="437.83783783783787" y1="645" x2="437.83783783783787" y2="651" stroke="#000000" stroke-width="1.2"/>
      <text x="437.83783783783787" y="663" font-size="11" text-anchor="middle" fill="#000000">100</text>
    
      <line x1="570.2702702702703" y1="505" x2="570.2702702702703" y2="645" stroke="#f1f5f9" stroke-width="1"/>
      <line x1="570.2702702702703" y1="645" x2="570.2702702702703" y2="651" stroke="#000000" stroke-width="1.2"/>
      <text x="570.2702702702703" y="663" font-size="11" text-anchor="middle" fill="#000000">125</text>
    
      <line x1="702.7027027027027" y1="505" x2="702.7027027027027" y2="645" stroke="#f1f5f9" stroke-width="1"/>
      <line x1="702.7027027027027" y1="645" x2="702.7027027027027" y2="651" stroke="#000000" stroke-width="1.2"/>
      <text x="702.7027027027027" y="663" font-size="11" text-anchor="middle" fill="#000000">150</text>
    
      <line x1="835.1351351351351" y1="505" x2="835.1351351351351" y2="645" stroke="#f1f5f9" stroke-width="1"/>
      <line x1="835.1351351351351" y1="645" x2="835.1351351351351" y2="651" stroke="#000000" stroke-width="1.2"/>
      <text x="835.1351351351351" y="663" font-size="11" text-anchor="middle" fill="#000000">175</text>
    
      <line x1="967.5675675675676" y1="505" x2="967.5675675675676" y2="645" stroke="#f1f5f9" stroke-width="1"/>
      <line x1="967.5675675675676" y1="645" x2="967.5675675675676" y2="651" stroke="#000000" stroke-width="1.2"/>
      <text x="967.5675675675676" y="663" font-size="11" text-anchor="middle" fill="#000000">200</text>
    
      <line x1="1100" y1="505" x2="1100" y2="645" stroke="#f1f5f9" stroke-width="1"/>
      <line x1="1100" y1="645" x2="1100" y2="651" stroke="#000000" stroke-width="1.2"/>
      <text x="1100" y="663" font-size="11" text-anchor="middle" fill="#000000">225</text>
    
  <!-- X Label -->
  <text x="610" y="679" font-size="12" text-anchor="middle" fill="#000000">
    Heart Rate (BPM)
  </text>
  <!-- Traces -->
  <polyline fill="none" stroke="#9333ea" stroke-width="2.2" points="131.6,620.4 150.2,620.4 168.8,622.7 187.5,627.0 206.1,632.1 224.7,637.1 243.3,640.9 262.0,643.3 280.6,644.4 299.2,644.8 317.8,644.8 336.4,644.3 355.1,642.6 373.7,638.5 392.3,630.5 410.9,618.0 429.6,601.1 448.2,581.1 466.8,560.6 485.4,542.3 504.1,529.2 522.7,523.3 541.3,525.2 559.9,534.4 578.5,549.0 597.2,566.7 615.8,584.7 634.4,601.2 653.0,614.7 671.7,625.0 690.3,632.1 708.9,636.7 727.5,639.5 746.2,641.2 764.8,642.1 783.4,642.6 802.0,642.8 820.7,642.9 839.3,643.0 857.9,643.1 876.5,643.3 895.1,643.5 913.8,643.7 932.4,643.9 951.0,644.0 969.6,644.0 988.3,643.8 1006.9,643.4 1025.5,642.9 1044.1,642.2 1062.8,641.4 1081.4,640.6 1100.0,639.9 " />
  <line x1="522.5945945945946" y1="645" x2="522.5945945945946" y2="523.2608695652174" stroke="#e11d48" stroke-width="2" stroke-dasharray="5,4"/>
  <!-- Legend -->
  <g transform="translate(865, 517)">
    <line x1="0" y1="6" x2="25" y2="6" stroke="#9333ea" stroke-width="2"/>
    <text x="32" y="10" font-size="11" fill="#000000">PSD (Welch)</text>
    <line x1="0" y1="24" x2="25" y2="24" stroke="#e11d48" stroke-width="2" stroke-dasharray="5,4"/>
    <text x="32" y="28" font-size="11" fill="#000000">Dominant Peak (116.0 BPM)</text>
  </g>

  <!-- ========================================================================= -->
  <!-- SUBPLOT 4: Heart Rate Variations | HRV (SDNN)                             -->
  <!-- ========================================================================= -->
  <!-- Title -->
  <text x="610" y="716" font-size="14" font-weight="bold" text-anchor="middle" fill="#000000">
    4. Heart Rate Variations | HRV (SDNN): 57.3 ms
  </text>
  <!-- Box -->
  <rect x="120" y="730" width="980" height="140" fill="#ffffff" stroke="#000000" stroke-width="1.2"/>
  <!-- Y Ticks -->
  
      <line x1="120" y1="832.6666666666666" x2="1100" y2="832.6666666666666" stroke="#f1f5f9" stroke-width="1"/>
      <line x1="114" y1="832.6666666666666" x2="120" y2="832.6666666666666" stroke="#000000" stroke-width="1.2"/>
      <text x="110" y="836.6666666666666" font-size="11" text-anchor="end" fill="#000000">100</text>
    
      <line x1="120" y1="786" x2="1100" y2="786" stroke="#f1f5f9" stroke-width="1"/>
      <line x1="114" y1="786" x2="120" y2="786" stroke="#000000" stroke-width="1.2"/>
      <text x="110" y="790" font-size="11" text-anchor="end" fill="#000000">150</text>
    
      <line x1="120" y1="739.3333333333334" x2="1100" y2="739.3333333333334" stroke="#f1f5f9" stroke-width="1"/>
      <line x1="114" y1="739.3333333333334" x2="120" y2="739.3333333333334" stroke="#000000" stroke-width="1.2"/>
      <text x="110" y="743.3333333333334" font-size="11" text-anchor="end" fill="#000000">200</text>
    
  <!-- Y Label -->
  <text x="65" y="800" font-size="12" text-anchor="middle" fill="#000000" transform="rotate(-90 65 800)">
    Heart Rate (BPM)
  </text>
  <!-- X Ticks -->
  
      <line x1="120" y1="730" x2="120" y2="870" stroke="#f1f5f9" stroke-width="1"/>
      <line x1="120" y1="870" x2="120" y2="876" stroke="#000000" stroke-width="1.2"/>
      <text x="120" y="888" font-size="11" text-anchor="middle" fill="#000000">0</text>
    
      <line x1="316" y1="730" x2="316" y2="870" stroke="#f1f5f9" stroke-width="1"/>
      <line x1="316" y1="870" x2="316" y2="876" stroke="#000000" stroke-width="1.2"/>
      <text x="316" y="888" font-size="11" text-anchor="middle" fill="#000000">10</text>
    
      <line x1="512" y1="730" x2="512" y2="870" stroke="#f1f5f9" stroke-width="1"/>
      <line x1="512" y1="870" x2="512" y2="876" stroke="#000000" stroke-width="1.2"/>
      <text x="512" y="888" font-size="11" text-anchor="middle" fill="#000000">20</text>
    
      <line x1="708" y1="730" x2="708" y2="870" stroke="#f1f5f9" stroke-width="1"/>
      <line x1="708" y1="870" x2="708" y2="876" stroke="#000000" stroke-width="1.2"/>
      <text x="708" y="888" font-size="11" text-anchor="middle" fill="#000000">30</text>
    
      <line x1="904" y1="730" x2="904" y2="870" stroke="#f1f5f9" stroke-width="1"/>
      <line x1="904" y1="870" x2="904" y2="876" stroke="#000000" stroke-width="1.2"/>
      <text x="904" y="888" font-size="11" text-anchor="middle" fill="#000000">40</text>
    
      <line x1="1100" y1="730" x2="1100" y2="870" stroke="#f1f5f9" stroke-width="1"/>
      <line x1="1100" y1="870" x2="1100" y2="876" stroke="#000000" stroke-width="1.2"/>
      <text x="1100" y="888" font-size="11" text-anchor="middle" fill="#000000">50</text>
    
  <!-- X Label -->
  <text x="610" y="904" font-size="12" text-anchor="middle" fill="#000000">
    Time (seconds)
  </text>
  <!-- Traces -->
  <polyline fill="none" stroke="#e11d48" stroke-width="1.8" points="155.9,773.3 201.7,806.0 253.9,821.0 302.9,814.0 351.9,814.0 " />
  <circle cx="155.9" cy="773.3" r="3.5" fill="#e11d48"/><circle cx="201.7" cy="806.0" r="3.5" fill="#e11d48"/><circle cx="253.9" cy="821.0" r="3.5" fill="#e11d48"/><circle cx="302.9" cy="814.0" r="3.5" fill="#e11d48"/><circle cx="351.9" cy="814.0" r="3.5" fill="#e11d48"/>
  <line x1="120" y1="814" x2="1100" y2="814" stroke="#000000" stroke-width="1.8" stroke-dasharray="2,3"/>
  <!-- Legend -->
  <g transform="translate(865, 742)">
    <line x1="0" y1="6" x2="25" y2="6" stroke="#e11d48" stroke-width="2"/>
    <circle cx="12" cy="6" r="3.5" fill="#e11d48"/>
    <text x="32" y="10" font-size="11" fill="#000000">Instantaneous BPM</text>
    <line x1="0" y1="24" x2="25" y2="24" stroke="#000000" stroke-width="2" stroke-dasharray="2,3"/>
    <text x="32" y="28" font-size="11" fill="#000000">Median BPM (120.0 BPM)</text>
  </g>
</svg>