<svg width="1200" height="820" viewBox="0 0 1200 820" xmlns="http://www.w3.org/2000/svg" style="background:#090d16; font-family: ui-sans-serif, system-ui, -apple-system, BlinkMacSystemFont, 'Segoe UI', Roboto, sans-serif;">
  <defs>
    <!-- Background Gradients -->
    <linearGradient id="headerGrad" x1="0%" y1="0%" x2="100%" y2="0%">
      <stop offset="0%" stop-color="#0f172a"/>
      <stop offset="100%" stop-color="#1e293b"/>
    </linearGradient>
    <linearGradient id="psdGrad" x1="0%" y1="0%" x2="0%" y2="100%">
      <stop offset="0%" stop-color="#a855f7" stop-opacity="0.35"/>
      <stop offset="100%" stop-color="#a855f7" stop-opacity="0.0"/>
    </linearGradient>
    <linearGradient id="sppgGlow" x1="0%" y1="0%" x2="100%" y2="0%">
      <stop offset="0%" stop-color="#10b981"/>
      <stop offset="100%" stop-color="#34d399"/>
    </linearGradient>
  </defs>

  <!-- ================= HEADER SECTION ================= -->
  <rect x="0" y="0" width="1200" height="70" fill="url(#headerGrad)"/>
  <circle cx="36" cy="35" r="9" fill="#10b981" opacity="0.2"/>
  <circle cx="36" cy="35" r="5" fill="#10b981"/>
  
  <text x="56" y="32" font-size="16" font-weight="800" fill="#f8fafc" letter-spacing="0.5">
    THE INTERMEDIATOR <tspan font-weight="400" fill="#94a3b8">| Sternal Hemodynamic Diagnostic Card</tspan>
  </text>
  <text x="56" y="52" font-size="11" font-weight="500" fill="#64748b">
    Target Placement: Sternum Cutaneous Contact • 120+ FPS Sensor Mode • Zero-Jitter IT Timing
  </text>

  <!-- Header Right: Patient Badge & Status -->
  <rect x="800" y="16" width="365" height="38" fill="#0b1120" stroke="#334155" rx="8"/>
  <text x="815" y="34" font-size="11" font-weight="bold" fill="#38bdf8">PATIENT: <tspan fill="#ffffff">PT-REAL-VIDEO-120FPS</tspan></text>
  <text x="815" y="47" font-size="9" fill="#94a3b8">2026-09-15 11:36:39 UTC</text>
  <rect x="1000" y="22" width="155" height="26" fill="#10b98122" stroke="#10b981" rx="6"/>
  <text x="1077" y="39" font-size="10" font-weight="bold" text-anchor="middle" fill="#10b981">
    ✓ STABLE HEMODYNAMICS
  </text>

  <!-- ========================================================================= -->
  <!-- ROW 1: PANEL 1 & PANEL 2                                                 -->
  <!-- ========================================================================= -->

  <!-- PANEL 1: Sternal Contact sPPG Pulse Wave -->
  <rect x="35" y="85" width="550" height="195" fill="#0f172a" stroke="#1e293b" rx="10"/>
  <rect x="35" y="85" width="550" height="34" fill="#131e36" rx="10"/>
  <text x="50" y="107" font-size="12" font-weight="700" fill="#38bdf8">
    1. Sternal Contact sPPG (GRD Motion Cancelled)
  </text>
  <!-- P1 Chip -->
  <rect x="420" y="91" width="155" height="22" fill="#090d16" stroke="#334155" rx="5"/>
  <text x="497" y="106" font-size="10" font-weight="bold" text-anchor="middle" fill="#34d399">
    HR: 123 BPM | CT: 220ms
  </text>
  <!-- P1 Grid Lines -->
  <line x1="60" y1="135" x2="560" y2="135" stroke="#1e293b" stroke-width="0.75" stroke-dasharray="3"/>
  <line x1="60" y1="190" x2="560" y2="190" stroke="#1e293b" stroke-width="0.75" stroke-dasharray="3"/>
  <line x1="60" y1="245" x2="560" y2="245" stroke="#1e293b" stroke-width="0.75"/>
  <!-- P1 Trace & Markers -->
  <polyline fill="none" stroke="url(#sppgGlow)" stroke-width="2.5" stroke-linejoin="round" points="60.0,190.0 64.5,189.8 69.1,189.6 73.6,189.6 78.2,189.7 82.7,190.1 87.3,190.7 91.8,191.2 96.4,191.6 100.9,191.6 105.5,191.1 110.0,190.2 114.5,189.0 119.1,188.1 123.6,187.6 128.2,187.6 132.7,188.2 137.3,189.0 141.8,189.9 146.4,190.8 150.9,191.7 155.5,192.5 160.0,193.1 164.5,193.3 169.1,192.6 173.6,191.1 178.2,189.2 182.7,187.2 187.3,185.8 191.8,185.3 196.4,185.6 200.9,187.0 205.5,189.8 210.0,193.6 214.5,197.3 219.1,200.1 223.6,201.1 228.2,199.6 232.7,196.0 237.3,191.4 241.8,186.8 246.4,182.7 250.9,179.9 255.5,178.7 260.0,178.4 264.5,177.5 269.1,176.5 273.6,176.6 278.2,179.1 282.7,185.0 287.3,193.7 291.8,204.2 296.4,214.3 300.9,221.4 305.5,223.5 310.0,219.3 314.5,208.8 319.1,193.4 323.6,176.0 328.2,159.8 332.7,148.3 337.3,144.3 341.8,149.0 346.4,162.0 350.9,181.0 355.5,202.6 360.0,222.6 364.5,236.9 369.1,242.5 373.6,238.0 378.2,224.2 382.7,203.5 387.3,179.8 391.8,157.8 396.4,141.8 400.9,135.0 405.5,138.8 410.0,152.5 414.5,173.5 419.1,197.7 423.6,220.5 428.2,237.3 432.7,245.0 437.3,242.1 441.8,229.1 446.4,208.7 450.9,185.0 455.5,162.4 460.0,145.4 464.5,137.1 469.1,139.2 473.6,151.0 478.2,170.1 482.7,192.8 487.3,214.6 491.8,231.3 496.4,239.4 500.9,236.6 505.5,223.6 510.0,204.0 514.5,182.1 519.1,163.0 523.6,150.7 528.2,147.6 532.7,153.9 537.3,168.0 541.8,186.4 546.4,205.0 550.9,219.8 555.5,227.6 560.0,227.1 " />
  <polygon points="228.2,197.6 224.2,206.6 232.2,206.6" fill="#38bdf8" stroke="#0284c7" stroke-width="1"/><polygon points="310.0,217.3 306.0,226.3 314.0,226.3" fill="#38bdf8" stroke="#0284c7" stroke-width="1"/><polygon points="373.6,236.0 369.6,245.0 377.6,245.0" fill="#38bdf8" stroke="#0284c7" stroke-width="1"/><polygon points="437.3,240.1 433.3,249.1 441.3,249.1" fill="#38bdf8" stroke="#0284c7" stroke-width="1"/><polygon points="500.9,234.6 496.9,243.6 504.9,243.6" fill="#38bdf8" stroke="#0284c7" stroke-width="1"/>
  <circle cx="269.1" cy="176.5" r="4.5" fill="#f43f5e" stroke="#ffffff" stroke-width="1.5"/><circle cx="337.3" cy="144.3" r="4.5" fill="#f43f5e" stroke="#ffffff" stroke-width="1.5"/><circle cx="400.9" cy="135.0" r="4.5" fill="#f43f5e" stroke="#ffffff" stroke-width="1.5"/><circle cx="464.5" cy="137.1" r="4.5" fill="#f43f5e" stroke="#ffffff" stroke-width="1.5"/><circle cx="528.2" cy="147.6" r="4.5" fill="#f43f5e" stroke="#ffffff" stroke-width="1.5"/>
  <!-- P1 Legend -->
  <text x="60" y="263" font-size="9" fill="#64748b">
    ▲ <tspan fill="#38bdf8">IT Foot (RMSE &le; 5.7ms)</tspan> &nbsp;&nbsp; ● <tspan fill="#f43f5e">Systolic Peak</tspan> &nbsp;&nbsp; Trace: 0.75–3.5 Hz Bandpass
  </text>

  <!-- PANEL 2: SDPPG Acceleration Wave (Vascular Aging) -->
  <rect x="615" y="85" width="550" height="195" fill="#0f172a" stroke="#1e293b" rx="10"/>
  <rect x="615" y="85" width="550" height="34" fill="#131e36" rx="10"/>
  <text x="630" y="107" font-size="12" font-weight="700" fill="#fbbf24">
    2. SDPPG Second Derivative (d&sup2;G/dt&sup2;) &bull; Arterial Compliance
  </text>
  <!-- P2 Chip -->
  <rect x="980" y="91" width="175" height="22" fill="#090d16" stroke="#334155" rx="5"/>
  <text x="1067" y="106" font-size="10" font-weight="bold" text-anchor="middle" fill="#fbbf24">
    AGI: 0.36 | b/a: 0.30
  </text>
  <!-- P2 Grid & Zero Line -->
  <line x1="640" y1="135" x2="1140" y2="135" stroke="#1e293b" stroke-width="0.75" stroke-dasharray="3"/>
  <line x1="640" y1="190.6158313081844" x2="1140" y2="190.6158313081844" stroke="#475569" stroke-dasharray="4"/>
  <line x1="640" y1="245" x2="1140" y2="245" stroke="#1e293b" stroke-width="0.75"/>
  <!-- P2 Trace -->
  <polyline fill="none" stroke="#f59e0b" stroke-width="2.2" stroke-linejoin="round" points="640.0,190.6 644.5,190.7 649.1,191.5 653.6,191.7 658.2,191.6 662.7,191.4 667.3,190.7 671.8,189.7 676.4,188.8 680.9,188.1 685.5,188.4 690.0,189.7 694.5,191.4 699.1,192.8 703.6,193.6 708.2,193.3 712.7,192.0 717.3,191.0 721.8,190.5 726.4,190.3 730.9,190.4 735.5,189.8 740.0,188.1 744.5,186.4 749.1,186.4 753.6,188.2 758.2,190.7 762.7,193.3 767.3,194.9 771.8,195.2 776.4,196.4 780.9,197.6 785.5,195.2 790.0,190.5 794.5,186.1 799.1,181.4 803.6,177.8 808.2,179.5 812.7,185.8 817.3,190.4 821.8,193.5 826.4,197.1 830.9,198.8 835.5,194.9 840.0,188.4 844.5,189.2 849.1,196.6 853.6,203.5 858.2,207.2 862.7,205.9 867.3,199.3 871.8,188.4 876.4,175.8 880.9,164.7 885.5,158.1 890.0,158.3 894.5,165.8 899.1,179.7 903.6,197.3 908.2,214.9 912.7,228.7 917.3,235.3 921.8,233.1 926.4,221.9 930.9,203.7 935.5,182.2 940.0,161.5 944.5,146.0 949.1,139.1 953.6,142.3 958.2,155.3 962.7,175.6 967.3,199.2 971.8,221.4 976.4,237.8 980.9,245.0 985.5,241.6 990.0,228.1 994.5,207.2 999.1,183.0 1003.6,160.3 1008.2,143.6 1012.7,136.1 1017.3,139.3 1021.8,152.5 1026.4,173.0 1030.9,196.8 1035.5,219.2 1040.0,235.7 1044.5,243.4 1049.1,240.6 1053.6,228.3 1058.2,208.8 1062.7,186.0 1067.3,164.6 1071.8,146.2 1076.4,135.0 1080.9,138.7 1085.5,155.8 1090.0,179.6 1094.5,204.6 1099.1,225.4 1103.6,237.7 1108.2,239.2 1112.7,230.2 1117.3,213.0 1121.8,191.7 1126.4,170.9 1130.9,155.2 1135.5,147.6 1140.0,190.6 " />
  <!-- P2 Legend -->
  <text x="640" y="263" font-size="9" fill="#64748b">
    SDPPG Fiducials (a, b, c, d, e) &bull; AGI = (b - c - d - e)/a &bull; Arterial Stiffness Ratio b/a
  </text>

  <!-- ========================================================================= -->
  <!-- ROW 2: PANEL 3 & PANEL 4                                                 -->
  <!-- ========================================================================= -->

  <!-- PANEL 3: Welch Power Spectral Density -->
  <rect x="35" y="300" width="550" height="210" fill="#0f172a" stroke="#1e293b" rx="10"/>
  <rect x="35" y="300" width="550" height="34" fill="#131e36" rx="10"/>
  <text x="50" y="322" font-size="12" font-weight="700" fill="#c084fc">
    3. Welch PSD Autonomic Spectrum (0.75–3.5 Hz)
  </text>
  <!-- P3 Chip -->
  <rect x="420" y="306" width="155" height="22" fill="#090d16" stroke="#334155" rx="5"/>
  <text x="497" y="321" font-size="10" font-weight="bold" text-anchor="middle" fill="#d8b4fe">
    Cardiac Peak: 2.05 Hz
  </text>
  <!-- P3 Grid Lines -->
  <line x1="60" y1="365" x2="560" y2="365" stroke="#1e293b" stroke-width="0.75" stroke-dasharray="3"/>
  <line x1="60" y1="420" x2="560" y2="420" stroke="#1e293b" stroke-width="0.75" stroke-dasharray="3"/>
  <line x1="60" y1="475" x2="560" y2="475" stroke="#1e293b" stroke-width="0.75"/>
  <!-- P3 Area & Line -->
  <polygon fill="url(#psdGrad)" points="60,475 60.0,475.0 68.4,475.0 76.7,475.0 85.1,475.0 93.5,475.0 101.9,475.0 110.2,475.0 118.6,475.0 127.0,475.0 135.3,475.0 143.7,475.0 152.1,475.0 160.4,475.0 168.8,475.0 177.2,474.9 185.6,474.9 193.9,474.9 202.3,474.8 210.7,474.7 219.0,474.5 227.4,474.3 235.8,474.2 244.2,474.0 252.5,473.7 260.9,472.7 269.3,470.7 277.6,466.6 286.0,459.8 294.4,449.6 302.7,435.8 311.1,419.1 319.5,401.3 327.9,384.8 336.2,372.0 344.6,365.1 353.0,365.0 361.3,371.4 369.7,382.6 378.1,396.4 386.5,410.6 394.8,423.8 403.2,435.2 411.6,444.8 419.9,452.7 428.3,459.3 436.7,464.5 445.0,468.5 453.4,471.2 461.8,472.9 470.2,473.8 478.5,474.1 486.9,474.3 495.3,474.3 503.6,474.4 512.0,474.6 520.4,474.7 528.8,474.8 537.1,474.9 545.5,474.9 553.9,474.9 560,475"/>
  <polyline fill="none" stroke="#a855f7" stroke-width="2.2" points="60.0,475.0 68.4,475.0 76.7,475.0 85.1,475.0 93.5,475.0 101.9,475.0 110.2,475.0 118.6,475.0 127.0,475.0 135.3,475.0 143.7,475.0 152.1,475.0 160.4,475.0 168.8,475.0 177.2,474.9 185.6,474.9 193.9,474.9 202.3,474.8 210.7,474.7 219.0,474.5 227.4,474.3 235.8,474.2 244.2,474.0 252.5,473.7 260.9,472.7 269.3,470.7 277.6,466.6 286.0,459.8 294.4,449.6 302.7,435.8 311.1,419.1 319.5,401.3 327.9,384.8 336.2,372.0 344.6,365.1 353.0,365.0 361.3,371.4 369.7,382.6 378.1,396.4 386.5,410.6 394.8,423.8 403.2,435.2 411.6,444.8 419.9,452.7 428.3,459.3 436.7,464.5 445.0,468.5 453.4,471.2 461.8,472.9 470.2,473.8 478.5,474.1 486.9,474.3 495.3,474.3 503.6,474.4 512.0,474.6 520.4,474.7 528.8,474.8 537.1,474.9 545.5,474.9 553.9,474.9 " />
  <!-- P3 Ticks -->
  <text x="60" y="490" font-size="9" fill="#64748b">0.5 Hz</text>
  <text x="225" y="490" font-size="9" fill="#64748b">1.5 Hz</text>
  <text x="390" y="490" font-size="9" fill="#64748b">2.5 Hz</text>
  <text x="540" y="490" font-size="9" fill="#64748b">3.5 Hz</text>
  <!-- P3 Summary -->
  <text x="60" y="505" font-size="9" fill="#94a3b8">
    LF/HF Autonomic Ratio: <tspan font-weight="bold" fill="#c084fc">1.50</tspan> (Balanced Vagal Tone)
  </text>

  <!-- PANEL 4: Poincaré Non-Linear Dynamics -->
  <rect x="615" y="300" width="550" height="210" fill="#0f172a" stroke="#1e293b" rx="10"/>
  <rect x="615" y="300" width="550" height="34" fill="#131e36" rx="10"/>
  <text x="630" y="322" font-size="12" font-weight="700" fill="#34d399">
    4. Poincaré Non-Linear Dynamics (NN[k] vs NN[k+1])
  </text>
  <!-- P4 Chip -->
  <rect x="990" y="306" width="165" height="22" fill="#090d16" stroke="#334155" rx="5"/>
  <text x="1072" y="321" font-size="10" font-weight="bold" text-anchor="middle" fill="#34d399">
    RMSSD: 77 ms
  </text>
  <!-- P4 Scatter Box -->
  <rect x="640" y="360" width="125" height="125" fill="#0b1120" stroke="#334155" rx="6"/>
  <line x1="640" y1="485" x2="765" y2="360" stroke="#475569" stroke-dasharray="3"/>
  <circle cx="741.6" cy="461.6" r="3.5" fill="#34d399" stroke="#064e3b" stroke-width="1" opacity="0.85"/><circle cx="663.4" cy="461.6" r="3.5" fill="#34d399" stroke="#064e3b" stroke-width="1" opacity="0.85"/><circle cx="663.4" cy="461.6" r="3.5" fill="#34d399" stroke="#064e3b" stroke-width="1" opacity="0.85"/>
  <text x="650" y="479" font-size="8" fill="#64748b">NN[k]</text>
  <text x="646" y="374" font-size="8" fill="#64748b">NN[k+1]</text>
  <!-- P4 Metric Callouts -->
  <g transform="translate(785, 355)">
    <rect x="0" y="0" width="365" height="38" fill="#0b1120" stroke="#1e293b" rx="6"/>
    <text x="12" y="24" font-size="11" fill="#94a3b8">SD1 (Short-Term / Vagal Tone):</text>
    <text x="350" y="24" font-size="13" font-weight="bold" text-anchor="end" fill="#38bdf8">54.4 ms</text>

    <rect x="0" y="44" width="365" height="38" fill="#0b1120" stroke="#1e293b" rx="6"/>
    <text x="12" y="68" font-size="11" fill="#94a3b8">SD2 (Long-Term Continuous):</text>
    <text x="350" y="68" font-size="13" font-weight="bold" text-anchor="end" fill="#38bdf8">60.9 ms</text>

    <rect x="0" y="88" width="365" height="38" fill="#0b1120" stroke="#1e293b" rx="6"/>
    <text x="12" y="112" font-size="11" fill="#94a3b8">SDNN Total Variance:</text>
    <text x="350" y="112" font-size="13" font-weight="bold" text-anchor="end" fill="#34d399">57.7 ms</text>
  </g>

  <!-- ========================================================================= -->
  <!-- ROW 3: PANEL 5 & PANEL 6                                                 -->
  <!-- ========================================================================= -->

  <!-- PANEL 5: Tri-Modal Smart Respiration Fusion -->
  <rect x="35" y="530" width="550" height="235" fill="#0f172a" stroke="#1e293b" rx="10"/>
  <rect x="35" y="530" width="550" height="34" fill="#131e36" rx="10"/>
  <text x="50" y="552" font-size="12" font-weight="700" fill="#22d3ee">
    5. Tri-Modal Smart Respiration Fusion (Sternal BW + AM + FM)
  </text>
  <!-- Channel 1: BW -->
  <g transform="translate(50, 580)">
    <text x="0" y="12" font-size="10" font-weight="600" fill="#94a3b8">Baseline Wander (BW - Rib Excursion)</text>
    <rect x="230" y="0" width="220" height="14" fill="#0b1120" rx="3"/>
    <rect x="230" y="0" width="107.55555555555557" height="14" fill="#06b6d4" rx="3"/>
    <text x="460" y="12" font-size="11" font-weight="bold" fill="#22d3ee">17.6 BrPM</text>
  </g>
  <!-- Channel 2: AM -->
  <g transform="translate(50, 610)">
    <text x="0" y="12" font-size="10" font-weight="600" fill="#94a3b8">Amplitude Modulation (AM - Stroke Vol)</text>
    <rect x="230" y="0" width="220" height="14" fill="#0b1120" rx="3"/>
    <rect x="230" y="0" width="107.55555555555557" height="14" fill="#3b82f6" rx="3"/>
    <text x="460" y="12" font-size="11" font-weight="bold" fill="#60a5fa">17.6 BrPM</text>
  </g>
  <!-- Channel 3: FM -->
  <g transform="translate(50, 640)">
    <text x="0" y="12" font-size="10" font-weight="600" fill="#94a3b8">Frequency Modulation (FM - RSA Timing)</text>
    <rect x="230" y="0" width="220" height="14" fill="#0b1120" rx="3"/>
    <rect x="230" y="0" width="107.55555555555557" height="14" fill="#8b5cf6" rx="3"/>
    <text x="460" y="12" font-size="11" font-weight="bold" fill="#a78bfa">17.6 BrPM</text>
  </g>
  <!-- Consensus Callout Box -->
  <rect x="50" y="675" width="515" height="72" fill="#0b1120" stroke="#334155" rx="8"/>
  <text x="68" y="705" font-size="11" font-weight="bold" fill="#64748b">CONSENSUS RESPIRATORY RATE:</text>
  <text x="68" y="736" font-size="28" font-weight="900" fill="#22d3ee">
    17.6 <tspan font-size="13" font-weight="600" fill="#94a3b8">BrPM</tspan>
  </text>
  <rect x="360" y="694" width="190" height="34" fill="#f59e0b22" stroke="#f59e0b" rx="6"/>
  <text x="455" y="715" font-size="10" font-weight="bold" text-anchor="middle" fill="#fbbf24">
    ⚠ Multi-Modal Variance
  </text>

  <!-- PANEL 6: Clinical Hemodynamics & 4-Gate SQI Protocol Matrix -->
  <rect x="615" y="530" width="550" height="235" fill="#0f172a" stroke="#1e293b" rx="10"/>
  <rect x="615" y="530" width="550" height="34" fill="#131e36" rx="10"/>
  <text x="630" y="552" font-size="12" font-weight="700" fill="#f43f5e">
    6. Clinical Hemodynamic Matrix &bull; 4-Gate SQI Protocol
  </text>
  <!-- Row 1: 3 Big Vital Badges -->
  <g transform="translate(630, 576)">
    <!-- HR -->
    <rect x="0" y="0" width="160" height="60" fill="#0b1120" stroke="#1e293b" rx="6"/>
    <text x="12" y="18" font-size="9" font-weight="bold" fill="#64748b">HEART RATE</text>
    <text x="12" y="47" font-size="22" font-weight="900" fill="#ef4444">
      123 <tspan font-size="11" font-weight="600" fill="#64748b">BPM</tspan>
    </text>

    <!-- SpO2 -->
    <rect x="175" y="0" width="160" height="60" fill="#0b1120" stroke="#1e293b" rx="6"/>
    <text x="187" y="18" font-size="9" font-weight="bold" fill="#64748b">SpO2 (Reflectance)</text>
    <text x="187" y="47" font-size="22" font-weight="900" fill="#ef4444">
      85.9 <tspan font-size="11" font-weight="600" fill="#64748b">%</tspan>
    </text>

    <!-- PI -->
    <rect x="350" y="0" width="165" height="60" fill="#0b1120" stroke="#1e293b" rx="6"/>
    <text x="362" y="18" font-size="9" font-weight="bold" fill="#64748b">PERFUSION INDEX</text>
    <text x="362" y="47" font-size="22" font-weight="900" fill="#10b981">
      22.36 <tspan font-size="11" font-weight="600" fill="#64748b">%</tspan>
    </text>
  </g>

  <!-- Row 2: 4-Gate SQI Protocol Matrix -->
  <g transform="translate(630, 648)">
    <rect x="0" y="0" width="515" height="100" fill="#0b1120" stroke="#334155" rx="8"/>
    <text x="15" y="22" font-size="11" font-weight="bold" fill="#f8fafc">
      4-GATE MULTI-TIER SQI PROTOCOL: <tspan fill="#34d399">100% (TIER 1 EXCELLENT)</tspan>
    </text>
    <line x1="15" y1="32" x2="500" y2="32" stroke="#1e293b"/>

    <!-- SQI Items -->
    <text x="15" y="52" font-size="10" fill="#94a3b8">Gate 1 (PI &ge; 0.15%):</text>
    <text x="140" y="52" font-size="10" font-weight="bold" fill="#34d399">PASS</text>

    <text x="200" y="52" font-size="10" fill="#94a3b8">Gate 2 (Template r &ge; 0.85):</text>
    <text x="375" y="52" font-size="10" font-weight="bold" fill="#38bdf8">0.92</text>

    <text x="15" y="72" font-size="10" fill="#94a3b8">Gate 3 (Skewness S &gt; 0):</text>
    <text x="140" y="72" font-size="10" font-weight="bold" fill="#38bdf8">0.01</text>

    <text x="200" y="72" font-size="10" fill="#94a3b8">Gate 4 (Zero-Crossing Z=2):</text>
    <text x="375" y="72" font-size="10" font-weight="bold" fill="#34d399">PASS</text>

    <text x="15" y="91" font-size="10" fill="#94a3b8">Transmural Contact Pressure:</text>
    <text x="175" y="91" font-size="10" font-weight="bold" fill="#34d399">OPTIMAL</text>
  </g>

  <!-- ================= FOOTER ================= -->
  <text x="600" y="798" font-size="10" text-anchor="middle" fill="#475569">
    CONFIDENTIAL CLINICAL TELEMETRY &bull; Generated by The Intermediator DSP Engine &bull; Instant Paramedic Telegram Relay (@PulseGuardbbot)
  </text>
</svg>