
<svg width="1280" height="960" viewBox="0 0 1280 960" xmlns="http://www.w3.org/2000/svg" style="background:#090d16; font-family: ui-sans-serif, system-ui, -apple-system, BlinkMacSystemFont, 'Segoe UI', Roboto, sans-serif;">
  <!-- Header Bar -->
  <rect x="0" y="0" width="1280" height="60" fill="#0f172a" border="none"/>
  <text x="40" y="38" font-size="20" font-weight="bold" fill="#38bdf8">
    THE INTERMEDIATOR | Emergency Collapse Hemodynamic Monitor
  </text>
  <text x="1240" y="38" font-size="13" font-weight="semibold" text-anchor="end" fill="#94a3b8">
    Patient ID: <tspan fill="#f8fafc">PT-ASYSTOLE-EMERGENCY</tspan> • Mode: Sternal/Arm 120+ FPS Contact sPPG
  </text>

  <!-- ================= PANEL 1: Sternal sPPG Pulse Wave (IT Feet + Peaks) ================= -->
  <rect x="40" y="70" width="580" height="180" fill="#131d31" stroke="#1e293b" rx="10"/>
  <text x="60" y="94" font-size="12" font-weight="bold" fill="#38bdf8">
    1. Sternal Contact sPPG (GRD Motion Cancelled) • Intersecting Tangents
  </text>
  <line x1="60" y1="150" x2="580" y2="150" stroke="#1e293b" stroke-dasharray="3"/>
  <polyline fill="none" stroke="#10b981" stroke-width="2.5" points="60.0,209.6 62.9,209.6 65.8,209.6 68.7,209.6 71.6,209.7 74.5,209.7 77.4,209.7 80.3,209.7 83.2,209.6 86.1,209.6 89.1,209.6 92.0,209.6 94.9,209.6 97.8,209.6 100.7,209.7 103.6,209.7 106.5,209.7 109.4,209.7 112.3,209.7 115.2,209.7 118.1,209.6 121.0,209.6 123.9,209.5 126.8,209.5 129.7,209.5 132.6,209.5 135.5,209.6 138.4,209.7 141.3,209.8 144.2,209.9 147.2,209.9 150.1,209.9 153.0,209.8 155.9,209.7 158.8,209.6 161.7,209.5 164.6,209.4 167.5,209.3 170.4,209.4 173.3,209.4 176.2,209.6 179.1,209.7 182.0,209.8 184.9,209.9 187.8,209.9 190.7,209.9 193.6,209.9 196.5,209.7 199.4,209.6 202.3,209.5 205.3,209.4 208.2,209.4 211.1,209.4 214.0,209.5 216.9,209.6 219.8,209.7 222.7,209.8 225.6,209.8 228.5,209.8 231.4,209.8 234.3,209.7 237.2,209.7 240.1,209.6 243.0,209.6 245.9,209.6 248.8,209.6 251.7,209.6 254.6,209.6 257.5,209.6 260.4,209.6 263.4,209.6 266.3,209.6 269.2,209.6 272.1,209.6 275.0,209.6 277.9,209.7 280.8,209.7 283.7,209.7 286.6,209.7 289.5,209.7 292.4,209.7 295.3,209.6 298.2,209.6 301.1,209.6 304.0,209.5 306.9,209.5 309.8,209.5 312.7,209.5 315.6,209.6 318.5,209.7 321.5,209.7 324.4,209.8 327.3,209.8 330.2,209.8 333.1,209.8 336.0,209.7 338.9,209.7 341.8,209.6 344.7,209.5 347.6,209.5 350.5,209.4 353.4,209.5 356.3,209.5 359.2,209.6 362.1,209.6 365.0,209.7 367.9,209.8 370.8,209.8 373.7,209.8 376.6,209.8 379.6,209.7 382.5,209.7 385.4,209.6 388.3,209.5 391.2,209.4 394.1,209.4 397.0,209.4 399.9,209.5 402.8,209.6 405.7,209.7 408.6,209.8 411.5,209.8 414.4,209.9 417.3,209.9 420.2,209.8 423.1,209.7 426.0,209.6 428.9,209.4 431.8,209.3 434.7,209.3 437.7,209.4 440.6,209.5 443.5,209.6 446.4,209.8 449.3,209.9 452.2,210.0 455.1,210.0 458.0,209.9 460.9,209.8 463.8,209.6 466.7,209.5 469.6,209.4 472.5,209.3 475.4,209.3 478.3,209.4 481.2,209.5 484.1,209.6 487.0,209.8 489.9,209.9 492.8,210.0 495.8,209.9 498.7,209.9 501.6,209.8 504.5,209.7 507.4,209.5 510.3,209.5 513.2,209.4 516.1,209.4 519.0,209.4 521.9,209.5 524.8,209.6 527.7,209.7 530.6,209.8 533.5,209.8 536.4,209.8 539.3,209.8 542.2,209.8 545.1,209.7 548.0,209.6 550.9,209.5 553.9,209.5 556.8,209.4 559.7,209.5 562.6,209.5 565.5,209.6 568.4,209.7 571.3,209.8 574.2,209.8 577.1,209.8 580.0,209.8 " />
  <polygon points="80.3,212.7 76.3,219.7 84.3,219.7" fill="#3b82f6" /><polygon points="112.3,212.7 108.3,219.7 116.3,219.7" fill="#3b82f6" /><polygon points="150.1,212.9 146.1,219.9 154.1,219.9" fill="#3b82f6" /><polygon points="190.7,212.9 186.7,219.9 194.7,219.9" fill="#3b82f6" /><polygon points="231.4,212.8 227.4,219.8 235.4,219.8" fill="#3b82f6" /><polygon points="289.5,212.7 285.5,219.7 293.5,219.7" fill="#3b82f6" /><polygon points="333.1,212.8 329.1,219.8 337.1,219.8" fill="#3b82f6" /><polygon points="376.6,212.8 372.6,219.8 380.6,219.8" fill="#3b82f6" /><polygon points="420.2,212.8 416.2,219.8 424.2,219.8" fill="#3b82f6" /><polygon points="458.0,212.9 454.0,219.9 462.0,219.9" fill="#3b82f6" /><polygon points="495.8,212.9 491.8,219.9 499.8,219.9" fill="#3b82f6" /><polygon points="542.2,212.8 538.2,219.8 546.2,219.8" fill="#3b82f6" /><polygon points="580.0,212.8 576.0,219.8 584.0,219.8" fill="#3b82f6" />
  <circle cx="92.0" cy="209.6" r="4" fill="#ef4444" stroke="#ffffff" stroke-width="1.5"/><circle cx="126.8" cy="209.5" r="4" fill="#ef4444" stroke="#ffffff" stroke-width="1.5"/><circle cx="167.5" cy="209.3" r="4" fill="#ef4444" stroke="#ffffff" stroke-width="1.5"/><circle cx="208.2" cy="209.4" r="4" fill="#ef4444" stroke="#ffffff" stroke-width="1.5"/><circle cx="245.9" cy="209.6" r="4" fill="#ef4444" stroke="#ffffff" stroke-width="1.5"/><circle cx="309.8" cy="209.5" r="4" fill="#ef4444" stroke="#ffffff" stroke-width="1.5"/><circle cx="350.5" cy="209.4" r="4" fill="#ef4444" stroke="#ffffff" stroke-width="1.5"/><circle cx="394.1" cy="209.4" r="4" fill="#ef4444" stroke="#ffffff" stroke-width="1.5"/><circle cx="434.7" cy="209.3" r="4" fill="#ef4444" stroke="#ffffff" stroke-width="1.5"/><circle cx="475.4" cy="209.3" r="4" fill="#ef4444" stroke="#ffffff" stroke-width="1.5"/><circle cx="516.1" cy="209.4" r="4" fill="#ef4444" stroke="#ffffff" stroke-width="1.5"/><circle cx="556.8" cy="209.4" r="4" fill="#ef4444" stroke="#ffffff" stroke-width="1.5"/>
  <rect x="440" y="80" width="160" height="22" fill="#0f172a" stroke="#334155" rx="5"/>
  <text x="520" y="95" font-size="10" font-weight="bold" text-anchor="middle" fill="#34d399">
    HR: 126.6 BPM | CT: 190.3ms
  </text>

  <!-- ================= PANEL 2: SDPPG Acceleration Wave (Vascular Aging AGI) ================= -->
  <rect x="660" y="70" width="580" height="180" fill="#131d31" stroke="#1e293b" rx="10"/>
  <text x="680" y="94" font-size="12" font-weight="bold" fill="#f59e0b">
    2. Second Derivative Photoplethysmogram (SDPPG / APG) • Vascular Aging
  </text>
  <line x1="680" y1="150" x2="1200" y2="150" stroke="#1e293b" stroke-dasharray="3"/>
  <polyline fill="none" stroke="#f59e0b" stroke-width="2" points="680.0,150.4 682.9,154.9 685.8,159.0 688.7,154.5 691.6,149.4 694.5,143.7 697.4,138.6 700.3,139.4 703.2,145.8 706.1,153.8 709.1,163.6 712.0,170.5 714.9,167.1 717.8,158.8 720.7,146.5 723.6,134.8 726.5,132.8 729.4,134.2 732.3,133.6 735.2,135.6 738.1,145.7 741.0,159.1 743.9,168.5 746.8,177.6 749.7,180.4 752.6,175.6 755.5,166.6 758.4,151.4 761.3,134.5 764.2,117.4 767.2,109.9 770.1,112.5 773.0,119.1 775.9,139.4 778.8,161.5 781.7,173.2 784.6,183.9 787.5,193.4 790.4,193.5 793.3,180.9 796.2,162.6 799.1,143.8 802.0,124.0 804.9,111.6 807.8,108.7 810.7,109.2 813.6,117.4 816.5,137.4 819.4,158.9 822.3,174.3 825.3,188.5 828.2,196.9 831.1,187.5 834.0,172.0 836.9,156.7 839.8,135.6 842.7,121.3 845.6,118.5 848.5,125.6 851.4,135.6 854.3,140.5 857.2,149.7 860.1,161.2 863.0,168.2 865.9,168.3 868.8,160.5 871.7,151.4 874.6,145.0 877.5,142.5 880.4,142.4 883.4,147.7 886.3,159.5 889.2,163.0 892.1,159.0 895.0,158.9 897.9,153.1 900.8,138.5 903.7,131.6 906.6,134.0 909.5,140.2 912.4,146.8 915.3,148.2 918.2,151.7 921.1,156.0 924.0,157.0 926.9,164.5 929.8,175.9 932.7,176.3 935.6,161.7 938.5,145.1 941.5,137.5 944.4,134.8 947.3,130.3 950.2,125.7 953.1,128.2 956.0,137.7 958.9,146.9 961.8,155.5 964.7,165.9 967.6,176.8 970.5,177.0 973.4,169.6 976.3,165.3 979.2,155.9 982.1,148.4 985.0,145.5 987.9,137.7 990.8,127.5 993.7,119.4 996.6,124.9 999.6,139.2 1002.5,144.2 1005.4,150.3 1008.3,167.6 1011.2,180.6 1014.1,182.1 1017.0,178.5 1019.9,169.8 1022.8,156.2 1025.7,146.9 1028.6,139.7 1031.5,126.4 1034.4,113.8 1037.3,110.0 1040.2,115.1 1043.1,128.6 1046.0,151.5 1048.9,178.0 1051.8,200.7 1054.7,210.0 1057.7,200.2 1060.6,176.9 1063.5,153.4 1066.4,136.6 1069.3,114.9 1072.2,93.0 1075.1,90.0 1078.0,104.9 1080.9,128.1 1083.8,152.0 1086.7,172.7 1089.6,190.7 1092.5,206.0 1095.4,208.3 1098.3,193.4 1101.2,170.6 1104.1,143.8 1107.0,119.0 1109.9,104.1 1112.8,100.4 1115.8,108.7 1118.7,127.7 1121.6,145.5 1124.5,155.6 1127.4,166.4 1130.3,175.7 1133.2,177.5 1136.1,179.6 1139.0,177.7 1141.9,168.3 1144.8,157.4 1147.7,140.1 1150.6,129.6 1153.5,128.7 1156.4,123.8 1159.3,123.4 1162.2,130.2 1165.1,138.0 1168.0,150.6 1170.9,166.9 1173.9,184.8 1176.8,190.7 1179.7,180.4 1182.6,167.2 1185.5,147.2 1188.4,126.4 1191.3,121.5 1194.2,127.7 1197.1,134.0 1200.0,139.3 " />
  <rect x="1030" y="80" width="190" height="22" fill="#0f172a" stroke="#334155" rx="5"/>
  <text x="1125" y="95" font-size="10" font-weight="bold" text-anchor="middle" fill="#fbbf24">
    AGI: 0.9 | b/a: 0.44
  </text>

  <!-- ================= PANEL 3: Welch PSD Autonomic Spectrum (LF/HF) ================= -->
  <rect x="40" y="270" width="580" height="180" fill="#131d31" stroke="#1e293b" rx="10"/>
  <text x="60" y="294" font-size="12" font-weight="bold" fill="#a855f7">
    3. Welch PSD Autonomic Spectrum (Cardiac Peak: 2.11 Hz)
  </text>
  <line x1="60" y1="350" x2="580" y2="350" stroke="#1e293b" stroke-dasharray="3"/>
  <polyline fill="none" stroke="#c084fc" stroke-width="2" points="60.0,410.0 68.7,410.0 77.4,410.0 86.1,410.0 94.8,410.0 103.5,410.0 112.2,410.0 120.9,410.0 129.6,410.0 138.3,410.0 147.1,410.0 155.8,410.0 164.5,410.0 173.2,410.0 181.9,410.0 190.6,410.0 199.3,410.0 208.0,410.0 216.7,410.0 225.4,410.0 234.1,410.0 242.8,410.0 251.5,410.0 260.2,410.0 268.9,409.9 277.6,409.7 286.3,409.7 295.0,410.0 303.8,409.3 312.5,409.2 321.2,407.1 329.9,405.8 338.6,404.0 347.3,408.6 356.0,408.5 364.7,358.0 373.4,290.0 382.1,324.0 390.8,377.9 399.5,403.8 408.2,406.5 416.9,398.0 425.6,407.4 434.3,409.9 443.0,409.7 451.7,409.6 460.4,409.8 469.2,409.6 477.9,409.6 486.6,410.0 495.3,409.9 504.0,409.9 512.7,409.8 521.4,409.9 530.1,410.0 538.8,410.0 547.5,410.0 556.2,410.0 564.9,410.0 573.6,409.9 " />
  <rect x="440" y="280" width="160" height="22" fill="#0f172a" stroke="#334155" rx="5"/>
  <text x="520" y="295" font-size="10" font-weight="bold" text-anchor="middle" fill="#d8b4fe">
    LF/HF Ratio: 1.5 (Balanced)
  </text>

  <!-- ================= PANEL 4: Poincaré Non-Linear Dynamics ================= -->
  <rect x="660" y="270" width="580" height="180" fill="#131d31" stroke="#1e293b" rx="10"/>
  <text x="680" y="294" font-size="12" font-weight="bold" fill="#38bdf8">
    4. Poincaré Non-Linear Dynamics (NN[k] vs NN[k+1])
  </text>
  <rect x="710" y="275" width="160" height="160" fill="#0b1120" stroke="#1e293b" rx="6"/>
  <line x1="710" y1="435" x2="870" y2="275" stroke="#334155" stroke-dasharray="2"/>
  <circle cx="730.2" cy="392.7" r="4" fill="#10b981" stroke="#064e3b" stroke-width="1" opacity="0.8"/><circle cx="747.3" cy="384.1" r="4" fill="#10b981" stroke="#064e3b" stroke-width="1" opacity="0.8"/><circle cx="755.9" cy="384.1" r="4" fill="#10b981" stroke="#064e3b" stroke-width="1" opacity="0.8"/><circle cx="755.9" cy="332.9" r="4" fill="#10b981" stroke="#064e3b" stroke-width="1" opacity="0.8"/><circle cx="807.1" cy="375.6" r="4" fill="#10b981" stroke="#064e3b" stroke-width="1" opacity="0.8"/><circle cx="764.4" cy="375.6" r="4" fill="#10b981" stroke="#064e3b" stroke-width="1" opacity="0.8"/><circle cx="764.4" cy="375.6" r="4" fill="#10b981" stroke="#064e3b" stroke-width="1" opacity="0.8"/><circle cx="764.4" cy="392.7" r="4" fill="#10b981" stroke="#064e3b" stroke-width="1" opacity="0.8"/><circle cx="747.3" cy="392.7" r="4" fill="#10b981" stroke="#064e3b" stroke-width="1" opacity="0.8"/><circle cx="747.3" cy="367.1" r="4" fill="#10b981" stroke="#064e3b" stroke-width="1" opacity="0.8"/><circle cx="772.9" cy="392.7" r="4" fill="#10b981" stroke="#064e3b" stroke-width="1" opacity="0.8"/><circle cx="747.3" cy="375.6" r="4" fill="#10b981" stroke="#064e3b" stroke-width="1" opacity="0.8"/><circle cx="764.4" cy="384.1" r="4" fill="#10b981" stroke="#064e3b" stroke-width="1" opacity="0.8"/><circle cx="755.9" cy="384.1" r="4" fill="#10b981" stroke="#064e3b" stroke-width="1" opacity="0.8"/><circle cx="755.9" cy="384.1" r="4" fill="#10b981" stroke="#064e3b" stroke-width="1" opacity="0.8"/><circle cx="755.9" cy="384.1" r="4" fill="#10b981" stroke="#064e3b" stroke-width="1" opacity="0.8"/><circle cx="755.9" cy="384.1" r="4" fill="#10b981" stroke="#064e3b" stroke-width="1" opacity="0.8"/><circle cx="755.9" cy="392.7" r="4" fill="#10b981" stroke="#064e3b" stroke-width="1" opacity="0.8"/><circle cx="747.3" cy="384.1" r="4" fill="#10b981" stroke="#064e3b" stroke-width="1" opacity="0.8"/><circle cx="755.9" cy="384.1" r="4" fill="#10b981" stroke="#064e3b" stroke-width="1" opacity="0.8"/><circle cx="755.9" cy="367.1" r="4" fill="#10b981" stroke="#064e3b" stroke-width="1" opacity="0.8"/><circle cx="772.9" cy="384.1" r="4" fill="#10b981" stroke="#064e3b" stroke-width="1" opacity="0.8"/><circle cx="755.9" cy="384.1" r="4" fill="#10b981" stroke="#064e3b" stroke-width="1" opacity="0.8"/><circle cx="755.9" cy="290.2" r="4" fill="#10b981" stroke="#064e3b" stroke-width="1" opacity="0.8"/><circle cx="849.8" cy="307.3" r="4" fill="#10b981" stroke="#064e3b" stroke-width="1" opacity="0.8"/><circle cx="832.7" cy="384.1" r="4" fill="#10b981" stroke="#064e3b" stroke-width="1" opacity="0.8"/><circle cx="755.9" cy="392.7" r="4" fill="#10b981" stroke="#064e3b" stroke-width="1" opacity="0.8"/><circle cx="747.3" cy="392.7" r="4" fill="#10b981" stroke="#064e3b" stroke-width="1" opacity="0.8"/><circle cx="747.3" cy="401.2" r="4" fill="#10b981" stroke="#064e3b" stroke-width="1" opacity="0.8"/><circle cx="738.8" cy="401.2" r="4" fill="#10b981" stroke="#064e3b" stroke-width="1" opacity="0.8"/><circle cx="738.8" cy="384.1" r="4" fill="#10b981" stroke="#064e3b" stroke-width="1" opacity="0.8"/><circle cx="755.9" cy="392.7" r="4" fill="#10b981" stroke="#064e3b" stroke-width="1" opacity="0.8"/><circle cx="747.3" cy="392.7" r="4" fill="#10b981" stroke="#064e3b" stroke-width="1" opacity="0.8"/><circle cx="747.3" cy="324.4" r="4" fill="#10b981" stroke="#064e3b" stroke-width="1" opacity="0.8"/><circle cx="815.6" cy="375.6" r="4" fill="#10b981" stroke="#064e3b" stroke-width="1" opacity="0.8"/><circle cx="764.4" cy="384.1" r="4" fill="#10b981" stroke="#064e3b" stroke-width="1" opacity="0.8"/><circle cx="755.9" cy="392.7" r="4" fill="#10b981" stroke="#064e3b" stroke-width="1" opacity="0.8"/><circle cx="747.3" cy="384.1" r="4" fill="#10b981" stroke="#064e3b" stroke-width="1" opacity="0.8"/><circle cx="755.9" cy="375.6" r="4" fill="#10b981" stroke="#064e3b" stroke-width="1" opacity="0.8"/><circle cx="764.4" cy="384.1" r="4" fill="#10b981" stroke="#064e3b" stroke-width="1" opacity="0.8"/><circle cx="755.9" cy="392.7" r="4" fill="#10b981" stroke="#064e3b" stroke-width="1" opacity="0.8"/><circle cx="747.3" cy="384.1" r="4" fill="#10b981" stroke="#064e3b" stroke-width="1" opacity="0.8"/><circle cx="755.9" cy="392.7" r="4" fill="#10b981" stroke="#064e3b" stroke-width="1" opacity="0.8"/><circle cx="747.3" cy="401.2" r="4" fill="#10b981" stroke="#064e3b" stroke-width="1" opacity="0.8"/><circle cx="738.8" cy="392.7" r="4" fill="#10b981" stroke="#064e3b" stroke-width="1" opacity="0.8"/><circle cx="747.3" cy="392.7" r="4" fill="#10b981" stroke="#064e3b" stroke-width="1" opacity="0.8"/><circle cx="747.3" cy="367.1" r="4" fill="#10b981" stroke="#064e3b" stroke-width="1" opacity="0.8"/><circle cx="772.9" cy="375.6" r="4" fill="#10b981" stroke="#064e3b" stroke-width="1" opacity="0.8"/><circle cx="764.4" cy="384.1" r="4" fill="#10b981" stroke="#064e3b" stroke-width="1" opacity="0.8"/><circle cx="755.9" cy="375.6" r="4" fill="#10b981" stroke="#064e3b" stroke-width="1" opacity="0.8"/><circle cx="764.4" cy="384.1" r="4" fill="#10b981" stroke="#064e3b" stroke-width="1" opacity="0.8"/><circle cx="755.9" cy="392.7" r="4" fill="#10b981" stroke="#064e3b" stroke-width="1" opacity="0.8"/><circle cx="747.3" cy="392.7" r="4" fill="#10b981" stroke="#064e3b" stroke-width="1" opacity="0.8"/><circle cx="747.3" cy="392.7" r="4" fill="#10b981" stroke="#064e3b" stroke-width="1" opacity="0.8"/><circle cx="747.3" cy="392.7" r="4" fill="#10b981" stroke="#064e3b" stroke-width="1" opacity="0.8"/><circle cx="747.3" cy="324.4" r="4" fill="#10b981" stroke="#064e3b" stroke-width="1" opacity="0.8"/><circle cx="815.6" cy="401.2" r="4" fill="#10b981" stroke="#064e3b" stroke-width="1" opacity="0.8"/><circle cx="738.8" cy="384.1" r="4" fill="#10b981" stroke="#064e3b" stroke-width="1" opacity="0.8"/><circle cx="755.9" cy="401.2" r="4" fill="#10b981" stroke="#064e3b" stroke-width="1" opacity="0.8"/><circle cx="738.8" cy="384.1" r="4" fill="#10b981" stroke="#064e3b" stroke-width="1" opacity="0.8"/>
  <rect x="910" y="320" width="310" height="90" fill="#0f172a" stroke="#334155" rx="6"/>
  <text x="925" y="345" font-size="11" fill="#94a3b8">• SD1 (Short-Term / Parasymp): <tspan font-weight="bold" fill="#38bdf8">74.3 ms</tspan></text>
  <text x="925" y="370" font-size="11" fill="#94a3b8">• SD2 (Long-Term Autonomic): <tspan font-weight="bold" fill="#38bdf8">94 ms</tspan></text>
  <text x="925" y="395" font-size="11" fill="#94a3b8">• HRV RMSSD: <tspan font-weight="bold" fill="#34d399">105.1 ms</tspan></text>

  <!-- ================= PANEL 5: Tri-Modal Smart Respiratory Fusion ================= -->
  <rect x="40" y="470" width="580" height="230" fill="#131d31" stroke="#1e293b" rx="10"/>
  <text x="60" y="494" font-size="12" font-weight="bold" fill="#06b6d4">
    5. Tri-Modal Smart Respiration Fusion (Sternal Rib Excursion vs RSA)
  </text>

  <!-- Bar 1: BW Sternal Rib Cage -->
  <text x="60" y="530" font-size="11" fill="#94a3b8">Baseline Wander (BW - Ribs):</text>
  <rect x="250" y="518" width="112.8" height="16" fill="#06b6d4" rx="3"/>
  <text x="372.8" y="531" font-size="11" font-weight="bold" fill="#22d3ee">14.1 BrPM</text>

  <!-- Bar 2: AM Stroke Volume -->
  <text x="60" y="565" font-size="11" fill="#94a3b8">Amplitude Mod (AM - Stroke):</text>
  <rect x="250" y="553" width="51.2" height="16" fill="#3b82f6" rx="3"/>
  <text x="311.2" y="566" font-size="11" font-weight="bold" fill="#60a5fa">6.4 BrPM</text>

  <!-- Bar 3: FM Respiratory Sinus Arrhythmia -->
  <text x="60" y="600" font-size="11" fill="#94a3b8">Freq Mod (FM - Vagal RSA):</text>
  <rect x="250" y="588" width="52.8" height="16" fill="#8b5cf6" rx="3"/>
  <text x="312.8" y="601" font-size="11" font-weight="bold" fill="#a78bfa">6.6 BrPM</text>

  <!-- Consensus Badge -->
  <rect x="60" y="630" width="540" height="50" fill="#0f172a" stroke="#334155" rx="6"/>
  <text x="75" y="660" font-size="12" font-weight="bold" fill="#f8fafc">
    CONSENSUS RESPIRATION: <tspan fill="#38bdf8" font-size="15">6.5 BrPM</tspan>
  </text>
  <text x="440" y="660" font-size="11" fill="#34d399">
    ✓ Rib Time-Domain Verified
  </text>

  <!-- ================= PANEL 6: Clinical Vitals Matrix & Multi-Tier SQI ================= -->
  <rect x="660" y="470" width="580" height="230" fill="#131d31" stroke="#1e293b" rx="10"/>
  <text x="680" y="494" font-size="12" font-weight="bold" fill="#f43f5e">
    6. Clinical Hemodynamic Matrix & 4-Gate SQI Protocol
  </text>

  <g transform="translate(680, 515)">
    <!-- Column 1 -->
    <rect x="0" y="0" width="165" height="75" fill="#0f172a" stroke="#1e293b" rx="6"/>
    <text x="15" y="24" font-size="10" fill="#94a3b8">HEART RATE</text>
    <text x="15" y="55" font-size="22" font-weight="bold" fill="#ef4444">126.6 <tspan font-size="11" font-weight="normal" fill="#64748b">BPM</tspan></text>

    <!-- Column 2 -->
    <rect x="180" y="0" width="165" height="75" fill="#0f172a" stroke="#1e293b" rx="6"/>
    <text x="195" y="24" font-size="10" fill="#94a3b8">SpO2 PROXY (Reflectance)</text>
    <text x="195" y="55" font-size="22" font-weight="bold" fill="#38bdf8">100 <tspan font-size="11" font-weight="normal" fill="#64748b">%</tspan></text>

    <!-- Column 3 -->
    <rect x="360" y="0" width="180" height="75" fill="#0f172a" stroke="#1e293b" rx="6"/>
    <text x="375" y="24" font-size="10" fill="#94a3b8">PERFUSION INDEX (PI)</text>
    <text x="375" y="55" font-size="22" font-weight="bold" fill="#10b981">0.18 <tspan font-size="11" font-weight="normal" fill="#64748b">%</tspan></text>

    <!-- Row 2: SQI Diagnostics -->
    <rect x="0" y="90" width="540" height="85" fill="#0f172a" stroke="#334155" rx="6"/>
    <text x="15" y="112" font-size="11" font-weight="bold" fill="#f8fafc">4-GATE SIGNAL QUALITY INDEX (SQI): <tspan fill="#34d399">100%</tspan></text>
    <text x="15" y="132" font-size="10" fill="#94a3b8">• PI Gate (>=0.15%): <tspan fill="#34d399">PASSED</tspan></text>
    <text x="210" y="132" font-size="10" fill="#94a3b8">• Template Corr (r): <tspan fill="#38bdf8">0.92</tspan></text>
    <text x="390" y="132" font-size="10" fill="#94a3b8">• Skewness (S>0): <tspan fill="#38bdf8">0</tspan></text>
    <text x="15" y="156" font-size="10" fill="#94a3b8">• Sternal Contact Force: <tspan font-weight="bold" fill="#34d399">OPTIMAL</tspan></text>
    <text x="320" y="156" font-size="10" fill="#94a3b8">• Asystole State: <tspan font-weight="bold" fill="#34d399">PULSATILE RHYTHM</tspan></text>
  </g>

  <!-- Footer Info -->
  <text x="640" y="730" font-size="11" text-anchor="middle" fill="#64748b">
    Generated automatically by PulseGuard / The Intermediator On-Device DSP Engine • Direct Paramedic Telemetry Relay
  </text>
</svg>
