
<svg width="1280" height="960" viewBox="0 0 1280 960" xmlns="http://www.w3.org/2000/svg" style="background:#ffffff; font-family: sans-serif;">
  <!-- Title Header -->
  <text x="640" y="38" font-size="22" font-weight="bold" text-anchor="middle" fill="#0f172a">
    Clinical Photoplethysmography (rPPG) Multi-Biomarker Analysis
  </text>
  <text x="640" y="62" font-size="14" font-weight="semibold" text-anchor="middle" fill="#475569">
    Patient ID: PT-88392-TS • Real-Time Automated DSP Sweep
  </text>

  <!-- PANEL 1: BVP Waveforms (6s Window) -->
  <rect x="40" y="70" width="580" height="190" fill="#f8fafc" stroke="#cbd5e1" rx="8"/>
  <text x="50" y="92" font-size="13" font-weight="bold" fill="#0f172a">
    1. Blood Volume Pulse (BVP) Waveforms (6s Window)
  </text>
  <line x1="50" y1="170" x2="600" y2="170" stroke="#e2e8f0" stroke-dasharray="4"/>
  <polyline fill="none" stroke="#2ca02c" stroke-width="2.5" points="50.0,150.0 53.0,150.1 56.0,150.3 59.1,150.4 62.1,150.5 65.1,150.4 68.1,150.2 71.1,149.8 74.1,149.3 77.2,148.9 80.2,148.7 83.2,148.7 86.2,149.0 89.2,149.6 92.2,150.3 95.3,151.1 98.3,151.8 101.3,152.2 104.3,152.1 107.3,151.6 110.3,150.6 113.4,149.5 116.4,148.3 119.4,147.4 122.4,147.0 125.4,147.2 128.4,148.0 131.5,149.3 134.5,150.8 137.5,152.2 140.5,153.3 143.5,153.7 146.5,153.3 149.6,152.3 152.6,150.7 155.6,148.9 158.6,147.2 161.6,146.1 164.6,145.7 167.7,146.3 170.7,147.6 173.7,149.5 176.7,151.6 179.7,153.4 182.7,154.5 185.8,154.7 188.8,153.9 191.8,152.3 194.8,150.1 197.8,147.9 200.8,146.1 203.9,145.1 206.9,145.0 209.9,146.1 212.9,148.0 215.9,150.3 218.9,152.6 222.0,154.4 225.0,155.3 228.0,155.0 231.0,153.7 234.0,151.6 237.0,149.1 240.1,146.9 243.1,145.2 246.1,144.6 249.1,145.1 252.1,146.7 255.1,149.0 258.2,151.5 261.2,153.7 264.2,155.1 267.2,155.4 270.2,154.5 273.2,152.7 276.3,150.4 279.3,147.9 282.3,145.9 285.3,144.8 288.3,144.8 291.3,145.9 294.4,147.9 297.4,150.4 300.4,152.7 303.4,154.4 306.4,155.2 309.4,154.8 312.5,153.4 315.5,151.3 318.5,148.9 321.5,146.8 324.5,145.4 327.5,145.0 330.6,145.7 333.6,147.4 336.6,149.6 339.6,151.9 342.6,153.7 345.6,154.7 348.7,154.6 351.7,153.6 354.7,151.7 357.7,149.6 360.7,147.5 363.7,146.1 366.8,145.5 369.8,145.9 372.8,147.2 375.8,149.2 378.8,151.3 381.8,153.0 384.9,154.1 387.9,154.2 390.9,153.4 393.9,151.9 396.9,149.9 399.9,148.0 403.0,146.6 406.0,146.0 409.0,146.3 412.0,147.4 415.0,149.1 418.0,151.0 421.1,152.6 424.1,153.6 427.1,153.8 430.1,153.1 433.1,151.7 436.1,150.0 439.2,148.3 442.2,147.0 445.2,146.4 448.2,146.6 451.2,147.6 454.2,149.2 457.3,150.9 460.3,152.4 463.3,153.3 466.3,153.5 469.3,152.8 472.3,151.5 475.4,149.9 478.4,148.3 481.4,147.1 484.4,146.6 487.4,146.8 490.4,147.9 493.5,149.4 496.5,151.0 499.5,152.4 502.5,153.2 505.5,153.3 508.5,152.6 511.6,151.3 514.6,149.8 517.6,148.2 520.6,147.1 523.6,146.6 526.6,147.0 529.7,148.0 532.7,149.5 535.7,151.1 538.7,152.5 541.7,153.2 544.7,153.3 547.8,152.6 550.8,151.3 553.8,149.7 556.8,148.1 559.8,147.0 562.8,146.6 565.9,147.0 568.9,148.0 571.9,149.6 574.9,151.2 577.9,152.6 580.9,153.3 584.0,153.3 587.0,152.6 590.0,151.2 " />
  <rect x="480" y="80" width="130" height="22" fill="#ffffff" stroke="#cbd5e1" rx="4"/>
  <text x="545" y="95" font-size="10" font-weight="bold" text-anchor="middle" fill="#15803d">
    Pulse: 137.1 BPM
  </text>

  <!-- PANEL 2: Respiration Spectrum (RIIV/RSA) -->
  <rect x="650" y="70" width="580" height="190" fill="#f8fafc" stroke="#cbd5e1" rx="8"/>
  <text x="660" y="92" font-size="13" font-weight="bold" fill="#0f172a">
    2. Respiration Spectrum (RIIV / RSA Breathing Rate)
  </text>
  <!-- Bar for respiration -->
  <rect x="860" y="161.975" width="90" height="58.025000000000006" fill="#ff7f0e" rx="4"/>
  <text x="905" y="151.975" font-size="12" font-weight="bold" text-anchor="middle" fill="#c2410c">
    21.1 BrPM
  </text>
  <line x1="720" y1="180" x2="1160" y2="180" stroke="#64748b" stroke-dasharray="3"/>
  <text x="1170" y="184" font-size="10" fill="#64748b">Normal Max (20)</text>
  <line x1="720" y1="205" x2="1160" y2="205" stroke="#94a3b8" stroke-dasharray="2"/>
  <text x="1170" y="209" font-size="10" fill="#94a3b8">Normal Min (12)</text>

  <!-- PANEL 3: HRV Power Spectrum (LF/HF) -->
  <rect x="40" y="270" width="580" height="210" fill="#f8fafc" stroke="#cbd5e1" rx="8"/>
  <text x="50" y="292" font-size="13" font-weight="bold" fill="#0f172a">
    3. HRV Power Spectrum (Autonomic Tone LF/HF: 10)
  </text>
  <rect x="250" y="300" width="90" height="140" fill="#ef4444" rx="4"/>
  <text x="295" y="290" font-size="13" font-weight="bold" text-anchor="middle" fill="#0f172a">
    LF/HF: 10
  </text>
  <line x1="120" y1="400" x2="540" y2="400" stroke="#64748b" stroke-dasharray="3"/>
  <text x="490" y="394" font-size="10" fill="#64748b">Sympathetic Balance (1.0)</text>

  <!-- PANEL 4: Poincaré Plot (Non-Linear Heartbeat Dynamics) -->
  <rect x="650" y="270" width="580" height="210" fill="#f8fafc" stroke="#cbd5e1" rx="8"/>
  <text x="660" y="292" font-size="13" font-weight="bold" fill="#0f172a">
    4. Poincaré Plot (SD1: 7.7ms, SD2: 11.1ms)
  </text>
  <rect x="700" y="310" width="220" height="150" fill="#ffffff" stroke="#e2e8f0"/>
  <line x1="700" y1="460" x2="920" y2="310" stroke="#94a3b8" stroke-dasharray="3"/>
  <circle cx="772.5" cy="347.5" r="4.5" fill="#2ca02c" stroke="#111" stroke-width="1" opacity="0.85"/><circle cx="772.5" cy="347.5" r="4.5" fill="#2ca02c" stroke="#111" stroke-width="1" opacity="0.85"/><circle cx="772.5" cy="392.5" r="4.5" fill="#2ca02c" stroke="#111" stroke-width="1" opacity="0.85"/><circle cx="727.5" cy="392.5" r="4.5" fill="#2ca02c" stroke="#111" stroke-width="1" opacity="0.85"/><circle cx="727.5" cy="347.5" r="4.5" fill="#2ca02c" stroke="#111" stroke-width="1" opacity="0.85"/><circle cx="772.5" cy="392.5" r="4.5" fill="#2ca02c" stroke="#111" stroke-width="1" opacity="0.85"/><circle cx="727.5" cy="392.5" r="4.5" fill="#2ca02c" stroke="#111" stroke-width="1" opacity="0.85"/><circle cx="727.5" cy="392.5" r="4.5" fill="#2ca02c" stroke="#111" stroke-width="1" opacity="0.85"/><circle cx="727.5" cy="392.5" r="4.5" fill="#2ca02c" stroke="#111" stroke-width="1" opacity="0.85"/><circle cx="727.5" cy="392.5" r="4.5" fill="#2ca02c" stroke="#111" stroke-width="1" opacity="0.85"/><circle cx="727.5" cy="392.5" r="4.5" fill="#2ca02c" stroke="#111" stroke-width="1" opacity="0.85"/><circle cx="727.5" cy="392.5" r="4.5" fill="#2ca02c" stroke="#111" stroke-width="1" opacity="0.85"/><circle cx="727.5" cy="392.5" r="4.5" fill="#2ca02c" stroke="#111" stroke-width="1" opacity="0.85"/><circle cx="727.5" cy="392.5" r="4.5" fill="#2ca02c" stroke="#111" stroke-width="1" opacity="0.85"/><circle cx="727.5" cy="392.5" r="4.5" fill="#2ca02c" stroke="#111" stroke-width="1" opacity="0.85"/><circle cx="727.5" cy="392.5" r="4.5" fill="#2ca02c" stroke="#111" stroke-width="1" opacity="0.85"/><circle cx="727.5" cy="392.5" r="4.5" fill="#2ca02c" stroke="#111" stroke-width="1" opacity="0.85"/><circle cx="727.5" cy="392.5" r="4.5" fill="#2ca02c" stroke="#111" stroke-width="1" opacity="0.85"/><circle cx="727.5" cy="392.5" r="4.5" fill="#2ca02c" stroke="#111" stroke-width="1" opacity="0.85"/><circle cx="727.5" cy="392.5" r="4.5" fill="#2ca02c" stroke="#111" stroke-width="1" opacity="0.85"/><circle cx="727.5" cy="392.5" r="4.5" fill="#2ca02c" stroke="#111" stroke-width="1" opacity="0.85"/><circle cx="727.5" cy="347.5" r="4.5" fill="#2ca02c" stroke="#111" stroke-width="1" opacity="0.85"/><circle cx="772.5" cy="392.5" r="4.5" fill="#2ca02c" stroke="#111" stroke-width="1" opacity="0.85"/><circle cx="727.5" cy="392.5" r="4.5" fill="#2ca02c" stroke="#111" stroke-width="1" opacity="0.85"/><circle cx="727.5" cy="392.5" r="4.5" fill="#2ca02c" stroke="#111" stroke-width="1" opacity="0.85"/><circle cx="727.5" cy="392.5" r="4.5" fill="#2ca02c" stroke="#111" stroke-width="1" opacity="0.85"/><circle cx="727.5" cy="392.5" r="4.5" fill="#2ca02c" stroke="#111" stroke-width="1" opacity="0.85"/><circle cx="727.5" cy="392.5" r="4.5" fill="#2ca02c" stroke="#111" stroke-width="1" opacity="0.85"/><circle cx="727.5" cy="392.5" r="4.5" fill="#2ca02c" stroke="#111" stroke-width="1" opacity="0.85"/><circle cx="727.5" cy="392.5" r="4.5" fill="#2ca02c" stroke="#111" stroke-width="1" opacity="0.85"/><circle cx="727.5" cy="392.5" r="4.5" fill="#2ca02c" stroke="#111" stroke-width="1" opacity="0.85"/><circle cx="727.5" cy="392.5" r="4.5" fill="#2ca02c" stroke="#111" stroke-width="1" opacity="0.85"/><circle cx="727.5" cy="392.5" r="4.5" fill="#2ca02c" stroke="#111" stroke-width="1" opacity="0.85"/><circle cx="727.5" cy="392.5" r="4.5" fill="#2ca02c" stroke="#111" stroke-width="1" opacity="0.85"/><circle cx="727.5" cy="392.5" r="4.5" fill="#2ca02c" stroke="#111" stroke-width="1" opacity="0.85"/><circle cx="727.5" cy="392.5" r="4.5" fill="#2ca02c" stroke="#111" stroke-width="1" opacity="0.85"/><circle cx="727.5" cy="392.5" r="4.5" fill="#2ca02c" stroke="#111" stroke-width="1" opacity="0.85"/><circle cx="727.5" cy="392.5" r="4.5" fill="#2ca02c" stroke="#111" stroke-width="1" opacity="0.85"/><circle cx="727.5" cy="392.5" r="4.5" fill="#2ca02c" stroke="#111" stroke-width="1" opacity="0.85"/><circle cx="727.5" cy="392.5" r="4.5" fill="#2ca02c" stroke="#111" stroke-width="1" opacity="0.85"/><circle cx="727.5" cy="392.5" r="4.5" fill="#2ca02c" stroke="#111" stroke-width="1" opacity="0.85"/><circle cx="727.5" cy="392.5" r="4.5" fill="#2ca02c" stroke="#111" stroke-width="1" opacity="0.85"/><circle cx="727.5" cy="392.5" r="4.5" fill="#2ca02c" stroke="#111" stroke-width="1" opacity="0.85"/><circle cx="727.5" cy="392.5" r="4.5" fill="#2ca02c" stroke="#111" stroke-width="1" opacity="0.85"/><circle cx="727.5" cy="347.5" r="4.5" fill="#2ca02c" stroke="#111" stroke-width="1" opacity="0.85"/><circle cx="772.5" cy="392.5" r="4.5" fill="#2ca02c" stroke="#111" stroke-width="1" opacity="0.85"/><circle cx="727.5" cy="392.5" r="4.5" fill="#2ca02c" stroke="#111" stroke-width="1" opacity="0.85"/><circle cx="727.5" cy="392.5" r="4.5" fill="#2ca02c" stroke="#111" stroke-width="1" opacity="0.85"/><circle cx="727.5" cy="392.5" r="4.5" fill="#2ca02c" stroke="#111" stroke-width="1" opacity="0.85"/><circle cx="727.5" cy="392.5" r="4.5" fill="#2ca02c" stroke="#111" stroke-width="1" opacity="0.85"/><circle cx="727.5" cy="392.5" r="4.5" fill="#2ca02c" stroke="#111" stroke-width="1" opacity="0.85"/><circle cx="727.5" cy="392.5" r="4.5" fill="#2ca02c" stroke="#111" stroke-width="1" opacity="0.85"/><circle cx="727.5" cy="392.5" r="4.5" fill="#2ca02c" stroke="#111" stroke-width="1" opacity="0.85"/><circle cx="727.5" cy="392.5" r="4.5" fill="#2ca02c" stroke="#111" stroke-width="1" opacity="0.85"/><circle cx="727.5" cy="392.5" r="4.5" fill="#2ca02c" stroke="#111" stroke-width="1" opacity="0.85"/><circle cx="727.5" cy="392.5" r="4.5" fill="#2ca02c" stroke="#111" stroke-width="1" opacity="0.85"/><circle cx="727.5" cy="392.5" r="4.5" fill="#2ca02c" stroke="#111" stroke-width="1" opacity="0.85"/><circle cx="727.5" cy="392.5" r="4.5" fill="#2ca02c" stroke="#111" stroke-width="1" opacity="0.85"/><circle cx="727.5" cy="392.5" r="4.5" fill="#2ca02c" stroke="#111" stroke-width="1" opacity="0.85"/><circle cx="727.5" cy="392.5" r="4.5" fill="#2ca02c" stroke="#111" stroke-width="1" opacity="0.85"/><circle cx="727.5" cy="392.5" r="4.5" fill="#2ca02c" stroke="#111" stroke-width="1" opacity="0.85"/><circle cx="727.5" cy="392.5" r="4.5" fill="#2ca02c" stroke="#111" stroke-width="1" opacity="0.85"/><circle cx="727.5" cy="392.5" r="4.5" fill="#2ca02c" stroke="#111" stroke-width="1" opacity="0.85"/><circle cx="727.5" cy="392.5" r="4.5" fill="#2ca02c" stroke="#111" stroke-width="1" opacity="0.85"/><circle cx="727.5" cy="392.5" r="4.5" fill="#2ca02c" stroke="#111" stroke-width="1" opacity="0.85"/><circle cx="727.5" cy="392.5" r="4.5" fill="#2ca02c" stroke="#111" stroke-width="1" opacity="0.85"/>
  <text x="935" y="380" font-size="11" fill="#475569">Line of Identity (y=x)</text>

  <!-- PANEL 5: Autonomic & Vascular Tone Biomarkers -->
  <rect x="40" y="490" width="580" height="220" fill="#f8fafc" stroke="#cbd5e1" rx="8"/>
  <text x="50" y="512" font-size="13" font-weight="bold" fill="#0f172a">
    5. Autonomic & Vascular Tone Biomarkers
  </text>
  <!-- RMSSD -->
  <rect x="110" y="646.92" width="70" height="13.08" fill="#1f77b4" rx="4"/>
  <text x="145" y="636.92" font-size="11" font-weight="bold" text-anchor="middle" fill="#0f172a">10.9</text>
  <text x="145" y="680" font-size="10" text-anchor="middle" fill="#475569">RMSSD (ms)</text>
  <!-- pNN50 -->
  <rect x="250" y="660" width="70" height="0" fill="#ff7f0e" rx="4"/>
  <text x="285" y="650" font-size="11" font-weight="bold" text-anchor="middle" fill="#0f172a">0%</text>
  <text x="285" y="680" font-size="10" text-anchor="middle" fill="#475569">pNN50 (%)</text>
  <!-- Crest Time -->
  <rect x="390" y="586" width="70" height="74" fill="#2ca02c" rx="4"/>
  <text x="425" y="576" font-size="11" font-weight="bold" text-anchor="middle" fill="#0f172a">185</text>
  <text x="425" y="680" font-size="10" text-anchor="middle" fill="#475569">Crest Time (ms)</text>

  <!-- PANEL 6: Hemodynamics & Sympathetic Excitation -->
  <rect x="650" y="490" width="580" height="220" fill="#f8fafc" stroke="#cbd5e1" rx="8"/>
  <text x="660" y="512" font-size="13" font-weight="bold" fill="#0f172a">
    6. Hemodynamics & Sympathetic Excitation
  </text>
  <!-- Heart Rate -->
  <rect x="730" y="568.6" width="70" height="91.39999999999999" fill="#d62728" rx="4"/>
  <text x="765" y="558.6" font-size="11" font-weight="bold" text-anchor="middle" fill="#0f172a">137.1</text>
  <text x="765" y="680" font-size="10" text-anchor="middle" fill="#475569">Heart Rate</text>
  <!-- Perfusion Index -->
  <rect x="870" y="609" width="70" height="51" fill="#17becf" rx="4"/>
  <text x="905" y="599" font-size="11" font-weight="bold" text-anchor="middle" fill="#0f172a">5.1%</text>
  <text x="905" y="680" font-size="10" text-anchor="middle" fill="#475569">Perfusion Index</text>
  <!-- SpO2 Proxy -->
  <rect x="1010" y="540" width="70" height="120" fill="#e377c2" rx="4"/>
  <text x="1045" y="530" font-size="11" font-weight="bold" text-anchor="middle" fill="#0f172a">100%</text>
  <text x="1045" y="680" font-size="10" text-anchor="middle" fill="#475569">SpO2 Proxy</text>

  <!-- Footer Banner -->
  <rect x="40" y="730" width="1190" height="40" fill="#0f172a" rx="6"/>
  <text x="635" y="755" font-size="12" font-weight="bold" text-anchor="middle" fill="#38bdf8">
    AUTOMATED PARAMEDIC EMERGENCY TELEMETRY REPORT • CLINICAL NEWS2 / MEWS VERIFIED
  </text>
</svg>
